<?xml version="1.0" encoding="utf-8"?>
<!-- Generator: Adobe Illustrator 22.1.0, SVG Export Plug-In . SVG Version: 6.00 Build 0)  -->
<svg version="1.1" id="组_13_拷贝" xmlns="http://www.w3.org/2000/svg" xmlns:xlink="http://www.w3.org/1999/xlink" x="0px"
	 y="0px" viewBox="0 0 691 461" style="enable-background:new 0 0 691 461;" xml:space="preserve">
<style type="text/css">
	.st0{fill:none;stroke:#666666;stroke-dasharray:4,4;}
	.st1{fill:#4E6778;}
	.st2{enable-background:new    ;}
	.st3{fill:#2C3A44;}
	.st4{fill:#FFFFFF;}
	.st5{fill:#666666;}
</style>
<rect id="矩形_20" x="0.5" y="0.5" class="st0" width="690" height="460"/>
<circle id="椭圆_1" class="st1" cx="149.5" cy="397.8" r="44"/>
<circle id="椭圆_1_拷贝" class="st1" cx="341.7" cy="66.6" r="44"/>
<g id="Cloud_computing" class="st2">
	<path class="st3" d="M274.9,259.5h-0.5c-0.9-2.4-2.7-3.6-5.4-3.8c-4.2,0.3-6.4,2.6-6.5,6.9c0.3,4.6,2.6,7.2,6.8,7.6
		c2.6,0,4.5-1.2,5.8-3.6h0.5c-0.4,1.2-0.9,2.3-1.5,3.5c-0.6,0-1.3,0.1-2.2,0.3c-1.2,0.1-2.2,0.2-3.2,0.2c-5.3-0.2-8.1-2.8-8.4-7.5
		c0.4-4.9,3.2-7.6,8.6-8c1.3,0,2.6,0.3,4,0.8c0.5,0.1,0.8,0.2,1,0.2c0.1,0,0.2,0,0.3,0c0.1-0.1,0.1-0.1,0.2-0.1h0.4L274.9,259.5z"/>
	<path class="st3" d="M280.1,254.3v14.3c0,0.9,0.5,1.4,1.4,1.4h0.4v0.5h-5.3V270c1.4,0.1,2-0.5,2-1.6v-11.6c0.1-0.6-0.2-0.9-0.7-0.9
		l-1.1-0.1v-0.5l3.1-0.9L280.1,254.3L280.1,254.3z"/>
	<path class="st3" d="M283.2,265.8c0.2-3.1,1.9-4.8,5.1-5.1c3.2,0.3,4.9,2,5.1,5.1c-0.3,3-1.9,4.6-5,4.8
		C285.1,270.4,283.4,268.8,283.2,265.8z M285,264.9c0.2,3.3,1.4,5,3.6,5.3c1.9-0.2,2.9-1.5,3.1-3.8c-0.3-3.1-1.5-4.8-3.7-5.1
		C286.1,261.5,285.1,262.7,285,264.9z"/>
	<path class="st3" d="M306.4,269.3v0.5l-3.2,0.8v-1.7c-1.7,1.1-3.1,1.7-4.1,1.7c-1.6-0.1-2.5-0.8-2.5-2.3V263c0-0.6-0.2-0.9-0.7-0.9
		l-0.8-0.3v-0.4l3.1-0.7v6.8c0,1.4,0.7,2.1,2.2,2.2c0.7,0.1,1.7-0.4,2.9-1.3v-5.2c0.1-0.8-0.3-1.3-0.9-1.3l-1.1-0.2v-0.4l3.6-0.6
		v8.1c-0.1,0.7,0.2,0.9,1.1,0.7L306.4,269.3z"/>
	<path class="st3" d="M315.6,261.2v-4.7c0.1-0.4-0.2-0.6-0.9-0.7l-0.8-0.1v-0.5l3.4-0.9v14.1c0,0.8,0.4,1.1,1.1,0.8l0.6-0.2v0.5
		l-3,1h-0.3V269c-1.6,1-2.9,1.5-3.7,1.5c-2.4-0.1-3.6-1.6-3.8-4.4c0.2-3.3,2-5.1,5.2-5.4C314,260.8,314.8,260.9,315.6,261.2z
		 M315.6,268.5v-5.3c-0.9-1.2-1.8-1.8-2.9-1.8c-1.9,0.2-3,1.5-3.1,3.9c0.1,2.7,1.2,4.2,3.1,4.4C313.4,269.7,314.4,269.3,315.6,268.5
		z"/>
	<path class="st3" d="M334.5,268l0.4,0.2c-1,1.6-2.4,2.3-4.2,2.3c-2.5-0.1-3.8-1.5-4-4.4c0.2-3.3,2.1-5.1,5.5-5.4
		c1.6,0.1,2.5,0.5,2.6,1.3c-0.1,0.5-0.3,0.8-0.7,0.8c-0.4,0-0.9-0.2-1.4-0.7c-0.5-0.6-1-0.8-1.4-0.8c-1.9,0.3-2.9,1.8-3.1,4.3
		c0.1,2.7,1.2,4.1,3.4,4.2C332.7,269.9,333.7,269.3,334.5,268z"/>
	<path class="st3" d="M336.9,265.8c0.2-3.1,1.9-4.8,5.1-5.1c3.2,0.3,4.9,2,5.1,5.1c-0.3,3-1.9,4.6-5,4.8
		C338.8,270.4,337.1,268.8,336.9,265.8z M338.7,264.9c0.2,3.3,1.4,5,3.6,5.3c1.9-0.2,2.9-1.5,3.1-3.8c-0.3-3.1-1.5-4.8-3.7-5.1
		C339.8,261.5,338.8,262.7,338.7,264.9z"/>
	<path class="st3" d="M352,263.1v5.4c-0.2,1.2,0.4,1.7,1.7,1.5v0.5h-5V270c1.2,0.1,1.8-0.6,1.8-1.9v-4.7c0-0.8-0.3-1.2-0.7-1.2
		l-0.9-0.1v-0.4l2.9-1h0.4v1.9c1.7-1.2,3.1-1.8,4.2-1.9c1.2,0.1,2,0.7,2.3,1.9c0.2-0.1,0.4-0.2,0.6-0.3c1.7-1.1,2.9-1.6,3.6-1.6
		c1.6,0.1,2.4,1.3,2.4,3.6c0,1.3,0,2.2-0.1,2.8c0,0.7,0,1.3,0,1.9c0,0.7,0.4,1,1.2,1h0.7v0.5h-5.3V270h0.2c0.6,0.1,1,0,1.2-0.3
		c0.2-0.1,0.4-1.3,0.4-3.5v-1.9c0-1.7-0.6-2.7-1.8-2.7c-0.7,0-1.8,0.4-3.2,1.3v5.5c-0.1,1.1,0.4,1.6,1.5,1.5v0.5h-5V270
		c1.3,0.1,1.9-0.5,1.9-1.9v-4.4c-0.1-1.2-0.7-1.9-1.8-2.1C354.4,261.6,353.3,262.1,352,263.1z"/>
	<path class="st3" d="M370.6,270.2v3.7c-0.1,1.1,0.5,1.6,1.7,1.6h0.6v0.5h-5.6v-0.5h0.2c1.1,0.1,1.7-0.5,1.6-1.8v-10.4
		c0-0.4-0.2-0.7-0.7-0.8l-0.7-0.2v-0.4l2.5-1.6h0.5v2.3c1.5-1.1,2.7-1.7,3.7-1.7c2.1,0.3,3.3,1.8,3.6,4.4c-0.4,3.3-2.1,5-5,5.3
		C372.2,270.5,371.5,270.4,370.6,270.2z M370.6,263.1v5.4c1.1,0.9,2,1.3,2.9,1.3c1.7-0.1,2.6-1.3,2.8-3.6c-0.1-2.6-1.2-4.1-3.2-4.4
		C372.4,262,371.6,262.4,370.6,263.1z"/>
	<path class="st3" d="M390.9,269.3v0.5l-3.2,0.8v-1.7c-1.7,1.1-3.1,1.7-4.1,1.7c-1.6-0.1-2.5-0.8-2.5-2.3V263c0-0.6-0.2-0.9-0.7-0.9
		l-0.8-0.3v-0.4l3.1-0.7v6.8c0,1.4,0.7,2.1,2.2,2.2c0.7,0.1,1.7-0.4,2.9-1.3v-5.2c0.1-0.8-0.3-1.3-0.9-1.3l-1.1-0.2v-0.4l3.6-0.6
		v8.1c-0.1,0.7,0.2,0.9,1.1,0.7L390.9,269.3z"/>
	<path class="st3" d="M394.9,261h3.5l-0.4,1h-3.1v5.6c0,1.2,0.5,1.8,1.6,2c0.5,0.1,1-0.3,1.5-1.2l0.4,0.4c-0.6,1.1-1.5,1.7-2.6,1.8
		c-1.6-0.1-2.4-0.9-2.4-2.6v-6h-1.1v-0.4c0.9-0.5,1.7-1.5,2.3-3.1h0.4L394.9,261L394.9,261z"/>
	<path class="st3" d="M402.4,260.6v8.1c-0.1,0.9,0.5,1.4,1.7,1.3v0.5h-5.2V270c1.3,0.1,2-0.5,2-1.8v-4.8c0.1-0.8-0.2-1.2-0.7-1.2
		L399,262v-0.4l3.1-1H402.4z M400.5,256.1c0-0.6,0.3-0.9,1-0.9c0.6,0.1,1,0.4,1,0.9c-0.1,0.6-0.4,0.8-1,0.8
		C400.8,257,400.5,256.7,400.5,256.1z"/>
	<path class="st3" d="M408.4,263.1v5.3c-0.1,1.2,0.4,1.7,1.6,1.6v0.5h-4.8V270c1,0,1.5-0.5,1.6-1.5v-5.1c0.1-0.8-0.2-1.1-0.7-1.1
		l-0.8-0.2v-0.4l2.8-1h0.4v1.9c1.9-1.3,3.2-1.9,4.1-1.9c1.6,0.1,2.5,1.3,2.5,3.6c0,2-0.1,3.5-0.2,4.6v0.2c-0.1,0.7,0.4,1,1.4,0.9
		h0.5v0.5h-5.1V270c0.6,0.1,1.1-0.1,1.4-0.5c0.2-0.2,0.3-0.6,0.4-1.3c0.1-0.6,0.1-1.9,0.1-4c-0.1-1.6-0.7-2.5-1.9-2.5
		C410.9,261.7,409.9,262.2,408.4,263.1z"/>
	<path class="st3" d="M428.3,261.4v1.6c-0.2,0-1-0.1-2.4-0.3c0.2,0.4,0.4,0.9,0.5,1.5c-0.2,2.2-1.7,3.3-4.2,3.5
		c-0.4,0.1-0.8,0-1.1-0.2c-0.1,0.1-0.3,0.3-0.7,0.5c-0.6,0.3-0.8,0.6-0.8,0.8c-0.1,0.6,1.1,0.9,3.5,0.8c2.6,0.1,4,0.3,4.4,0.8
		c0.4,0.4,0.7,0.9,0.7,1.5c-0.6,2.5-2.7,3.8-6.5,4c-2.3-0.1-3.5-0.9-3.6-2.3c0-0.6,0.4-1.2,1.2-1.8c0.6-0.4,1-0.8,1.3-1.1
		c-1.4-0.1-2.1-0.6-2.2-1.5c0-0.5,0.5-0.9,1.4-1.3c0.5-0.2,0.8-0.3,1-0.5c-1.5-0.6-2.2-1.6-2.2-3c0.2-2.3,1.6-3.5,4.2-3.7
		c1.1,0,1.9,0.3,2.6,0.9C426.2,261.6,427.3,261.6,428.3,261.4z M419.4,272.8c0.2,1.4,1.4,2.2,3.6,2.3c2.3-0.3,3.6-1.2,3.9-2.8
		c-0.1-0.8-0.6-1.3-1.6-1.4c-0.4-0.1-1.2-0.1-2.2-0.2c-1.2,0-2,0-2.2,0c-0.2,0.1-0.4,0.3-0.7,0.6
		C419.6,271.8,419.3,272.3,419.4,272.8z M424.7,264.4c-0.1-2-0.9-3.1-2.4-3.2c-1.6,0.1-2.3,1-2.3,2.7c0.1,2.1,0.9,3.2,2.5,3.3
		C423.8,267.1,424.6,266.2,424.7,264.4z"/>
</g>
<g class="st2">
	<path class="st4" d="M322.7,55.2v2.6h-0.3c-0.1-0.8-0.4-1.2-0.9-1.1h-2.4v3c0,0.5,0.2,0.8,0.8,0.8h2.1c0.8,0.1,1.4-0.4,1.6-1.6h0.3
		l-0.2,2.1h-7.4v-0.3h0.4c0.9,0.1,1.4-0.3,1.3-1.1v-5.9c0-0.8-0.3-1.1-1.1-1.1h-0.3v-0.3h6.7l0.1,1.9h-0.3c-0.1-0.9-0.5-1.4-1-1.4
		h-2.9v3.4h2.5c0.5,0,0.8-0.3,0.8-1C322.5,55.2,322.7,55.2,322.7,55.2z"/>
	<path class="st4" d="M326.7,56.7v3.1c-0.1,0.7,0.2,1,0.9,0.9V61h-2.8v-0.3c0.6,0,0.9-0.3,0.9-0.9v-3c0-0.4-0.1-0.7-0.4-0.7
		l-0.5-0.1v-0.2l1.6-0.6h0.2v1.1c1.1-0.8,1.9-1.1,2.4-1.1c0.9,0,1.4,0.7,1.5,2.1c0,1.2,0,2.1-0.1,2.7v0.1c0,0.4,0.2,0.6,0.8,0.5h0.3
		V61h-3v-0.3c0.4,0,0.6-0.1,0.8-0.3c0.1-0.1,0.2-0.4,0.2-0.8c0-0.3,0.1-1.1,0.1-2.4c0-0.9-0.4-1.4-1.1-1.5
		C328.2,55.9,327.6,56.1,326.7,56.7z"/>
	<path class="st4" d="M334,56.5v3.4c-0.1,0.6,0.2,0.9,0.9,0.8V61h-2.8v-0.3c0.7,0,1-0.3,1-1.1v-6.7c0-0.3-0.1-0.5-0.4-0.5l-0.6-0.1
		V52l1.7-0.5h0.2v4.6c1-0.6,1.7-0.9,2.3-0.9c1.1,0,1.6,0.7,1.6,2.1c0,0.9,0,1.9-0.1,2.8c0,0.4,0.4,0.6,1.1,0.5V61h-3.1v-0.3
		c0.4,0,0.6,0,0.8-0.2c0.1-0.1,0.2-0.4,0.2-0.8c0.1-0.4,0.1-1.1,0.1-2.2c0-1.1-0.5-1.7-1.3-1.7C335.2,55.8,334.7,56,334,56.5z"/>
	<path class="st4" d="M340.6,56.6l-0.9,0.4c-0.1,0-0.1-0.1-0.1-0.2c0.4-0.9,1.1-1.5,2.1-1.6c0.6,0,1.1,0.3,1.5,0.7
		c0.1,0.2,0.1,0.3,0.1,0.4c0,0.1,0.1,0.4,0.1,0.8V59c-0.1,1.1,0.1,1.5,0.4,1.4c0.2,0,0.4-0.1,0.7-0.3l0.1,0.2
		c-0.6,0.4-1.1,0.7-1.4,0.7c-0.4,0-0.6-0.3-0.6-0.8c-0.8,0.5-1.3,0.8-1.6,0.8c-0.9,0-1.3-0.4-1.3-1c0-0.7,0.5-1.1,1.6-1.4
		c0.3,0,0.7-0.2,1.3-0.5V57c0-0.4-0.1-0.7-0.2-0.9c-0.3-0.3-0.5-0.4-0.8-0.4c-0.5,0.1-0.8,0.3-0.9,0.7
		C340.5,56.4,340.5,56.5,340.6,56.6z M342.4,60v-1.7c-0.2,0.1-0.5,0.3-0.8,0.4c-0.9,0.3-1.3,0.6-1.1,1c0,0.5,0.3,0.8,0.8,0.8
		C341.4,60.7,341.8,60.5,342.4,60z"/>
	<path class="st4" d="M346.8,56.7v3.1c-0.1,0.7,0.2,1,0.9,0.9V61h-2.8v-0.3c0.6,0,0.9-0.3,0.9-0.9v-3c0-0.4-0.1-0.7-0.4-0.7
		l-0.5-0.1v-0.2l1.6-0.6h0.2v1.1c1.1-0.8,1.9-1.1,2.4-1.1c0.9,0,1.4,0.7,1.5,2.1c0,1.2,0,2.1-0.1,2.7v0.1c0,0.4,0.2,0.6,0.8,0.5h0.3
		V61h-3v-0.3c0.4,0,0.6-0.1,0.8-0.3c0.1-0.1,0.2-0.4,0.2-0.8c0-0.3,0.1-1.1,0.1-2.4c0-0.9-0.4-1.4-1.1-1.5
		C348.2,55.9,347.6,56.1,346.8,56.7z"/>
	<path class="st4" d="M357,59.5l0.2,0.1c-0.6,0.9-1.4,1.4-2.5,1.4c-1.5,0-2.2-0.9-2.3-2.6c0.1-1.9,1.2-3,3.2-3.2
		c0.9,0,1.5,0.3,1.5,0.8c0,0.3-0.2,0.4-0.4,0.4c-0.3,0-0.5-0.1-0.8-0.4c-0.3-0.3-0.6-0.5-0.8-0.5c-1.1,0.2-1.7,1-1.8,2.5
		c0.1,1.6,0.7,2.4,2,2.5C355.9,60.6,356.5,60.3,357,59.5z"/>
	<path class="st4" d="M363.4,57.4h-4.1c0,0.1,0,0.2-0.1,0.3c0,0.1,0,0.2,0,0.3c0.1,1.5,0.8,2.3,2.1,2.4c0.7,0,1.3-0.3,1.8-0.9
		l0.1,0.2c-0.7,0.8-1.5,1.3-2.5,1.3c-1.5-0.1-2.3-1-2.5-2.7c0.1-1.9,1-2.9,2.7-3c0.9,0,1.5,0.4,1.9,1.3c0.1,0.3,0.3,0.4,0.4,0.5v0.3
		H363.4z M359.4,57h2.8c-0.2-0.9-0.6-1.4-1.4-1.5C360.1,55.6,359.6,56.1,359.4,57z"/>
</g>
<g class="st2">
	<path class="st4" d="M308.7,76.7v3.2c-0.1,0.7,0.2,1,1,0.9V81h-2.9v-0.3c0.7,0,1-0.3,1-1.1v-2.7c0-0.4-0.1-0.7-0.4-0.7l-0.5-0.1
		v-0.2l1.7-0.6h0.2v1.1c1-0.7,1.8-1.1,2.5-1.1s1.1,0.4,1.4,1.1c0.1,0,0.2-0.1,0.3-0.2c1-0.6,1.7-0.9,2.1-0.9c0.9,0,1.4,0.7,1.4,2.1
		c0,0.7,0,1.3-0.1,1.6c0,0.4,0,0.8,0,1.1c0,0.4,0.2,0.6,0.7,0.6h0.4V81h-3.1v-0.3h0.1c0.4,0,0.6,0,0.7-0.2c0.1-0.1,0.2-0.7,0.2-2
		v-1.1c0-1-0.3-1.5-1-1.6c-0.4,0-1.1,0.3-1.9,0.8v3.2c-0.1,0.7,0.2,0.9,0.9,0.9V81h-2.9v-0.3c0.8,0.1,1.1-0.3,1.1-1.1V77
		c0-0.7-0.4-1.1-1-1.2C310.1,75.8,309.5,76.1,308.7,76.7z"/>
	<path class="st4" d="M319.1,76.7l-0.9,0.4c-0.1,0-0.1-0.1-0.1-0.2c0.4-0.9,1.1-1.5,2.1-1.6c0.6,0,1.1,0.3,1.5,0.7
		c0.1,0.2,0.1,0.3,0.1,0.4s0.1,0.4,0.1,0.8v1.9c-0.1,1.1,0.1,1.5,0.4,1.4c0.2,0,0.4-0.1,0.7-0.3l0.1,0.2c-0.6,0.4-1.1,0.7-1.4,0.7
		c-0.4,0-0.6-0.3-0.6-0.8c-0.8,0.5-1.3,0.8-1.6,0.8c-0.9,0-1.3-0.4-1.3-1c0-0.7,0.5-1.1,1.6-1.4c0.3,0,0.7-0.2,1.3-0.5V77
		c0-0.4-0.1-0.7-0.2-0.9c-0.3-0.3-0.5-0.4-0.8-0.4c-0.5,0.1-0.8,0.3-0.9,0.7C319,76.4,319,76.5,319.1,76.7z M320.9,80v-1.7
		c-0.2,0.1-0.5,0.3-0.8,0.4c-0.9,0.3-1.3,0.6-1.1,1c0,0.5,0.3,0.8,0.8,0.8C319.9,80.7,320.3,80.5,320.9,80z"/>
	<path class="st4" d="M325.3,76.7v3.1c-0.1,0.7,0.2,1,0.9,0.9V81h-2.8v-0.3c0.6,0,0.9-0.3,0.9-0.9v-3c0-0.4-0.1-0.7-0.4-0.7
		l-0.5-0.1v-0.2l1.6-0.6h0.2v1.1c1.1-0.8,1.9-1.1,2.4-1.1c0.9,0,1.4,0.7,1.5,2.1c0,1.2,0,2.1-0.1,2.7v0.1c0,0.4,0.2,0.6,0.8,0.5h0.3
		V81h-3v-0.3c0.4,0,0.6-0.1,0.8-0.3c0.1-0.1,0.2-0.4,0.2-0.8c0-0.3,0.1-1.1,0.1-2.4c0-0.9-0.4-1.4-1.1-1.5
		C326.7,75.9,326.1,76.2,325.3,76.7z"/>
	<path class="st4" d="M331.9,76.7l-0.9,0.4c-0.1,0-0.1-0.1-0.1-0.2c0.4-0.9,1.1-1.5,2.1-1.6c0.6,0,1.1,0.3,1.5,0.7
		c0.1,0.2,0.1,0.3,0.1,0.4s0.1,0.4,0.1,0.8v1.9c-0.1,1.1,0.1,1.5,0.4,1.4c0.2,0,0.4-0.1,0.7-0.3l0.1,0.2c-0.6,0.4-1.1,0.7-1.4,0.7
		c-0.4,0-0.6-0.3-0.6-0.8c-0.8,0.5-1.3,0.8-1.6,0.8c-0.9,0-1.3-0.4-1.3-1c0-0.7,0.5-1.1,1.6-1.4c0.3,0,0.7-0.2,1.3-0.5V77
		c0-0.4-0.1-0.7-0.2-0.9c-0.3-0.3-0.5-0.4-0.8-0.4c-0.5,0.1-0.8,0.3-0.9,0.7C331.8,76.4,331.8,76.5,331.9,76.7z M333.7,80v-1.7
		c-0.2,0.1-0.5,0.3-0.8,0.4c-0.9,0.3-1.3,0.6-1.1,1c0,0.5,0.3,0.8,0.8,0.8C332.7,80.7,333.1,80.5,333.7,80z"/>
	<path class="st4" d="M342.4,75.7v0.9c-0.1,0-0.6-0.1-1.4-0.2c0.1,0.2,0.2,0.5,0.3,0.9c-0.1,1.3-1,2-2.5,2c-0.3,0-0.5,0-0.7-0.1
		c-0.1,0.1-0.2,0.2-0.4,0.3c-0.3,0.2-0.5,0.3-0.5,0.4c0,0.4,0.6,0.5,2,0.5c1.5,0,2.3,0.2,2.6,0.5c0.3,0.2,0.4,0.5,0.4,0.9
		c-0.3,1.5-1.6,2.2-3.8,2.4c-1.3-0.1-2.1-0.5-2.1-1.4c0-0.4,0.2-0.7,0.7-1c0.3-0.3,0.6-0.5,0.8-0.7c-0.8-0.1-1.2-0.4-1.3-0.9
		c0-0.3,0.3-0.5,0.8-0.8c0.3-0.1,0.5-0.2,0.6-0.3c-0.9-0.3-1.3-0.9-1.3-1.8c0.1-1.3,0.9-2,2.5-2.1c0.6,0,1.1,0.2,1.5,0.5
		C341.2,75.8,341.8,75.8,342.4,75.7z M337.2,82.3c0.1,0.8,0.8,1.3,2.1,1.4c1.3-0.1,2.1-0.7,2.3-1.6c0-0.5-0.3-0.7-0.9-0.8
		c-0.3,0-0.7-0.1-1.3-0.1c-0.7,0-1.1,0-1.3,0c-0.1,0.1-0.2,0.2-0.4,0.3C337.3,81.8,337.1,82,337.2,82.3z M340.3,77.4
		c0-1.2-0.5-1.8-1.4-1.9c-0.9,0.1-1.4,0.6-1.4,1.6c0,1.2,0.5,1.9,1.5,1.9C339.8,79,340.2,78.5,340.3,77.4z"/>
	<path class="st4" d="M348,77.4h-4.1c0,0.1,0,0.2-0.1,0.3c0,0.1,0,0.2,0,0.3c0.1,1.5,0.8,2.3,2.1,2.4c0.7,0,1.3-0.3,1.8-0.9l0.1,0.2
		c-0.7,0.8-1.5,1.3-2.5,1.3c-1.5-0.1-2.3-1-2.5-2.7c0.1-1.9,1-2.9,2.7-3c0.9,0,1.5,0.4,1.9,1.3c0.1,0.3,0.3,0.4,0.4,0.5v0.3H348z
		 M344,77h2.8c-0.2-0.9-0.6-1.4-1.4-1.5C344.7,75.6,344.2,76.1,344,77z"/>
	<path class="st4" d="M350.7,76.7v3.2c-0.1,0.7,0.2,1,1,0.9V81h-2.9v-0.3c0.7,0,1-0.3,1-1.1v-2.7c0-0.4-0.1-0.7-0.4-0.7l-0.5-0.1
		v-0.2l1.7-0.6h0.2v1.1c1-0.7,1.8-1.1,2.5-1.1s1.1,0.4,1.4,1.1c0.1,0,0.2-0.1,0.3-0.2c1-0.6,1.7-0.9,2.1-0.9c0.9,0,1.4,0.7,1.4,2.1
		c0,0.7,0,1.3-0.1,1.6c0,0.4,0,0.8,0,1.1c0,0.4,0.2,0.6,0.7,0.6h0.4V81h-3.1v-0.3h0.1c0.4,0,0.6,0,0.7-0.2c0.1-0.1,0.2-0.7,0.2-2
		v-1.1c0-1-0.3-1.5-1-1.6c-0.4,0-1.1,0.3-1.9,0.8v3.2c-0.1,0.7,0.2,0.9,0.9,0.9V81h-2.9v-0.3c0.8,0.1,1.1-0.3,1.1-1.1V77
		c0-0.7-0.4-1.1-1-1.2C352.1,75.8,351.5,76.1,350.7,76.7z"/>
	<path class="st4" d="M365.1,77.4H361c0,0.1,0,0.2-0.1,0.3c0,0.1,0,0.2,0,0.3c0.1,1.5,0.8,2.3,2.1,2.4c0.7,0,1.3-0.3,1.8-0.9
		l0.1,0.2c-0.7,0.8-1.5,1.3-2.5,1.3c-1.5-0.1-2.3-1-2.5-2.7c0.1-1.9,1-2.9,2.7-3c0.9,0,1.5,0.4,1.9,1.3c0.1,0.3,0.3,0.4,0.4,0.5v0.3
		H365.1z M361.1,77h2.8c-0.2-0.9-0.6-1.4-1.4-1.5C361.9,75.6,361.4,76.1,361.1,77z"/>
	<path class="st4" d="M367.8,76.7v3.1c-0.1,0.7,0.2,1,0.9,0.9V81H366v-0.3c0.6,0,0.9-0.3,0.9-0.9v-3c0-0.4-0.1-0.7-0.4-0.7L366,76
		v-0.2l1.6-0.6h0.2v1.1c1.1-0.8,1.9-1.1,2.4-1.1c0.9,0,1.4,0.7,1.5,2.1c0,1.2,0,2.1-0.1,2.7v0.1c0,0.4,0.2,0.6,0.8,0.5h0.3V81h-3
		v-0.3c0.4,0,0.6-0.1,0.8-0.3c0.1-0.1,0.2-0.4,0.2-0.8c0-0.3,0.1-1.1,0.1-2.4c0-0.9-0.4-1.4-1.1-1.5
		C369.3,75.9,368.7,76.2,367.8,76.7z"/>
	<path class="st4" d="M374.8,75.5h2l-0.2,0.6h-1.8v3.3c0,0.7,0.3,1.1,0.9,1.1c0.3,0,0.6-0.2,0.9-0.7l0.2,0.2c-0.4,0.7-0.9,1-1.5,1
		c-0.9,0-1.4-0.5-1.4-1.5v-3.4h-0.7v-0.2c0.5-0.3,1-0.9,1.4-1.8h0.2V75.5z"/>
</g>
<g>
	<g class="st2">
		<path class="st4" d="M131.4,384.8v2.5h-0.2c0-0.8-0.4-1.1-1-1.1h-2.6v3.1c-0.1,0.8,0.3,1.2,1.3,1.1v0.3h-3.4v-0.3
			c0.7,0.1,1.1-0.3,1-1.4v-5.5c0.1-0.9-0.3-1.4-1-1.3v-0.3h6.3v1.6h-0.3c0-0.8-0.3-1.2-1.1-1.1h-2.7v3.3h2.8c0.5,0,0.7-0.3,0.8-0.9
			L131.4,384.8L131.4,384.8z"/>
		<path class="st4" d="M134.5,384.8v4.7c0,0.5,0.3,0.8,1,0.8v0.3h-3.1v-0.3c0.8,0,1.1-0.3,1.1-1v-2.8c0-0.4-0.1-0.7-0.4-0.7
			l-0.7-0.1v-0.2l1.8-0.6L134.5,384.8L134.5,384.8z M133.4,382.2c0-0.3,0.2-0.5,0.6-0.5c0.4,0,0.6,0.2,0.6,0.5s-0.2,0.5-0.6,0.5
			C133.6,382.7,133.4,382.5,133.4,382.2z"/>
		<path class="st4" d="M138,386.3v3.1c-0.1,0.7,0.2,1,0.9,0.9v0.3h-2.8v-0.3c0.6,0,0.9-0.3,0.9-0.9v-3c0-0.4-0.1-0.7-0.4-0.7
			l-0.5-0.1v-0.2l1.6-0.6h0.2v1.1c1.1-0.8,1.9-1.1,2.4-1.1c0.9,0,1.4,0.7,1.5,2.1c0,1.2,0,2.1-0.1,2.7v0.1c0,0.4,0.2,0.6,0.8,0.5
			h0.3v0.3h-3v-0.3c0.4,0,0.6-0.1,0.8-0.3c0.1-0.1,0.2-0.4,0.2-0.8c0-0.3,0.1-1.1,0.1-2.4c0-0.9-0.4-1.4-1.1-1.5
			C139.5,385.5,138.9,385.8,138,386.3z"/>
		<path class="st4" d="M144.6,386.2l-0.9,0.4c-0.1,0-0.1-0.1-0.1-0.2c0.4-0.9,1.1-1.5,2.1-1.6c0.6,0,1.1,0.3,1.5,0.7
			c0.1,0.2,0.1,0.3,0.1,0.4s0.1,0.4,0.1,0.8v1.9c-0.1,1.1,0.1,1.5,0.4,1.4c0.2,0,0.4-0.1,0.7-0.3l0.1,0.2c-0.6,0.4-1.1,0.7-1.4,0.7
			c-0.4,0-0.6-0.3-0.6-0.8c-0.8,0.5-1.3,0.8-1.6,0.8c-0.9,0-1.3-0.4-1.3-1c0-0.7,0.5-1.1,1.6-1.4c0.3,0,0.7-0.2,1.3-0.5v-1.1
			c0-0.4-0.1-0.7-0.2-0.9c-0.3-0.3-0.5-0.4-0.8-0.4c-0.5,0.1-0.8,0.3-0.9,0.7C144.5,386,144.5,386.1,144.6,386.2z M146.4,389.6v-1.7
			c-0.2,0.1-0.5,0.3-0.8,0.4c-0.9,0.3-1.3,0.6-1.1,1c0,0.5,0.3,0.8,0.8,0.8C145.4,390.3,145.8,390.1,146.4,389.6z"/>
		<path class="st4" d="M150.8,386.3v3.1c-0.1,0.7,0.2,1,0.9,0.9v0.3h-2.8v-0.3c0.6,0,0.9-0.3,0.9-0.9v-3c0-0.4-0.1-0.7-0.4-0.7
			l-0.5-0.1v-0.2l1.6-0.6h0.2v1.1c1.1-0.8,1.9-1.1,2.4-1.1c0.9,0,1.4,0.7,1.5,2.1c0,1.2,0,2.1-0.1,2.7v0.1c0,0.4,0.2,0.6,0.8,0.5
			h0.3v0.3h-3v-0.3c0.4,0,0.6-0.1,0.8-0.3c0.1-0.1,0.2-0.4,0.2-0.8c0-0.3,0.1-1.1,0.1-2.4c0-0.9-0.4-1.4-1.1-1.5
			C152.2,385.5,151.6,385.8,150.8,386.3z"/>
		<path class="st4" d="M161,389.1l0.2,0.1c-0.6,0.9-1.4,1.4-2.5,1.4c-1.5,0-2.2-0.9-2.3-2.6c0.1-1.9,1.2-3,3.2-3.2
			c0.9,0,1.5,0.3,1.5,0.8c0,0.3-0.2,0.4-0.4,0.4c-0.3,0-0.5-0.1-0.8-0.4s-0.6-0.5-0.8-0.5c-1.1,0.2-1.7,1-1.8,2.5
			c0.1,1.6,0.7,2.4,2,2.5C160,390.2,160.5,389.9,161,389.1z"/>
		<path class="st4" d="M164.1,384.8v4.7c0,0.5,0.3,0.8,1,0.8v0.3H162v-0.3c0.8,0,1.1-0.3,1.1-1v-2.8c0-0.4-0.1-0.7-0.4-0.7l-0.7-0.1
			v-0.2l1.8-0.6L164.1,384.8L164.1,384.8z M162.9,382.2c0-0.3,0.2-0.5,0.6-0.5c0.4,0,0.6,0.2,0.6,0.5s-0.2,0.5-0.6,0.5
			C163.1,382.7,162.9,382.5,162.9,382.2z"/>
		<path class="st4" d="M166.9,386.2l-0.9,0.4c-0.1,0-0.1-0.1-0.1-0.2c0.4-0.9,1.1-1.5,2.1-1.6c0.6,0,1.1,0.3,1.5,0.7
			c0.1,0.2,0.1,0.3,0.1,0.4s0.1,0.4,0.1,0.8v1.9c-0.1,1.1,0.1,1.5,0.4,1.4c0.2,0,0.4-0.1,0.7-0.3l0.1,0.2c-0.6,0.4-1.1,0.7-1.4,0.7
			c-0.4,0-0.6-0.3-0.6-0.8c-0.8,0.5-1.3,0.8-1.6,0.8c-0.9,0-1.3-0.4-1.3-1c0-0.7,0.5-1.1,1.6-1.4c0.3,0,0.7-0.2,1.3-0.5v-1.1
			c0-0.4-0.1-0.7-0.2-0.9c-0.3-0.3-0.5-0.4-0.8-0.4c-0.5,0.1-0.8,0.3-0.9,0.7C166.8,386,166.9,386.1,166.9,386.2z M168.7,389.6v-1.7
			c-0.2,0.1-0.5,0.3-0.8,0.4c-0.9,0.3-1.3,0.6-1.1,1c0,0.5,0.3,0.8,0.8,0.8C167.7,390.3,168.1,390.1,168.7,389.6z"/>
		<path class="st4" d="M173,381.2v8.3c0,0.5,0.3,0.8,0.8,0.8h0.2v0.3h-3v-0.3c0.8,0,1.2-0.3,1.1-0.9v-6.8c0-0.3-0.1-0.5-0.4-0.5
			L171,382v-0.3l1.8-0.5H173z"/>
	</g>
	<g class="st2">
		<path class="st4" d="M128.8,409.2h0.2c0.1,0.9,0.6,1.3,1.4,1.3c0.6,0,0.9-0.3,1-0.9c0-0.2-0.1-0.5-0.4-0.8c-0.3-0.2-0.6-0.5-1-0.8
			c-0.8-0.4-1.2-0.9-1.1-1.5c0.1-0.9,0.7-1.5,1.8-1.5c0.4,0,0.7,0.1,1.1,0.2l0.1,1.3h-0.2c-0.1-0.7-0.5-1.1-1.1-1.1
			c-0.5,0.1-0.8,0.3-0.8,0.8c0,0.4,0.4,0.9,1.1,1.4c1,0.6,1.5,1.2,1.5,1.8c-0.1,0.9-0.7,1.4-1.7,1.5c-0.3,0-0.5-0.1-0.6-0.1
			c-0.2,0-0.3,0-0.4,0c-0.1,0-0.1,0-0.2,0.1h-0.2L128.8,409.2z"/>
		<path class="st4" d="M138.2,407h-4.1c0,0.1,0,0.2-0.1,0.3c0,0.1,0,0.2,0,0.3c0.1,1.5,0.8,2.3,2.1,2.4c0.7,0,1.3-0.3,1.8-0.9
			l0.1,0.2c-0.7,0.8-1.5,1.3-2.5,1.3c-1.5-0.1-2.3-1-2.5-2.7c0.1-1.9,1-2.9,2.7-3c0.9,0,1.5,0.4,1.9,1.3c0.1,0.3,0.3,0.4,0.4,0.5
			v0.3H138.2z M134.2,406.6h2.8c-0.2-0.9-0.6-1.4-1.4-1.5C134.9,405.2,134.4,405.7,134.2,406.6z"/>
		<path class="st4" d="M143.9,409.2l0.2,0.1c-0.6,0.9-1.4,1.4-2.5,1.4c-1.5,0-2.2-0.9-2.3-2.6c0.1-1.9,1.2-3,3.2-3.2
			c0.9,0,1.5,0.3,1.5,0.8c0,0.3-0.2,0.4-0.4,0.4c-0.3,0-0.5-0.1-0.8-0.4s-0.6-0.5-0.8-0.5c-1.1,0.2-1.7,1-1.8,2.5
			c0.1,1.6,0.7,2.4,2,2.5C142.8,410.2,143.4,409.9,143.9,409.2z"/>
		<path class="st4" d="M151.5,409.9v0.3l-1.9,0.4v-1c-1,0.7-1.8,1-2.4,1c-0.9,0-1.4-0.5-1.5-1.3v-3.1c0-0.3-0.1-0.5-0.4-0.5
			l-0.5-0.2v-0.2l1.8-0.4v3.9c0,0.8,0.4,1.2,1.3,1.3c0.4,0,1-0.2,1.7-0.8v-3c0-0.5-0.1-0.7-0.5-0.8l-0.7-0.1v-0.2l2.1-0.3v4.7
			c-0.1,0.4,0.1,0.5,0.7,0.4L151.5,409.9z"/>
		<path class="st4" d="M154.1,406.9v2.7c-0.1,0.6,0.2,0.8,0.9,0.8h0.5v0.3h-3.3v-0.3c0.7,0.1,1-0.3,0.9-1V406l-0.9-0.3v-0.3l1.6-0.5
			h0.3v1.5c0.6-1.1,1-1.5,1.4-1.4c0.1,0,0.2,0,0.3,0.1c0,0,0.1,0.1,0.2,0.1c0.1,0.1,0.4,0.1,0.8,0.2l-0.3,0.9c0,0-0.1,0-0.2,0
			c-0.1,0-0.3-0.1-0.6-0.2c-0.2-0.1-0.3-0.2-0.5-0.2s-0.4,0.2-0.5,0.4C154.3,406.4,154.2,406.6,154.1,406.9z"/>
		<path class="st4" d="M158.8,404.8v4.7c0,0.5,0.3,0.8,1,0.8v0.3h-3.1v-0.3c0.8,0,1.1-0.3,1.1-1v-2.8c0-0.4-0.1-0.7-0.4-0.7
			l-0.7-0.1v-0.2l1.8-0.6L158.8,404.8L158.8,404.8z M157.7,402.2c0-0.3,0.2-0.5,0.6-0.5c0.4,0,0.6,0.2,0.6,0.5s-0.2,0.5-0.6,0.5
			S157.7,402.5,157.7,402.2z"/>
		<path class="st4" d="M162,405.1h2l-0.2,0.6H162v3.3c0,0.7,0.3,1.1,0.9,1.1c0.3,0,0.6-0.2,0.9-0.7l0.2,0.2c-0.4,0.7-0.9,1-1.5,1
			c-0.9,0-1.4-0.5-1.4-1.5v-3.4h-0.7v-0.2c0.5-0.3,1-0.9,1.4-1.8h0.2L162,405.1L162,405.1z"/>
		<path class="st4" d="M167.8,409.5l1.2-3c0.4-0.9,0.1-1.3-0.7-1.3V405h2.3v0.2c-0.6,0.1-1,0.5-1.1,1.1l-2.4,5.8
			c-0.4,1.1-0.9,1.6-1.3,1.5c-0.4,0-0.5-0.2-0.5-0.5s0.2-0.4,0.5-0.5s0.5-0.2,0.6-0.3c0.1-0.1,0.3-0.4,0.5-0.8l0.4-1l-2.2-4.5
			c-0.3-0.5-0.6-0.8-1-0.8V405h2.7v0.2c-0.4,0-0.7,0.1-0.8,0.2s-0.1,0.4,0.1,0.7L167.8,409.5z"/>
	</g>
</g>
<circle id="椭圆_1_拷贝_2" class="st1" cx="540.9" cy="396.8" r="44"/>
<g>
	<g class="st2">
		<path class="st4" d="M514.3,385.8v2.5h-0.2c0-0.8-0.4-1.1-1-1.1h-2.6v3.1c-0.1,0.8,0.3,1.2,1.3,1.1v0.3h-3.4v-0.3
			c0.7,0.1,1.1-0.3,1-1.4v-5.5c0.1-0.9-0.3-1.4-1-1.3v-0.3h6.3v1.6h-0.3c0-0.8-0.3-1.2-1.1-1.1h-2.7v3.3h2.8c0.5,0,0.7-0.3,0.8-0.9
			L514.3,385.8L514.3,385.8z"/>
		<path class="st4" d="M515.7,388.8c0.1-1.8,1.1-2.8,3-3c1.9,0.2,2.9,1.2,3,3c-0.1,1.8-1.1,2.7-2.9,2.8
			C516.9,391.5,515.8,390.6,515.7,388.8z M516.8,388.3c0.1,1.9,0.8,2.9,2.1,3.1c1.1-0.1,1.7-0.9,1.8-2.2c-0.1-1.8-0.9-2.8-2.2-3
			C517.4,386.4,516.8,387.1,516.8,388.3z"/>
		<path class="st4" d="M524.6,387.8v2.7c-0.1,0.6,0.2,0.8,0.9,0.8h0.5v0.3h-3.3v-0.3c0.7,0.1,1-0.3,0.9-1V387l-0.9-0.3v-0.3l1.6-0.5
			h0.3v1.5c0.6-1.1,1-1.5,1.4-1.4c0.1,0,0.2,0,0.3,0.1c0,0,0.1,0.1,0.2,0.1c0.1,0.1,0.4,0.1,0.8,0.2l-0.3,0.9c0,0-0.1,0-0.2,0
			c-0.1,0-0.3-0.1-0.6-0.2c-0.2-0.1-0.3-0.2-0.5-0.2s-0.4,0.2-0.5,0.4C524.8,387.4,524.7,387.6,524.6,387.8z"/>
		<path class="st4" d="M532.6,388h-4.1c0,0.1,0,0.2-0.1,0.3c0,0.1,0,0.2,0,0.3c0.1,1.5,0.8,2.3,2.1,2.4c0.7,0,1.3-0.3,1.8-0.9
			l0.1,0.2c-0.7,0.8-1.5,1.3-2.5,1.3c-1.5-0.1-2.3-1-2.5-2.7c0.1-1.9,1-2.9,2.7-3c0.9,0,1.5,0.4,1.9,1.3c0.1,0.3,0.3,0.4,0.4,0.5
			v0.3H532.6z M528.6,387.6h2.8c-0.2-0.9-0.6-1.4-1.4-1.5C529.3,386.2,528.9,386.7,528.6,387.6z"/>
		<path class="st4" d="M538.3,390.1l0.2,0.1c-0.6,0.9-1.4,1.4-2.5,1.4c-1.5,0-2.2-0.9-2.3-2.6c0.1-1.9,1.2-3,3.2-3.2
			c0.9,0,1.5,0.3,1.5,0.8c0,0.3-0.2,0.4-0.4,0.4c-0.3,0-0.5-0.1-0.8-0.4s-0.6-0.5-0.8-0.5c-1.1,0.2-1.7,1-1.8,2.5
			c0.1,1.6,0.7,2.4,2,2.5C537.2,391.2,537.8,390.9,538.3,390.1z"/>
		<path class="st4" d="M540.6,387.2l-0.9,0.4c-0.1,0-0.1-0.1-0.1-0.2c0.4-0.9,1.1-1.5,2.1-1.6c0.6,0,1.1,0.3,1.5,0.7
			c0.1,0.2,0.1,0.3,0.1,0.4s0.1,0.4,0.1,0.8v1.9c-0.1,1.1,0.1,1.5,0.4,1.4c0.2,0,0.4-0.1,0.7-0.3l0.1,0.2c-0.6,0.4-1.1,0.7-1.4,0.7
			c-0.4,0-0.6-0.3-0.6-0.8c-0.8,0.5-1.3,0.8-1.6,0.8c-0.9,0-1.3-0.4-1.3-1c0-0.7,0.5-1.1,1.6-1.4c0.3,0,0.7-0.2,1.3-0.5v-1.1
			c0-0.4-0.1-0.7-0.2-0.9c-0.3-0.3-0.5-0.4-0.8-0.4c-0.5,0.1-0.8,0.3-0.9,0.7C540.5,387,540.5,387.1,540.6,387.2z M542.4,390.6v-1.7
			c-0.2,0.1-0.5,0.3-0.8,0.4c-0.9,0.3-1.3,0.6-1.1,1c0,0.5,0.3,0.8,0.8,0.8C541.4,391.3,541.8,391.1,542.4,390.6z"/>
		<path class="st4" d="M545,390.1h0.2c0.1,0.9,0.6,1.3,1.4,1.3c0.6,0,0.9-0.3,1-0.9c0-0.2-0.1-0.5-0.4-0.8c-0.3-0.2-0.6-0.5-1-0.8
			c-0.8-0.4-1.2-0.9-1.1-1.5c0.1-0.9,0.7-1.5,1.8-1.5c0.4,0,0.7,0.1,1.1,0.2l0.1,1.3h-0.2c-0.1-0.7-0.5-1.1-1.1-1.1
			c-0.5,0.1-0.8,0.3-0.8,0.8c0,0.4,0.4,0.9,1.1,1.4c1,0.6,1.5,1.2,1.5,1.8c-0.1,0.9-0.7,1.4-1.7,1.5c-0.3,0-0.5-0.1-0.6-0.1
			c-0.2,0-0.3,0-0.4,0c-0.1,0-0.1,0-0.2,0.1h-0.2L545,390.1z"/>
		<path class="st4" d="M550.7,386h2l-0.2,0.6h-1.8v3.3c0,0.7,0.3,1.1,0.9,1.1c0.3,0,0.6-0.2,0.9-0.7l0.2,0.2c-0.4,0.7-0.9,1-1.5,1
			c-0.9,0-1.4-0.5-1.4-1.5v-3.4h-0.7v-0.2c0.5-0.3,1-0.9,1.4-1.8h0.2L550.7,386L550.7,386z"/>
		<path class="st4" d="M558.6,386h2l-0.2,0.6h-1.8v3.3c0,0.7,0.3,1.1,0.9,1.1c0.3,0,0.6-0.2,0.9-0.7l0.2,0.2c-0.4,0.7-0.9,1-1.5,1
			c-0.9,0-1.4-0.5-1.4-1.5v-3.4H557v-0.2c0.5-0.3,1-0.9,1.4-1.8h0.2L558.6,386L558.6,386z"/>
		<path class="st4" d="M562.9,387.1v3.4c-0.1,0.6,0.2,0.9,0.9,0.8v0.3H561v-0.3c0.7,0,1-0.3,1-1.1v-6.7c0-0.3-0.1-0.5-0.4-0.5
			l-0.6,0v-0.3l1.7-0.5h0.2v4.6c1-0.6,1.7-0.9,2.3-0.9c1.1,0,1.6,0.7,1.6,2.1c0,0.9,0,1.9-0.1,2.8c0,0.4,0.4,0.6,1.1,0.5v0.3h-3.1
			v-0.3c0.4,0,0.6,0,0.8-0.2c0.1-0.1,0.2-0.4,0.2-0.8c0.1-0.4,0.1-1.1,0.1-2.2s-0.5-1.7-1.3-1.7
			C564.1,386.4,563.6,386.6,562.9,387.1z"/>
		<path class="st4" d="M573.6,388h-4.1c0,0.1,0,0.2-0.1,0.3c0,0.1,0,0.2,0,0.3c0.1,1.5,0.8,2.3,2.1,2.4c0.7,0,1.3-0.3,1.8-0.9
			l0.1,0.2c-0.7,0.8-1.5,1.3-2.5,1.3c-1.5-0.1-2.3-1-2.5-2.7c0.1-1.9,1-2.9,2.7-3c0.9,0,1.5,0.4,1.9,1.3c0.1,0.3,0.3,0.4,0.4,0.5
			v0.3H573.6z M569.6,387.6h2.8c-0.2-0.9-0.6-1.4-1.4-1.5C570.3,386.2,569.8,386.7,569.6,387.6z"/>
	</g>
	<g class="st2">
		<path class="st4" d="M506,410.2h0.2c0.1,0.9,0.6,1.3,1.4,1.3c0.6,0,0.9-0.3,1-0.9c0-0.2-0.1-0.5-0.4-0.8c-0.3-0.2-0.6-0.5-1-0.8
			c-0.8-0.4-1.2-0.9-1.1-1.5c0.1-0.9,0.7-1.5,1.8-1.5c0.4,0,0.7,0.1,1.1,0.2l0.1,1.3h-0.2c-0.1-0.7-0.5-1.1-1.1-1.1
			c-0.5,0.1-0.8,0.3-0.8,0.8c0,0.4,0.4,0.9,1.1,1.4c1,0.6,1.5,1.2,1.5,1.8c-0.1,0.9-0.7,1.4-1.7,1.5c-0.3,0-0.5-0.1-0.6-0.1
			c-0.2,0-0.3,0-0.4,0s-0.1,0-0.2,0.1h-0.2L506,410.2z"/>
		<path class="st4" d="M511.7,406.1h2l-0.2,0.6h-1.8v3.3c0,0.7,0.3,1.1,0.9,1.1c0.3,0,0.6-0.2,0.9-0.7l0.2,0.2c-0.4,0.7-0.9,1-1.5,1
			c-0.9,0-1.4-0.5-1.4-1.5v-3.4h-0.7v-0.2c0.5-0.3,1-0.9,1.4-1.8h0.2L511.7,406.1L511.7,406.1z"/>
		<path class="st4" d="M514.5,408.8c0.1-1.8,1.1-2.8,3-3c1.9,0.2,2.9,1.2,3,3c-0.1,1.8-1.1,2.7-2.9,2.8
			C515.6,411.6,514.6,410.6,514.5,408.8z M515.5,408.3c0.1,1.9,0.8,2.9,2.1,3.1c1.1-0.1,1.7-0.9,1.8-2.2c-0.1-1.8-0.9-2.8-2.2-3
			C516.2,406.4,515.6,407.1,515.5,408.3z"/>
		<path class="st4" d="M526.3,410.2l0.2,0.1c-0.6,0.9-1.4,1.4-2.5,1.4c-1.5,0-2.2-0.9-2.3-2.6c0.1-1.9,1.2-3,3.2-3.2
			c0.9,0,1.5,0.3,1.5,0.8c0,0.3-0.2,0.4-0.4,0.4c-0.3,0-0.5-0.1-0.8-0.4s-0.6-0.5-0.8-0.5c-1.1,0.2-1.7,1-1.8,2.5
			c0.1,1.6,0.7,2.4,2,2.5C525.2,411.2,525.8,410.9,526.3,410.2z"/>
		<path class="st4" d="M530.7,406.1h2.8v0.2c-0.8,0-1.5,0.3-2.2,0.9l-1.3,0.9l2.2,2.2c0.5,0.7,1.1,1,1.6,0.9v0.3h-3v-0.3
			c0.3,0,0.5,0,0.5-0.1c0.1-0.1,0-0.3-0.1-0.5l-2.1-2.2v2.2c-0.1,0.5,0.2,0.7,0.8,0.7h0.1v0.3h-2.8v-0.3c0.7,0,1-0.3,1-0.9v-6.8
			c0-0.3-0.1-0.5-0.4-0.5l-0.5-0.1v-0.3l1.7-0.5h0.2v6.1l2-1.4c0.1-0.1,0.2-0.2,0.1-0.4c0-0.1-0.2-0.1-0.4-0.2h-0.2L530.7,406.1
			L530.7,406.1z"/>
		<path class="st4" d="M540.1,407.3v3.2c-0.1,0.7,0.2,1,1,0.9v0.3h-2.9v-0.3c0.7,0,1-0.3,1-1.1v-2.7c0-0.4-0.1-0.7-0.4-0.7l-0.5-0.1
			v-0.2l1.7-0.6h0.2v1.1c1-0.7,1.8-1.1,2.5-1.1s1.1,0.4,1.4,1.1c0.1,0,0.2-0.1,0.3-0.2c1-0.6,1.7-0.9,2.1-0.9c0.9,0,1.4,0.7,1.4,2.1
			c0,0.7,0,1.3-0.1,1.6c0,0.4,0,0.8,0,1.1c0,0.4,0.2,0.6,0.7,0.6h0.4v0.3h-3.1v-0.3h0.1c0.4,0,0.6,0,0.7-0.2c0.1-0.1,0.2-0.7,0.2-2
			V408c0-1-0.3-1.5-1-1.6c-0.4,0-1.1,0.3-1.9,0.8v3.2c-0.1,0.7,0.2,0.9,0.9,0.9v0.3h-2.9v-0.3c0.8,0.1,1.1-0.3,1.1-1.1v-2.6
			c0-0.7-0.4-1.1-1-1.2C541.5,406.4,540.9,406.7,540.1,407.3z"/>
		<path class="st4" d="M550.5,407.3l-0.9,0.4c-0.1,0-0.1-0.1-0.1-0.2c0.4-0.9,1.1-1.5,2.1-1.6c0.6,0,1.1,0.3,1.5,0.7
			c0.1,0.2,0.1,0.3,0.1,0.4s0.1,0.4,0.1,0.8v1.9c-0.1,1.1,0.1,1.5,0.4,1.4c0.2,0,0.4-0.1,0.7-0.3l0.1,0.2c-0.6,0.4-1.1,0.7-1.4,0.7
			c-0.4,0-0.6-0.3-0.6-0.8c-0.8,0.5-1.3,0.8-1.6,0.8c-0.9,0-1.3-0.4-1.3-1c0-0.7,0.5-1.1,1.6-1.4c0.3,0,0.7-0.2,1.3-0.5v-1.1
			c0-0.4-0.1-0.7-0.2-0.9c-0.3-0.3-0.5-0.4-0.8-0.4c-0.5,0.1-0.8,0.3-0.9,0.7C550.4,407,550.4,407.1,550.5,407.3z M552.3,410.6V409
			c-0.2,0.1-0.5,0.3-0.8,0.4c-0.9,0.3-1.3,0.6-1.1,1c0,0.5,0.3,0.8,0.8,0.8C551.3,411.3,551.7,411.1,552.3,410.6z"/>
		<path class="st4" d="M556.6,407.9v2.7c-0.1,0.6,0.2,0.8,0.9,0.8h0.5v0.3h-3.3v-0.3c0.7,0.1,1-0.3,0.9-1V407l-0.9-0.3v-0.3l1.6-0.5
			h0.3v1.5c0.6-1.1,1-1.5,1.4-1.4c0.1,0,0.2,0,0.3,0.1c0,0,0.1,0.1,0.2,0.1c0.1,0.1,0.4,0.1,0.8,0.2l-0.3,0.9c0,0-0.1,0-0.2,0
			c-0.1,0-0.3-0.1-0.6-0.2c-0.2-0.1-0.3-0.2-0.5-0.2s-0.4,0.2-0.5,0.4C556.9,407.4,556.7,407.6,556.6,407.9z"/>
		<path class="st4" d="M562.7,406.1h2.8v0.2c-0.8,0-1.5,0.3-2.2,0.9l-1.3,0.9l2.2,2.2c0.5,0.7,1.1,1,1.6,0.9v0.3h-3v-0.3
			c0.3,0,0.5,0,0.5-0.1c0.1-0.1,0-0.3-0.1-0.5l-2.1-2.2v2.2c-0.1,0.5,0.2,0.7,0.8,0.7h0.1v0.3h-2.8v-0.3c0.7,0,1-0.3,1-0.9v-6.8
			c0-0.3-0.1-0.5-0.4-0.5l-0.5-0.1v-0.3l1.7-0.5h0.2v6.1l2-1.4c0.1-0.1,0.2-0.2,0.1-0.4c0-0.1-0.2-0.1-0.4-0.2h-0.2L562.7,406.1
			L562.7,406.1z"/>
		<path class="st4" d="M571.7,408h-4.1c0,0.1,0,0.2-0.1,0.3c0,0.1,0,0.2,0,0.3c0.1,1.5,0.8,2.3,2.1,2.4c0.7,0,1.3-0.3,1.8-0.9
			l0.1,0.2c-0.7,0.8-1.5,1.3-2.5,1.3c-1.5-0.1-2.3-1-2.5-2.7c0.1-1.9,1-2.9,2.7-3c0.9,0,1.5,0.4,1.9,1.3c0.1,0.3,0.3,0.4,0.4,0.5
			v0.3H571.7z M567.7,407.6h2.8c-0.2-0.9-0.6-1.4-1.4-1.5C568.4,406.2,567.9,406.7,567.7,407.6z"/>
		<path class="st4" d="M574.1,406.1h2l-0.2,0.6h-1.8v3.3c0,0.7,0.3,1.1,0.9,1.1c0.3,0,0.6-0.2,0.9-0.7l0.2,0.2c-0.4,0.7-0.9,1-1.5,1
			c-0.9,0-1.4-0.5-1.4-1.5v-3.4h-0.7v-0.2c0.5-0.3,1-0.9,1.4-1.8h0.2L574.1,406.1L574.1,406.1z"/>
	</g>
</g>
<path id="矩形_19" class="st5" d="M376.7,111.2l8.3,1.4l-11.1,6.5L376.7,111.2z M378.4,116.3l1.9-1.1l134,231.3l-1.9,1.1
	L378.4,116.3z"/>
<path id="矩形_19_拷贝_3" class="st5" d="M341.8,113.7l6.4,5.4h-12.9L341.8,113.7z M340.7,119h2.1l0.7,106.3h-2.1L340.7,119z"/>
<path id="矩形_19_拷贝_4" class="st5" d="M492.1,370.9l-8.3,1.3l8.5-9.7L492.1,370.9z M488.8,366.5l-1.4,1.6l-80.1-69.7l1.4-1.6
	L488.8,366.5z"/>
<path id="矩形_19_拷贝_5" class="st5" d="M196.7,370.5l8.2,1.3l-8.5-9.7L196.7,370.5z M200,366.1l1.4,1.6l79.8-69.6l-1.4-1.6
	L200,366.1z"/>
<path id="矩形_19_拷贝" class="st5" d="M175.8,349.2l8.2-1.4l-11.1-6.5L175.8,349.2z M177.5,344l1.9,1.1l133.9-231.3l-1.9-1.1
	L177.5,344z"/>
<path id="矩形_19_拷贝_2" class="st5" d="M480.8,399.1l-5.4-6.4v12.9L480.8,399.1z M475.4,400.2V398l-266.7-0.7v2.2L475.4,400.2
	z"/>
</svg>
