<?xml version="1.0" encoding="utf-8"?>
<!-- Generator: Adobe Illustrator 22.1.0, SVG Export Plug-In . SVG Version: 6.00 Build 0)  -->
<svg version="1.1" id="组_13" xmlns="http://www.w3.org/2000/svg" xmlns:xlink="http://www.w3.org/1999/xlink" x="0px" y="0px"
	 viewBox="0 0 691 461" style="enable-background:new 0 0 691 461;" xml:space="preserve">
<style type="text/css">
	.st0{fill:none;stroke:#666666;stroke-dasharray:4,4;}
	.st1{fill:#4E6778;}
	.st2{enable-background:new    ;}
	.st3{fill:#2C3A44;}
	.st4{fill:#FFFFFF;}
	.st5{fill:#666666;}
</style>
<rect id="矩形_20" x="0.5" y="0.5" class="st0" width="690" height="460"/>
<circle id="椭圆_1" class="st1" cx="149.5" cy="397.8" r="44"/>
<circle id="椭圆_1_拷贝" class="st1" cx="341.7" cy="66.6" r="44"/>
<g id="云计算技术" class="st2">
	<path class="st3" d="M302.3,257.2c0,0,1.7,1.3,2.8,2.3c-0.1,0.3-0.3,0.4-0.7,0.4H293l2.7,1.5c-0.1,0.2-0.4,0.4-0.9,0.3
		c-1.7,2.3-5,5.5-7.9,7.5c3-0.1,8.1-0.3,13.5-0.6c-1.1-1.9-2.6-3.9-3.8-5.4l0.3-0.2c9.6,4.7,7.9,11.1,5.1,9
		c-0.2-0.9-0.6-1.9-1.2-2.9c-3.4,0.6-8.2,1.5-14.1,2.3c-0.2,0.3-0.5,0.5-0.7,0.5l-1-3c0,0,0.6-0.1,0.9-0.3c2.2-1.7,5.3-6.1,6.5-8.8
		h-9.3l-0.2-0.7h17.9L302.3,257.2z M285.6,253.2l-0.2-0.7h13l1.5-1.9c0,0,1.7,1.3,2.7,2.2c-0.1,0.3-0.3,0.4-0.7,0.4H285.6z"/>
	<path class="st3" d="M316.8,265.9c-1,0.9-2.9,2.7-5.1,4.5c-0.1,0.5-0.4,0.7-0.7,0.9l-1.6-2.5c0.9-0.5,1-0.7,1-1.2v-10.2H307
		l-0.2-0.7h3.7l1.1-1.1l2,1.7c-0.1,0.2-0.4,0.4-0.9,0.5v9.7c1.2-0.6,2.6-1.2,4-1.9L316.8,265.9z M309.3,250.3c6.6,1.4,5.2,6,2.8,4.7
		c-0.5-1.5-1.9-3.4-3.1-4.5L309.3,250.3z M326.7,257.1c0,0,1.6,1.2,2.5,2.1c-0.1,0.3-0.3,0.4-0.6,0.4h-5.9v11.9c0,0.3-1,0.9-1.9,0.9
		h-0.4v-12.8h-5.7l-0.2-0.7h5.9v-8.7l3.2,0.3c-0.1,0.3-0.2,0.6-0.9,0.7v7.7h2.7L326.7,257.1z"/>
	<path class="st3" d="M350.5,265.4c0,0,1.5,1.2,2.4,2c-0.1,0.3-0.3,0.4-0.7,0.4h-6v4.2c0,0.2-1,0.5-1.8,0.5H344v-4.7h-4.5
		c-0.6,2.3-2.2,3.8-8.6,4.7l-0.2-0.4c4.6-1.1,6.1-2.3,6.7-4.3h-6.3l-0.2-0.7h6.7c0.1-0.7,0.1-1.4,0.2-2.2l2.9,0.3
		c-0.1,0.3-0.3,0.5-0.8,0.6c0,0.5-0.1,0.9-0.2,1.3h4.4V265l2.7,0.3v-0.7H337v0.5c0,0.2-0.9,0.7-1.9,0.7h-0.3v-10.2l2.3,1h9.4
		l0.3-0.3c-0.2,0-0.5-0.1-0.7-0.3c-0.1-0.8-0.5-1.7-1-2.4h-0.9c-1,1.1-2.1,1.9-3.1,2.5l-0.3-0.2c0.5-0.6,1.1-1.4,1.5-2.3
		c0,0-0.1,0-0.2,0H338c2.5,1.4,0.8,3.6-0.6,2.3c0-0.7-0.4-1.7-0.7-2.3h-1.4c-1.2,1.7-2.7,2.9-4.3,3.8l-0.3-0.2
		c1.5-1.6,3-4.1,3.8-6.9l2.9,1.1c-0.1,0.3-0.4,0.5-1,0.4c-0.2,0.4-0.4,0.8-0.7,1.2h3.8l1.1-1.5c0,0,1.1,0.9,1.9,1.6
		c0.4-0.9,0.8-1.8,1.1-2.8l2.8,0.9c-0.1,0.3-0.4,0.5-0.9,0.5c-0.3,0.5-0.6,0.9-0.9,1.3h4.1l1.2-1.6c0,0,1.5,1.1,2.3,1.9
		c-0.1,0.3-0.3,0.4-0.6,0.4h-5.1c1.2,0.6,1.5,1.4,1.3,2l2,1.5c-0.2,0.2-0.5,0.4-1,0.5v7.3c0,0.2-1.1,0.6-1.8,0.6h-0.1
		c-0.1,0.2-0.3,0.4-0.8,0.5v1.2h2.9L350.5,265.4z M337,257.2v1.8h9.8v-1.8H337z M346.8,259.6H337v1.8h9.8V259.6z M346.8,263.9v-1.8
		H337v1.8H346.8z"/>
	<path class="st3" d="M363.2,259.5c-0.8,0.6-1.9,1.3-3.1,2.2v8c0,1.6-0.3,2.5-2.9,2.8c0-0.7-0.1-1.2-0.5-1.6
		c-0.3-0.4-0.8-0.6-1.7-0.7v-0.4c0,0,2,0.1,2.4,0.1s0.5-0.1,0.5-0.4v-6.4c-0.6,0.4-1.2,0.8-1.9,1.2c-0.1,0.3-0.3,0.6-0.5,0.7
		l-1.1-2.7c0.7-0.2,2-0.6,3.6-1.2v-4.6h-3l-0.2-0.7h3.2v-5.6l3,0.3c0,0.3-0.3,0.6-0.9,0.7v4.6h0.5l1.1-1.6c0,0,1.3,1.1,2,1.9
		c-0.1,0.3-0.3,0.4-0.6,0.4H360v3.9c1-0.4,2-0.7,3-1.1L363.2,259.5z M376,260.4c-0.2,0.3-0.4,0.3-1,0.4c-1,2.4-2.3,4.6-4.1,6.5
		c1.9,1.4,4.2,2.3,6.5,3v0.3c-1,0.1-1.7,0.9-2.2,1.9c-2.3-1-4.2-2.2-5.8-3.9c-2.2,1.7-5,3.1-8.6,3.9l-0.2-0.3
		c3.2-1.2,5.7-2.8,7.7-4.8c-1.4-1.9-2.5-4.2-3.1-7h-1.5l-0.2-0.7h4.8v-4.3h-5l-0.2-0.7h5.2v-4.3l3.2,0.3c0,0.4-0.3,0.6-0.9,0.7v3.3
		h2.7l1.4-1.8c0,0,1.5,1.2,2.4,2.1c-0.1,0.2-0.3,0.4-0.6,0.4h-5.9v4.3h1.9l1.4-1.3L376,260.4z M365.6,260.3c0.8,2.3,2.1,4.2,3.8,5.7
		c1.4-1.7,2.4-3.6,3-5.7H365.6z"/>
	<path class="st3" d="M391.3,256.8c1.5,5.7,5.5,9.6,9.9,11.7l-0.1,0.2c-1,0.1-1.9,0.7-2.3,1.8c-4.1-2.9-6.8-7.3-7.9-13.8h-0.1v14.8
		c0,0.3-1,0.8-1.8,0.8h-0.5v-11.9c-2.1,4.3-5.4,7.9-10,10.5l-0.3-0.3c4.3-3.4,7.4-8.8,8.9-13.9H379l-0.2-0.7h9.6v-6l3.2,0.3
		c-0.1,0.3-0.2,0.6-0.9,0.7v5h6l1.5-2c0,0,1.7,1.3,2.7,2.3c0,0.3-0.3,0.4-0.6,0.4h-9V256.8z M392.7,250.9c6.2,0.4,4.7,4.6,2.5,3.4
		c-0.4-1.2-1.7-2.4-2.7-3.2L392.7,250.9z"/>
</g>
<g id="金融安全" class="st2">
	<path class="st4" d="M127.2,390.5c0,0.2-0.2,0.3-0.6,0.3c1.4,2,4.1,3.6,6.9,4.7v0.2c-0.5,0.1-0.9,0.5-1,0.9c-2.6-1.3-5-3.4-6.2-5.7
		c-1.5,2.3-4.7,4.8-7.7,6.2l-0.1-0.2c2.7-1.5,5.9-4.7,6.8-6.9L127.2,390.5z M131.6,402.8c0,0,0.9,0.7,1.5,1.2c0,0.2-0.2,0.2-0.4,0.2
		H119l-0.1-0.5h6.4V399h-5.5l-0.1-0.4h5.7V396H122l-0.1-0.5h5.8l0.7-0.8c0,0,0.8,0.6,1.3,1.1c0,0.2-0.2,0.3-0.4,0.3h-2.9v2.6h3.8
		l0.8-1c0,0,0.9,0.7,1.4,1.2c0,0.2-0.2,0.2-0.4,0.2h-5.6v4.9h4.4L131.6,402.8z M121.6,399.6c3.2,1.9,2.1,4.3,1.1,3.3
		c0-1.1-0.7-2.4-1.3-3.2L121.6,399.6z M127.6,403.2c0.5-0.9,1.2-2.3,1.7-3.6l1.6,0.6c-0.1,0.2-0.3,0.3-0.6,0.3
		c-0.7,1.1-1.6,2.2-2.4,2.9L127.6,403.2z"/>
	<path class="st4" d="M141.7,390.6c0,0,0.7,0.6,1.2,1c0,0.2-0.2,0.3-0.4,0.3h-7.6l-0.1-0.5h6.3L141.7,390.6z M142.8,397.4
		c-0.1,0.1-0.4,0.3-0.7,0.3v5.8c0,0.8-0.1,1.2-1.3,1.3c0-0.3-0.1-0.5-0.2-0.7c-0.2-0.1-0.4-0.2-0.9-0.3v-0.3c0,0,0.9,0.1,1.2,0.1
		c0.2,0,0.3-0.1,0.3-0.3v-5.9h-5.1v7c0,0.1-0.3,0.3-0.8,0.3h-0.1v-8.3l1.1,0.5h4.7l0.5-0.6L142.8,397.4z M140.5,396.3v-0.5h-3.6v0.4
		c0,0.1-0.4,0.3-0.8,0.3H136v-3.8l1,0.4h3.4l0.5-0.5l1.2,0.9c-0.1,0.1-0.3,0.2-0.6,0.3v2.3c0,0.1-0.5,0.3-0.8,0.3L140.5,396.3
		L140.5,396.3z M139,400.6v3c0,0.1-0.3,0.3-0.7,0.3h-0.1v-3.2h-1.8l-0.1-0.5h2.6c0.3-0.8,0.6-1.8,0.7-2.4l1.2,0.5
		c0,0.1-0.2,0.3-0.5,0.3c-0.2,0.4-0.7,1.1-1.1,1.6h0.6l0.4-0.6c0,0,0.5,0.4,0.9,0.8c0,0.2-0.2,0.3-0.4,0.3L139,400.6L139,400.6z
		 M140.5,395.3v-1.7h-3.6v1.7H140.5z M137.1,397.9c2,1.2,1.1,2.6,0.4,2c0-0.6-0.3-1.4-0.6-1.9L137.1,397.9z M147.7,399.7v-0.9h-1.4
		v4l1.6-0.2c-0.2-0.8-0.5-1.5-0.8-2.1l0.2-0.1c2.8,2.6,1.9,5,0.9,4.1c0-0.5-0.1-1-0.2-1.5c-1.1,0.4-2.6,0.8-4.5,1.3
		c-0.1,0.2-0.2,0.3-0.4,0.4l-0.5-1.4c0.6,0,1.6-0.1,2.8-0.3v-4.1H144v0.9c0,0.1-0.4,0.3-0.8,0.3H143v-6.9l1,0.5h1.4v-3.3l1.5,0.2
		c0,0.2-0.2,0.4-0.6,0.4v2.7h1.2l0.5-0.6l1.2,0.9c-0.1,0.1-0.4,0.2-0.7,0.3v5.2C148.5,399.6,148,399.8,147.7,399.7L147.7,399.7
		L147.7,399.7z M143.9,398.3h1.5V394h-1.5V398.3z M147.7,398.3V394h-1.5v4.3H147.7z"/>
	<path class="st4" d="M163.6,395.6c0,0,0.9,0.7,1.4,1.2c0,0.2-0.2,0.3-0.4,0.3h-3c-0.6,1.9-1.3,3.3-2.5,4.5c6.4,2,5.1,3.8,3.9,3.1
		c-1.1-0.8-2.7-1.6-4.6-2.4c-1.7,1.3-4.1,2.1-7.8,2.6l-0.1-0.3c3-0.6,5.3-1.4,6.8-2.7c-1.2-0.4-2.5-0.9-3.9-1.3
		c0.5-0.8,1.2-2.1,1.8-3.5h-4.5l-0.1-0.5h4.9c0.5-1.2,1-2.4,1.3-3.1l1.6,0.5c0,0.2-0.2,0.3-0.7,0.3c-0.3,0.6-0.6,1.4-1.1,2.3h6.2
		L163.6,395.6z M165.2,393.2c-0.1,0.1-0.3,0.1-0.6,0.2c-0.5,0.6-1.3,1.4-2,1.8l-0.2-0.1c0.3-0.5,0.6-1.3,0.9-1.9h-10.4
		c0,1-0.4,1.7-0.9,2c-0.4,0.3-1,0.3-1.2-0.1c-0.1-0.4,0.1-0.7,0.4-0.9c0.6-0.4,1.2-1.3,1.2-2.3h0.3c0.1,0.3,0.2,0.6,0.2,0.9h10.4
		l0.7-0.7L165.2,393.2z M156.5,397.1c-0.6,1.2-1.2,2.4-1.8,3.3c1.3,0.3,2.4,0.5,3.4,0.8c1.1-1.1,1.8-2.4,2.3-4.1L156.5,397.1
		L156.5,397.1z M156.7,390.1c3.3,0.8,2.3,3.2,1.1,2.4c-0.1-0.8-0.7-1.7-1.3-2.3L156.7,390.1z"/>
	<path class="st4" d="M175.1,390.5c0,0.2-0.2,0.3-0.6,0.3c1.4,2.1,4.1,3.9,6.9,5.1v0.2c-0.5,0.1-0.9,0.5-1,0.9c-2.6-1.4-5-3.6-6.2-6
		c-1.5,2.4-4.7,5.1-7.7,6.6l-0.1-0.2c2.7-1.6,6-5,6.8-7.3L175.1,390.5z M179.4,402.7c0,0,0.9,0.7,1.5,1.2c0,0.2-0.2,0.2-0.4,0.2H167
		l-0.1-0.4h6.4v-3.4h-4.2l-0.1-0.4h4.3v-3h-3.9l-0.1-0.5h7.5l0.7-0.9c0,0,0.8,0.6,1.3,1.1c0,0.2-0.2,0.3-0.4,0.3h-4v3h2.8l0.8-0.9
		c0,0,0.8,0.6,1.4,1.1c0,0.2-0.2,0.2-0.4,0.2h-4.6v3.4h4.3L179.4,402.7z"/>
</g>
<circle id="椭圆_1_拷贝_2" class="st1" cx="540.9" cy="396.8" r="44"/>
<g>
	<g class="st2">
		<path class="st4" d="M515,394c0,0.9-0.2,1.4-1.5,1.5c0-0.3-0.1-0.6-0.3-0.8c-0.2-0.2-0.6-0.3-1.2-0.4V394c0,0,1.4,0.1,1.7,0.1
			s0.4-0.1,0.4-0.3v-4.2h-2.4c-0.1,2.1-0.6,4.3-1.9,6l-0.3-0.1c1.2-2.5,1.2-5.7,1.2-8.7v-5.5l1.2,0.5h1.9l0.5-0.6l1.2,1
			c-0.1,0.1-0.3,0.2-0.6,0.3L515,394L515,394z M514,389.2V386h-2.3v0.9c0,0.7,0,1.6,0,2.4L514,389.2L514,389.2z M511.7,382.4v3.1
			h2.3v-3.1H511.7z M523.2,388.6c-0.1,0.1-0.3,0.2-0.7,0.2c-0.5,1.4-1.3,2.7-2.4,3.8c1.2,0.9,2.7,1.6,4.4,2v0.2
			c-0.4,0.1-0.8,0.4-0.9,0.8c-1.7-0.5-3-1.3-4.1-2.4c-1.2,1.1-2.7,1.9-4.7,2.5l-0.1-0.2c1.8-0.7,3.2-1.6,4.3-2.8
			c-0.9-1.1-1.6-2.4-2-4h-1.3l-0.1-0.5h5.9l0.7-0.7L523.2,388.6z M515.2,387.7c1.6-1.3,1.9-2.9,1.9-4.4v-1.9l1.2,0.5h2.2l0.6-0.6
			l1.1,1c-0.1,0.1-0.3,0.2-0.6,0.2v3.2c0,0.2,0,0.2,0.3,0.2h0.7h0.7c0.1,0,0.2,0,0.2,0c0.1,0,0.2,0,0.3,0h0.1h0.1
			c0.3,0.1,0.4,0.2,0.4,0.4c0,0.4-0.4,0.6-1.9,0.6h-0.9c-0.9,0-1-0.3-1-0.9v-3.7H518v0.8c0,1.4-0.3,3.4-2.6,4.6L515.2,387.7z
			 M517.3,388.7c0.5,1.4,1.2,2.5,2.2,3.4c0.9-1,1.5-2.2,1.9-3.4H517.3z"/>
		<path class="st4" d="M538.7,382.6c0,0,0.9,0.7,1.5,1.2c0,0.2-0.2,0.3-0.4,0.3h-6.4v2.2h3.5l0.5-0.6l1.3,1
			c-0.1,0.1-0.4,0.3-0.7,0.3v5.1c0,0.8-0.2,1.3-1.7,1.5c0-0.3-0.1-0.6-0.4-0.7c-0.2-0.1-0.6-0.3-1.4-0.4v-0.3c0,0,1.6,0.1,1.9,0.1
			c0.3,0,0.4-0.1,0.4-0.3v-5.2h-3.6v8.6c0,0.1-0.4,0.4-0.9,0.4h-0.2v-8.9h-3.6v6.4c0,0.1-0.4,0.4-0.9,0.4h-0.2V386l1.1,0.5h3.5v-2.2
			h-6.6l-0.1-0.5h12.3L538.7,382.6z M531.4,381c3.4,0.7,2.6,3.1,1.5,2.4c-0.2-0.8-1-1.7-1.6-2.3L531.4,381z"/>
		<path class="st4" d="M547.1,385.2c-0.1,0.2-0.2,0.2-0.6,0.1c-0.4,0.5-0.8,1.1-1.4,1.7l0.5,0.2c0,0.1-0.2,0.3-0.5,0.3v7.8
			c0,0.1-0.5,0.4-0.9,0.4H544v-7.6c-0.8,0.8-1.6,1.5-2.5,2.1l-0.2-0.2c1.7-1.6,3.4-4,4.2-5.7L547.1,385.2z M546.9,381.9
			c-0.1,0.2-0.2,0.2-0.6,0.1c-1,1.1-2.7,2.7-4.5,3.7l-0.2-0.2c1.5-1.2,3-3.1,3.8-4.5L546.9,381.9z M555,385.2c0,0,0.9,0.7,1.4,1.2
			c0,0.2-0.2,0.3-0.4,0.3h-2.7v7.3c0,0.9-0.3,1.5-2,1.6c0-0.3-0.2-0.6-0.4-0.8c-0.3-0.2-0.8-0.3-1.8-0.5v-0.2c0,0,2.2,0.2,2.7,0.2
			c0.4,0,0.4-0.1,0.4-0.4v-7.3H547l-0.1-0.5h7.3L555,385.2z M547.9,383l-0.1-0.5h5.8l0.8-0.9c0,0,0.8,0.7,1.4,1.2
			c0,0.2-0.2,0.3-0.4,0.3h-7.5V383z"/>
		<path class="st4" d="M558.8,383.9c0.4,1.7,0.1,3-0.3,3.6c-0.3,0.4-0.8,0.6-1.1,0.3c-0.2-0.3-0.1-0.6,0.2-0.9
			c0.4-0.5,0.9-1.8,0.9-3H558.8z M561.4,381.2c0,0.2-0.2,0.4-0.6,0.4v13.7c0,0.1-0.4,0.4-0.8,0.4h-0.2V381L561.4,381.2z
			 M561.2,383.3c2.4,1.4,1.4,3.2,0.6,2.4c0-0.8-0.4-1.7-0.8-2.4H561.2z M571,385.4c0,0,0.8,0.6,1.3,1.1c0,0.2-0.2,0.3-0.4,0.3h-9.7
			l-0.1-0.5h4.4v-1.4h-3.1l-0.1-0.5h3.3v-1.3h-3.8l-0.1-0.5h4V381l1.5,0.2c0,0.2-0.2,0.4-0.5,0.4v1h2.6l0.7-0.9c0,0,0.8,0.6,1.3,1.1
			c0,0.2-0.2,0.3-0.4,0.3h-4.2v1.3h2.1l0.7-0.9c0,0,0.8,0.6,1.3,1.1c0,0.2-0.2,0.3-0.4,0.3h-3.7v1.4h2.8L571,385.4z M570,387.4
			l1.3,1c-0.1,0.1-0.4,0.3-0.7,0.3v5.5c0,0.8-0.2,1.3-1.5,1.5c0-0.3-0.1-0.6-0.3-0.8c-0.2-0.2-0.5-0.3-1.1-0.4v-0.3
			c0,0,1.2,0.1,1.5,0.1c0.2,0,0.3-0.1,0.3-0.3v-1.7h-5v2.9c0,0.1-0.4,0.4-0.8,0.4h-0.2v-8.1l1.1,0.5h4.8L570,387.4z M564.6,388.5
			v1.4h5v-1.4H564.6z M569.6,391.9v-1.5h-5v1.5H569.6z"/>
	</g>
	<g class="st2">
		<path class="st4" d="M532.3,412.6c-0.1,0.1-0.3,0.1-0.6,0.1c-0.4,0.6-1.2,1.4-1.7,1.9l-0.2-0.1c0.2-0.5,0.6-1.3,0.8-1.9H529v6.8
			c0,0.8-0.2,1.4-1.5,1.5c0-0.3-0.1-0.6-0.3-0.7c-0.2-0.2-0.6-0.3-1.2-0.4v-0.3c0,0,1.4,0.1,1.7,0.1s0.3-0.1,0.3-0.3v-6.8h-2.2
			l-0.1-0.5h4.9l0.6-0.6L532.3,412.6z M525.8,408l-0.1-0.5h4.3l0.7-0.7l1.2,1.1c-0.1,0.1-0.3,0.2-0.6,0.2c-0.5,0.7-1.4,1.6-2.1,2.4
			c0.7,0.9,0.2,1.7-0.5,1.3c-0.2-0.8-1.1-1.8-1.9-2.4l0.2-0.1c0.9,0.2,1.6,0.6,1.9,0.9c0.4-0.7,0.9-1.5,1.2-2.2L525.8,408L525.8,408
			z M536.8,412.3c0,0.2-0.2,0.4-0.5,0.4c-0.1,4.2,0,6.9-5.5,8.5l-0.2-0.3c4.8-1.7,4.6-4.4,4.6-8.8L536.8,412.3z M538.9,406.7
			c0,0,0.8,0.6,1.3,1.1c0,0.2-0.2,0.3-0.4,0.3h-3.4c-0.4,0.9-0.8,1.9-1.2,2.5h2.8l0.5-0.6l1.1,0.9c-0.1,0.1-0.3,0.2-0.6,0.3v6.1
			c0,0.1-0.5,0.4-0.8,0.4h-0.1v-6.6h-4.8v6.6c0,0.1-0.4,0.3-0.8,0.3h-0.2v-7.9l1.1,0.5h1.3c0.1-0.7,0.3-1.7,0.4-2.5h-3.2l-0.1-0.5
			h6.4L538.9,406.7z M536.1,418c4.7,1.2,4.3,3.6,3,3.1c-0.6-0.9-2.1-2.2-3.2-2.9L536.1,418z"/>
		<path class="st4" d="M541.7,410.3c3.1,0.7,2.3,2.8,1.3,2.1c-0.2-0.7-0.9-1.5-1.4-2L541.7,410.3z M542.4,416.7c0.2,0,0.2,0,0.4-0.4
			c0.2-0.5,0.2-0.5,2.3-6.7l0.3,0.1c-0.5,1.9-1.4,5.4-1.6,6.2c-0.1,0.5-0.2,1-0.2,1.4c0,0.7,0.5,1.4,0.4,2.8c0,0.7-0.3,1.1-0.9,1.1
			c-0.3,0-0.5-0.3-0.5-0.8c0.2-1.6,0.1-2.9-0.2-3.1c-0.2-0.2-0.4-0.2-0.8-0.2v-0.4H542.4z M542.7,406.7c3.4,0.6,2.6,2.9,1.5,2.2
			c-0.2-0.7-1-1.6-1.7-2.1L542.7,406.7z M549.5,409.9c-0.1,0.2-0.2,0.3-0.6,0.3c-0.1,5.8,0,9-4.1,10.9l-0.2-0.3
			c3.4-2.1,3.4-5,3.4-11.4L549.5,409.9z M547,407.7h3.2l0.5-0.6l1.1,0.9c-0.1,0.1-0.3,0.2-0.7,0.3v7.9c0,0.1-0.4,0.3-0.8,0.3h-0.1
			v-8.3h-3.4v8.3c0,0.1-0.3,0.3-0.8,0.3h-0.1v-9.6L547,407.7z M548.8,417c3.6,1.4,2.9,3.9,1.8,3.1c-0.2-1-1.2-2.2-1.9-3L548.8,417z
			 M553.8,408.8c0,0.2-0.2,0.4-0.6,0.4v8.1c0,0.1-0.4,0.3-0.7,0.3h-0.2v-9L553.8,408.8z M556.1,407c0,0.2-0.2,0.4-0.6,0.4v12.2
			c0,0.8-0.2,1.3-1.5,1.5c0-0.3-0.1-0.6-0.3-0.7c-0.2-0.2-0.6-0.3-1.2-0.4v-0.3c0,0,1.4,0.1,1.7,0.1s0.4-0.1,0.4-0.3v-12.8
			L556.1,407z"/>
	</g>
</g>
<path id="矩形_19" class="st5" d="M376.7,111.2l8.3,1.4l-11.1,6.5L376.7,111.2z M378.4,116.3l1.9-1.1l134,231.3l-1.9,1.1
	L378.4,116.3z"/>
<path id="矩形_19_拷贝_3" class="st5" d="M341.8,113.7l6.4,5.4h-12.9L341.8,113.7z M340.7,119h2.1l0.7,106.3h-2.1L340.7,119z"/>
<path id="矩形_19_拷贝_4" class="st5" d="M492.1,370.9l-8.3,1.3l8.5-9.7L492.1,370.9z M488.8,366.5l-1.4,1.6l-80.1-69.7l1.4-1.6
	L488.8,366.5z"/>
<path id="矩形_19_拷贝_5" class="st5" d="M196.7,370.5l8.2,1.3l-8.5-9.7L196.7,370.5z M200,366.1l1.4,1.6l79.8-69.6l-1.4-1.6
	L200,366.1z"/>
<path id="矩形_19_拷贝" class="st5" d="M175.8,349.2l8.2-1.4l-11.1-6.5L175.8,349.2z M177.5,344l1.9,1.1l133.9-231.3l-1.9-1.1
	L177.5,344z"/>
<path id="矩形_19_拷贝_2" class="st5" d="M480.8,399.1l-5.4-6.4v12.9L480.8,399.1z M475.4,400.2V398l-266.7-0.7v2.2L475.4,400.2
	z"/>
<g>
	<path class="st4" d="M316.3,67.7c-0.1,0.1-0.3,0.2-0.6,0.3c-0.1,3.1-0.4,4.9-1.1,5.4c-0.4,0.4-1,0.5-1.8,0.5c0-0.4-0.1-0.7-0.3-0.9
		c-0.3-0.2-0.9-0.4-1.5-0.5v-0.2c0.7,0,1.8,0.1,2.2,0.1c0.3,0,0.4,0,0.5-0.2c0.4-0.3,0.6-2,0.7-4.5h-2.1l-0.5,0.6l-1.3-0.9
		c0.1-0.1,0.3-0.2,0.6-0.3c0.1-1.1,0.3-2.9,0.3-3.9l1.6,0.6h1.4v-3.1h-3.4l-0.1-0.5h3.4l0.7-0.8l1.5,1.2c-0.1,0.1-0.3,0.3-0.7,0.3
		v3.7c0,0.1-0.7,0.4-1.1,0.4h-0.2v-0.7h-1.8c-0.1,0.9-0.2,2.1-0.3,2.9h2l0.7-0.7L316.3,67.7z M322.4,70c4.2,1.5,2.9,4.8,1.4,3.6
		c0-0.5-0.2-1.1-0.4-1.6c-1.6,0.4-3.7,0.9-6.5,1.5c-0.1,0.2-0.3,0.3-0.4,0.3l-0.8-1.7c0.9,0,2.3-0.1,4.1-0.3v-2.7H318v0.6
		c0,0.1-0.6,0.4-1.1,0.4h-0.2v-5.3l1.4,0.6h1.6v-1.9h-1.3v0.4c0,0.1-0.6,0.4-1.2,0.4H317v-4.8l1.5,0.6h3.9l0.7-0.7l1.4,1.1
		c-0.1,0.1-0.3,0.2-0.6,0.3v3c0,0.1-0.7,0.4-1.2,0.4h-0.2v-0.6h-1.4v1.9h1.6l0.7-0.7l1.4,1.1c-0.1,0.1-0.3,0.2-0.6,0.3v3.4
		c0,0.1-0.7,0.4-1.1,0.4h-0.2v-0.7h-1.8v2.6l2.2-0.2c-0.3-0.6-0.6-1.1-1-1.5L322.4,70z M319.7,68.7v-2.8H318v2.8H319.7z M318.4,63.1
		h4.1v-2.4h-4.1V63.1z M321.1,65.9v2.8h1.8v-2.8H321.1z"/>
	<path class="st4" d="M330.5,64.1c-0.1,0.1-0.2,0.2-0.5,0.3v9.2c0,0.1-0.7,0.3-1.2,0.3h-0.3v-8.3c-0.7,0.8-1.4,1.5-2.2,2.1l-0.2-0.2
		c1.5-1.9,3.1-5.1,4-8.3l2.2,0.7c-0.1,0.2-0.3,0.3-0.6,0.3c-0.5,1.3-1.1,2.5-1.8,3.5L330.5,64.1z M340.5,71.9
		c0.5,0.2,0.6,0.4,0.6,0.7c0,0.7-0.7,1-3.7,1h-1.9c-1.6,0-2.2-0.3-2.2-1.6v-3.3c-0.9,0.6-1.9,1.1-3,1.5l-0.1-0.2
		c1.1-0.6,2.1-1.4,3.1-2.2v-8l2.1,0.2c0,0.2-0.2,0.4-0.6,0.5v6c1.5-1.5,2.8-3,3.7-4.3l1.8,1.3c-0.1,0.1-0.3,0.2-0.7,0.1
		c-1.2,1.3-2.8,2.9-4.8,4.2v3.9c0,0.4,0.2,0.6,0.9,0.6h1.7c0.7,0,1.3,0,1.5,0c0.2,0,0.3-0.1,0.4-0.2c0.2-0.3,0.4-1.3,0.7-2.4h0.2
		L340.5,71.9z"/>
	<path class="st4" d="M345.1,61.4c-0.8,1-1.7,1.8-2.7,2.3l-0.2-0.2c0.9-1,1.7-2.7,2.2-4.4l2,0.7c-0.1,0.2-0.3,0.3-0.6,0.3
		c-0.1,0.3-0.3,0.5-0.5,0.7h2.3l0.8-1c0,0,0.9,0.7,1.4,1.2c0,0.2-0.2,0.3-0.4,0.3h-2.7c1.9,0.8,0.6,2.4-0.3,1.5
		c0-0.5-0.2-1.1-0.5-1.5H345.1z M355.3,63.4l1.4,1.4c-0.1,0.1-0.3,0.2-0.6,0.2c-0.4,0.5-1,1-1.6,1.4l-0.2-0.1c0.1-0.4,0.2-1,0.3-1.5
		h-9.9c0.1,0.9-0.3,1.6-0.7,1.9c-0.4,0.3-1.1,0.2-1.3-0.3c-0.2-0.5,0.1-0.8,0.5-1c0.5-0.3,1-1.2,0.9-2l0.3,0
		c0.1,0.3,0.2,0.6,0.3,0.9h4.8c-0.1,0-0.2-0.1-0.2-0.1c0-0.5-0.4-1.1-0.8-1.4l0.1-0.1c2.3,0,2.2,1.4,1.5,1.7h4.4L355.3,63.4z
		 M353.9,69.2l1.5,1.1c-0.1,0.1-0.3,0.2-0.6,0.3v2.8c0,0.1-0.8,0.4-1.3,0.4h-0.3v-0.9H347v0.7c0,0.1-0.5,0.5-1.2,0.5h-0.3v-8.7
		l1.6,0.6h5.1l0.7-0.7l1.5,1.1c-0.1,0.1-0.3,0.2-0.6,0.3v2.1c0,0.1-0.8,0.4-1.3,0.4h-0.3v-0.5H347v1.4h6.2L353.9,69.2z M347,66.4
		v1.7h5.4v-1.7H347z M353.3,72.4v-2H347v2H353.3z M355.4,59.9c0,0,1,0.7,1.6,1.3c0,0.2-0.2,0.3-0.4,0.3h-3.3
		c1.8,0.8,0.7,2.3-0.3,1.5c0-0.5-0.3-1.1-0.6-1.5h-1c-0.5,0.5-1,0.9-1.6,1.2l-0.2-0.2c0.5-0.8,1-2,1.3-3.2l2,0.7
		c-0.1,0.2-0.3,0.3-0.6,0.3c-0.2,0.3-0.3,0.5-0.6,0.7h2.9L355.4,59.9z"/>
	<path class="st4" d="M371.4,71.7c0,0,1,0.9,1.6,1.5c0,0.2-0.2,0.3-0.4,0.3h-10.4l-0.1-0.5h4.9v-2.8h-3.3l-0.1-0.5h3.4v-2.5h-1.9
		v0.5c0,0.2-0.6,0.5-1.2,0.5h-0.2v-6.9c-0.1,0-0.2,0.1-0.3,0.1h-2.1v3.9h0.2l0.7-1.1c0,0,0.8,0.8,1.3,1.3c0,0.2-0.2,0.3-0.4,0.3
		h-1.8v4c0.7-0.2,1.5-0.5,2.3-0.7l0.1,0.2c-1.1,0.7-2.7,1.7-4.8,2.9c0,0.2-0.2,0.4-0.3,0.4l-0.7-1.7c0.4-0.1,1.2-0.3,2.1-0.6v-4.4
		h-1.7l-0.1-0.5h1.8v-3.9h-1.7L358,61h3.4l0.9-1.1c0,0,0.8,0.7,1.4,1.2v-1.2l1.6,0.6h5.1l0.7-0.8l1.6,1.2c-0.1,0.1-0.3,0.3-0.6,0.3
		v6.3c0,0.1-0.7,0.5-1.3,0.5h-0.2v-0.7h-2v2.5h1.5l0.9-1.1c0,0,1,0.8,1.5,1.3c0,0.2-0.2,0.3-0.4,0.3h-3.5V73h2.1L371.4,71.7z
		 M365.1,60.9v2.7h1.9v-2.7H365.1z M367,66.8v-2.7h-1.9v2.7H367z M368.5,60.9v2.7h2v-2.7H368.5z M370.5,66.8v-2.7h-2v2.7H370.5z"/>
</g>
</svg>
