<?xml version="1.0" encoding="utf-8"?>
<!-- Generator: Adobe Illustrator 22.1.0, SVG Export Plug-In . SVG Version: 6.00 Build 0)  -->
<svg version="1.1" id="组_13" xmlns="http://www.w3.org/2000/svg" xmlns:xlink="http://www.w3.org/1999/xlink" x="0px" y="0px"
	 viewBox="0 0 691 461" style="enable-background:new 0 0 691 461;" xml:space="preserve">
<style type="text/css">
	.st0{fill:none;stroke:#666666;stroke-dasharray:4,4;}
	.st1{fill:#4E6778;}
	.st2{fill:#2C3A44;}
	.st3{font-family:'NotoSerifCJKsc-SemiBold-GBpc-EUC-H';}
	.st4{font-size:24.0058px;}
	.st5{fill:#FFFFFF;}
	.st6{font-family:'NotoSerifCJKsc-Regular-GBpc-EUC-H';}
	.st7{font-size:16.0035px;}
	.st8{fill:#666666;}
</style>
<rect id="矩形_20" x="0.5" y="0.5" class="st0" width="690" height="460"/>
<circle id="椭圆_1" class="st1" cx="149.5" cy="397.8" r="44"/>
<circle id="椭圆_1_拷贝" class="st1" cx="341.7" cy="66.6" r="44"/>
<text id="云计算技术" transform="matrix(0.9972 0 0 1 281.9932 270.459)" class="st2 st3 st4">云计算技术</text>
<text id="加强管理" transform="matrix(0.9972 0 0 1 310.3574 72.1812)" class="st5 st6 st7">加强管理</text>
<text id="金融安全" transform="matrix(0.9972 0 0 1 117.9507 403.5645)" class="st5 st6 st7">金融安全</text>
<circle id="椭圆_1_拷贝_2" class="st1" cx="540.9" cy="396.8" r="44"/>
<g>
	<text transform="matrix(0.9972 0 0 1 508.9575 394.416)" class="st5 st6 st7">股市行情</text>
	<text transform="matrix(0.9972 0 0 1 524.916 419.9199)" class="st5 st6 st7">预测</text>
</g>
<path id="矩形_19" class="st8" d="M376.7,111.2l8.3,1.4l-11.1,6.5L376.7,111.2z M378.4,116.3l1.9-1.1l134,231.3l-1.9,1.1
	L378.4,116.3z"/>
<path id="矩形_19_拷贝_3" class="st8" d="M341.8,113.7l6.4,5.4h-12.9L341.8,113.7z M340.7,119h2.1l0.7,106.3h-2.1L340.7,119z"/>
<path id="矩形_19_拷贝_4" class="st8" d="M492.1,370.9l-8.3,1.3l8.5-9.7L492.1,370.9z M488.8,366.5l-1.4,1.6l-80.1-69.7l1.4-1.6
	L488.8,366.5z"/>
<path id="矩形_19_拷贝_5" class="st8" d="M196.7,370.5l8.2,1.3l-8.5-9.7L196.7,370.5z M200,366.1l1.4,1.6l79.8-69.6l-1.4-1.6
	L200,366.1z"/>
<path id="矩形_19_拷贝" class="st8" d="M175.8,349.2l8.2-1.4l-11.1-6.5L175.8,349.2z M177.5,344l1.9,1.1l133.9-231.3l-1.9-1.1
	L177.5,344z"/>
<path id="矩形_19_拷贝_2" class="st8" d="M480.8,399.1l-5.4-6.4v12.9L480.8,399.1z M475.4,400.2V398l-266.7-0.7v2.2L475.4,400.2
	z"/>
</svg>
