<?xml version="1.0" encoding="utf-8"?>
<!-- Generator: Adobe Illustrator 19.0.0, SVG Export Plug-In . SVG Version: 6.00 Build 0)  -->
<svg version="1.1" id="图层_1" xmlns="http://www.w3.org/2000/svg" xmlns:xlink="http://www.w3.org/1999/xlink" x="0px" y="0px"
	 viewBox="0 0 88 78" style="enable-background:new 0 0 88 78;" xml:space="preserve">
<style type="text/css">
	.st0{fill:#0D3780;}
	.st1{fill:none;}
</style>
<path class="st0" d="M78.3,58.3c-0.8,0-1.6,0.1-2.4,0.3L68.6,46c3.7-3.9,3.5-10.1-0.4-13.9c-1.8-1.7-4.3-2.7-6.8-2.7l-2.2,0.3
	l-7.7-13.3c3.6-4,3.3-10.2-0.7-13.8c-4-3.6-10.2-3.3-13.8,0.7c-3.4,3.7-3.4,9.4,0,13.2l-7.7,13.3l-2.2-0.3c-5.4-0.1-9.9,4.3-9.9,9.7
	c0,2.5,0.9,5,2.7,6.8l-7.4,12.7c-5.2-1.4-10.6,1.6-12.1,6.8C-1,70.7,2,76.1,7.2,77.6c5.2,1.4,10.5-1.6,12-6.7h15.4
	c1.5,5.2,6.9,8.3,12.1,6.8c3.3-0.9,5.9-3.5,6.8-6.8h15.2c1.5,5.2,6.9,8.2,12.1,6.7c5.2-1.5,8.2-6.9,6.7-12.1
	C86.4,61.2,82.6,58.4,78.3,58.3 M41.6,19.3c1.7,0.5,3.5,0.5,5.3,0l7.5,13.1c-0.8,0.8-1.5,1.8-2,2.8H36.1c-0.5-1-1.2-2-2-2.8
	L41.6,19.3z M34.8,65.4H19.3c-0.4-1.4-1.1-2.7-2.1-3.8l7.4-12.8c0.8,0.2,1.7,0.4,2.5,0.4l2-0.2l7.5,13C35.8,63,35.2,64.1,34.8,65.4
	 M47.4,58.9c-2.1-0.7-4.3-0.7-6.4,0l-7.2-12.4c1.6-1.5,2.6-3.6,2.9-5.8h14.9c0.3,2.2,1.3,4.3,2.9,5.8L47.4,58.9z M68.7,65.4H53.7
	c-0.4-1.3-1-2.4-1.8-3.4l7.5-13l2,0.2c0.9,0,1.7-0.1,2.5-0.4l7.2,12.5C70,62.5,69.2,63.9,68.7,65.4L68.7,65.4z"/>
<rect x="0.1" y="0" class="st1" width="87.9" height="78"/>
</svg>
