<?xml version="1.0" encoding="utf-8"?>
<!-- Generator: Adobe Illustrator 19.0.0, SVG Export Plug-In . SVG Version: 6.00 Build 0)  -->
<svg version="1.1" id="图层_1" xmlns="http://www.w3.org/2000/svg" xmlns:xlink="http://www.w3.org/1999/xlink" x="0px" y="0px"
	 viewBox="0 0 84 88" style="enable-background:new 0 0 84 88;" xml:space="preserve">
<style type="text/css">
	.st0{fill:#0D3780;}
</style>
<path class="st0" d="M10.2,88l4.3-7.4h48.3V88H10.2z M22.4,78.7l3.4-5.6L51.7,31H36c-1.8,1.3-4.1,2-6.5,2c-1.9,0-3.8-0.5-5.4-1.3
	L12.8,43l-12-12l4.3-4.4l7.6,5.3l6.1-6.1c-0.6-1.4-0.9-2.9-0.9-4.4c0-1.6,0.3-3.1,0.9-4.4L12.8,11l-7.6,5.3L0.9,12l12-12l11.3,11.3
	c1.6-0.9,3.4-1.3,5.4-1.3c2.4,0,4.6,0.7,6.5,2h18.7c-1.8,2.7-2.9,6-2.9,9.5c0,3.5,1.1,6.8,2.9,9.5h-0.1c1.3,2,3,3.7,5.2,5
	c3,1.8,6.3,2.6,9.6,2.5l-9.8,16l5,8.1l-9.4,16.2H22.4z M54.2,21.5c0-8,6.5-14.5,14.5-14.5c8,0,14.5,6.5,14.5,14.5
	s-6.5,14.5-14.5,14.5C60.7,35.9,54.2,29.5,54.2,21.5 M74.5,21.5c0-3.2-2.6-5.8-5.8-5.8c-3.2,0-5.8,2.6-5.8,5.8
	c0,3.2,2.6,5.8,5.8,5.8C71.9,27.3,74.5,24.7,74.5,21.5 M33.2,21.5c0-2-1.6-3.7-3.7-3.7c-2,0-3.7,1.7-3.7,3.7c0,2,1.7,3.7,3.7,3.7
	C31.5,25.2,33.2,23.5,33.2,21.5 M68.6,21.5c-0.1-0.1-0.1-0.1,0-0.2c0-0.1,0.1-0.1,0.1,0c0.1,0,0.1,0.1,0,0.2c0.1,0,0.1,0.1,0,0.1
	c0,0.1-0.1,0.1-0.2,0C68.6,21.6,68.6,21.6,68.6,21.5 M68.6,21.5C68.7,21.4,68.6,21.5,68.6,21.5"/>
</svg>
