<?xml version="1.0" encoding="utf-8"?>
<!-- Generator: Adobe Illustrator 19.0.0, SVG Export Plug-In . SVG Version: 6.00 Build 0)  -->
<svg version="1.1" id="图层_1" xmlns="http://www.w3.org/2000/svg" xmlns:xlink="http://www.w3.org/1999/xlink" x="0px" y="0px"
	 viewBox="0 0 72 76" style="enable-background:new 0 0 72 76;" xml:space="preserve">
<style type="text/css">
	.st0{fill:#0D3780;}
	.st1{fill:none;}
</style>
<g>
	<path class="st0" d="M36,20.2c-8.7,0-15.8,7.1-15.8,15.8S27.3,51.7,36,51.7c8.7,0,15.8-7.1,15.8-15.8S44.7,20.2,36,20.2"/>
	<rect x="3.5" y="72.3" class="st0" width="4.3" height="3.7"/>
	<path class="st0" d="M0,0v71.9h3.5h4.3h56.3h4.3H72V0H0z M9.7,48H5.3v-2h2.3V25.9H5.3v-2h4.3V48z M36,53.7c-9.8,0-17.8-8-17.8-17.8
		s8-17.8,17.8-17.8c9.8,0,17.8,8,17.8,17.8S45.8,53.7,36,53.7"/>
	<rect x="64.1" y="72.3" class="st0" width="4.3" height="3.7"/>
	<rect x="0" y="0" class="st1" width="71.9" height="76"/>
</g>
</svg>
