<?xml version="1.0" encoding="utf-8"?>
<!-- Generator: Adobe Illustrator 19.0.0, SVG Export Plug-In . SVG Version: 6.00 Build 0)  -->
<svg version="1.1" id="图层_1" xmlns="http://www.w3.org/2000/svg" xmlns:xlink="http://www.w3.org/1999/xlink" x="0px" y="0px"
	 viewBox="168 8 24 24" style="enable-background:new 168 8 24 24;" xml:space="preserve">
<style type="text/css">
	.st0{fill:#FFFFFF;}
</style>
<path class="st0" d="M189.1,8h-18.3c-1.6,0-2.8,1.3-2.8,2.9v18.3c0,1.6,1.3,2.9,2.8,2.9h18.3c1.6,0,2.9-1.3,2.9-2.8V10.9
	C192,9.3,190.7,8,189.1,8z M186,11h2.3c0.4,0,0.8,0.3,0.8,0.8V14c0,0.4-0.3,0.8-0.8,0.8H186c-0.5,0-0.8-0.3-0.8-0.8v-2.3
	C185.3,11.3,185.5,11,186,11z M180,15.4c2.5,0,4.6,2,4.6,4.6s-2.1,4.6-4.6,4.6s-4.7-2-4.7-4.6C175.4,17.5,177.4,15.4,180,15.4z
	 M189,29.8h-18c-0.5,0-0.8-0.3-0.8-0.8V17.8h3c-0.4,0.6-0.5,1.6-0.5,2.3c0,4,3.3,7.3,7.3,7.3c4,0,7.3-3.3,7.3-7.3
	c0-0.7-0.1-1.7-0.6-2.3h3V29C189.8,29.5,189.4,29.8,189,29.8L189,29.8z"/>
</svg>
