<?xml version="1.0" encoding="utf-8"?>
<!-- Generator: Adobe Illustrator 19.0.0, SVG Export Plug-In . SVG Version: 6.00 Build 0)  -->
<svg version="1.1" id="图层_1" xmlns="http://www.w3.org/2000/svg" xmlns:xlink="http://www.w3.org/1999/xlink" x="0px" y="0px"
	 viewBox="219.2 9 26 22" style="enable-background:new 219.2 9 26 22;" xml:space="preserve">
<style type="text/css">
	.st0{fill:#FFFFFF;}
</style>
<path class="st0" d="M245.2,12c-0.4,0.9-1.1,1.5-1.9,2.1c-0.5,0.4-0.6,0.7-0.6,1.3c-0.3,6.3-3.1,11.2-8.9,13.9
	c-4.8,2.3-9.7,1.9-14.4-0.7c-0.1-0.1-0.2-0.1-0.2-0.3c1.9,0.1,3.7-0.1,5.5-0.9c0.7-0.3,1.4-0.7,2.1-1.3c-0.4-0.1-0.6-0.1-0.9-0.2
	c-1.8-0.4-3-1.4-3.8-3.1c-0.2-0.4-0.2-0.6,0.3-0.5c0.5,0,1,0,1.5-0.1c-2.4-1-3.9-2.6-4-5.4c0.8,0.2,1.4,0.6,2.3,0.6
	c-1.1-0.9-1.9-2-2.1-3.3c-0.3-1.3-0.1-2.6,0.6-3.8c1,1.1,2,2.1,3.2,2.9c2.2,1.5,4.6,2.4,7.3,2.7c0.4,0.1,0.7,0,0.6-0.6
	c-0.2-2.3,0.6-4.1,2.6-5.3c2-1.2,4-1.2,5.9,0.2c0.9,0.6,1.6,0.7,2.5,0.3c0.6-0.3,1.1-0.5,1.9-0.8c-0.5,1.2-1.1,2.1-2.2,2.8
	C243.5,12.5,244.3,12.1,245.2,12L245.2,12L245.2,12z"/>
</svg>
