<?xml version="1.0" encoding="utf-8"?>
<!-- Generator: Adobe Illustrator 22.0.0, SVG Export Plug-In . SVG Version: 6.00 Build 0)  -->
<svg version="1.1" id="LOGO" xmlns="http://www.w3.org/2000/svg" xmlns:xlink="http://www.w3.org/1999/xlink" x="0px" y="0px"
	 viewBox="0 0 232.3 42" style="enable-background:new 0 0 232.3 42;" xml:space="preserve">
<style type="text/css">
	.st0{fill:#8a9399;}
	.st1{font-family:'NiagaraSolid-Reg';}
	.st2{font-size:12px;}
	.st3{letter-spacing:5;}
</style>
<path id="B" class="st0" d="M0,42h23.1c2.9,0.1,5.8-0.5,8.4-1.8c1.9-1,3.4-2.5,4.3-4.3c0.8-1.5,1.2-3.2,1.2-4.9
	c0-1.9-0.5-3.7-1.5-5.3c-1.1-1.7-2.7-3.1-4.6-4.1c-2.3-1.1-4.8-1.7-7.3-1.8v-0.1c2.6-0.2,5.1-1.2,7.1-2.9c2-1.7,3-4.3,2.9-6.9
	c0-1.6-0.4-3.2-1.1-4.6c-0.8-1.6-2.2-2.9-3.8-3.7c-2.3-1.1-4.8-1.6-7.3-1.5H0.1v0.3l7.5,1C7.8,3.2,8,5.1,8.1,7
	c0.1,2.4,0.2,4.9,0.2,7.5v9.2c0,2.1-0.1,5.1-0.3,8.9c-0.1,2.7-0.3,5.4-0.8,8.1L0,41.7L0,42L0,42z M23.5,2.7c1.3,0.7,2.4,1.7,3.1,3
	c0.7,1.3,1,2.8,1,4.2c0.1,1.8-0.4,3.5-1.3,5.1c-0.8,1.4-2.1,2.4-3.5,3.1c-1.6,0.7-3.3,1.1-5.1,1c-1.2,0-2.3-0.1-3.4-0.5
	c-0.1-0.9-0.2-2.8-0.2-5.9c0-3.6,0.2-7.3,0.7-10.9c1.1-0.3,2.2-0.4,3.3-0.3C20,1.5,21.8,1.9,23.5,2.7L23.5,2.7z M25,22.1
	c3.6,1.5,5.8,5.1,5.7,9c0.1,1.8-0.4,3.6-1.3,5.1c-0.8,1.4-2.1,2.5-3.5,3.1c-1.7,0.7-3.5,1.1-5.3,1c-2.2,0.1-4.3-0.5-6.2-1.6
	c-0.3-3.4-0.4-7-0.4-10.8c0-3.2,0.1-5.4,0.2-6.8c1.3-0.3,2.6-0.5,3.9-0.4C20.5,20.7,22.9,21.1,25,22.1L25,22.1z M11.1,1.1v39.8h-2
	V1.1H11.1z M20.6,0.6c1.4,0,2.7,0.2,4,0.6c1.1,0.4,2.2,1,3.1,1.8c0.9,0.8,1.6,1.8,2.1,3c0.5,1.3,0.8,2.6,0.7,4
	c0,2.3-0.7,4.5-2.2,6.2c-1.6,1.8-3.8,2.9-6.2,3.2v-0.3c1.1-0.3,2.2-0.8,3.1-1.5c1-0.8,1.9-1.8,2.5-3c0.7-1.4,1-2.9,1-4.4
	c0-1.6-0.3-3.3-1.1-4.7c-0.7-1.4-1.9-2.5-3.3-3.2c-1.6-0.8-3.5-1.3-5.3-1.3V0.7C19.7,0.6,20.2,0.6,20.6,0.6L20.6,0.6L20.6,0.6z
	 M28.5,21.7c1.7,0.9,3.1,2.2,4,3.9c0.9,1.7,1.4,3.6,1.3,5.6c0,1.7-0.4,3.5-1.3,5c-0.9,1.6-2.2,2.9-3.9,3.8c-1.9,1-4,1.5-6.2,1.4
	c-0.6,0-1.1,0-1.7-0.1V41c2.2,0.1,4.3-0.4,6.2-1.4c1.5-0.8,2.8-2.1,3.6-3.7c0.7-1.5,1.1-3.1,1.1-4.8c0.1-1.9-0.4-3.7-1.3-5.4
	c-0.9-1.5-2.1-2.7-3.5-3.6c-1.5-0.9-3.1-1.5-4.7-1.8v-0.2C24.3,20.2,26.5,20.7,28.5,21.7z"/>
<path id="ogleFunds" class="st0" d="M57.3,4.1c-1.3,0.5-2.5,1.3-3.5,2.3c-1,1-1.7,2.1-2.2,3.3c-1.2,2.7-1,5.8,0.4,8.4
	c0.9,1.6,2.2,3,3.8,3.9c3.3,1.8,7.3,2.1,10.8,0.7c2.5-1.1,4.6-3.1,5.6-5.6c0.5-1.2,0.7-2.4,0.7-3.7c0-1.2-0.2-2.3-0.6-3.4
	c-0.5-1.2-1.1-2.4-2-3.3c-1-1.1-2.2-2-3.5-2.5c-1.6-0.7-3.3-1-5-1C60.2,3.3,58.7,3.5,57.3,4.1z M64.7,4.7c0.9,0.3,1.8,0.9,2.5,1.6
	c0.8,0.8,1.5,1.9,1.9,3c0.5,1.5,0.7,3,0.7,4.5c0,1.3-0.2,2.6-0.6,3.8c-0.4,1.1-1,2-1.7,2.8c-0.7,0.8-1.6,1.3-2.5,1.8
	c-2.2,0.9-4.7,0.8-6.7-0.4c-1.3-0.7-2.3-1.8-3-3.1c-0.8-1.6-1.2-3.4-1.2-5.2c0-1.7,0.3-3.4,1.1-4.9c0.6-1.3,1.6-2.4,2.9-3.2
	c1.2-0.7,2.5-1.1,3.9-1.1C62.8,4.2,63.7,4.4,64.7,4.7L64.7,4.7z M65.7,4.3c1.1,0.4,2,1.1,2.8,1.9c0.9,0.9,1.6,1.9,2,3.1
	c0.5,1.4,0.8,2.8,0.7,4.3c0,1.4-0.2,2.7-0.7,4c-0.4,1.1-1.1,2.2-1.9,3.1c-0.8,0.8-1.7,1.5-2.8,1.9c-1.1,0.4-2.2,0.7-3.3,0.8v-0.2
	c1.3-0.1,2.5-0.5,3.6-1.1c1-0.6,1.8-1.3,2.4-2.2c0.6-0.9,1.1-1.9,1.3-2.9c0.6-2.6,0.5-5.3-0.3-7.9c-0.4-1.1-1-2.2-1.9-3
	c-0.7-0.7-1.6-1.3-2.5-1.6c-0.9-0.3-1.8-0.6-2.7-0.6V3.7C63.6,3.7,64.7,3.9,65.7,4.3L65.7,4.3z M57.6,4.8c-1.1,0.5-2,1.3-2.8,2.2
	C54,7.9,53.4,8.9,53,10c-0.4,1.1-0.6,2.4-0.6,3.6c0,1.5,0.4,3,1.1,4.4c1.5,3,4.5,4.9,7.8,5.2v0.2c-1.8,0-3.5-0.6-5-1.5
	c-1.5-0.9-2.7-2.2-3.6-3.7c-1.5-2.5-1.7-5.6-0.5-8.3c0.5-1.2,1.2-2.2,2.2-3.1c0.9-0.9,2-1.7,3.2-2.2c1.2-0.5,2.4-0.8,3.7-0.8v0.1
	C59.9,3.9,58.7,4.2,57.6,4.8L57.6,4.8z M92.3,16.4v5l-0.9,0.3v-5.3H92.3z M96.3,15.9h-9.1V16l3.5,0.5c0.2,1,0.3,2,0.3,2.9
	c0,0.9-0.1,1.7-0.3,2.6c-0.5,0.1-0.9,0.1-1.3,0.2s-0.7,0.1-1.1,0.1c-0.3,0-0.7,0.1-1,0.1c-1.2,0-2.4-0.2-3.6-0.7
	c-3.4-1.4-5.6-4.8-5.6-8.5c0-1.1,0.2-2.2,0.5-3.2c0.3-1.1,0.9-2,1.6-2.9C81,6.2,82,5.5,83.1,5c1.3-0.5,2.7-0.8,4.2-0.8
	c0.7,0,1.4,0,2.1,0.1c0.7,0.1,1.2,0.2,1.8,0.3c0.5,0.1,1,0.2,1.3,0.3l0.9,3h0.2l-0.2-4.6C92.7,3.4,92,3.4,91,3.4c-1,0-2,0-3.2-0.1
	c-0.4,0-0.7,0-0.9,0s-0.4,0-0.6,0c-0.2,0-0.4,0-0.6,0c-1.6,0-3.1,0.3-4.5,0.9c-1.3,0.5-2.4,1.3-3.4,2.4c-0.9,1-1.6,2.1-2.1,3.4
	c-0.5,1.3-0.7,2.6-0.7,4c0,1.2,0.2,2.4,0.6,3.5c0.4,1.2,1.1,2.3,2,3.2c0.9,1,2.1,1.8,3.4,2.3c1.5,0.6,3.1,0.9,4.7,0.8
	c1,0,2-0.1,3-0.3c0.8-0.1,1.6-0.3,2.4-0.6c0.7-0.2,1.5-0.5,2.6-0.9c0-0.8,0-1.7,0.1-2.8c0.1-0.9,0.1-1.7,0.3-2.6l2.2-0.5L96.3,15.9
	L96.3,15.9z M87,3.7c-1.5,0-3,0.2-4.4,0.7c-1.2,0.4-2.3,1.1-3.3,2c-0.9,0.9-1.5,1.9-2,3.1c-0.5,1.2-0.7,2.6-0.7,3.9
	c0,1.2,0.2,2.3,0.6,3.4c0.4,1.2,1.1,2.2,1.9,3.1c1,1,2.2,1.8,3.5,2.3c1.7,0.6,3.4,0.9,5.2,0.8v0.1c-0.5,0.1-1.1,0.1-1.6,0.1
	c-1.9,0-3.9-0.4-5.6-1.3c-3-1.6-4.9-4.8-4.9-8.2c0-1.4,0.2-2.8,0.7-4.1c0.5-1.2,1.2-2.4,2.1-3.3c0.9-0.9,2-1.7,3.2-2.2
	c1.3-0.5,2.7-0.8,4.1-0.8c0.5,0,1,0,1.7,0.1v0.1L87,3.7L87,3.7z M102.1,4.1v19h-1v-19L102.1,4.1L102.1,4.1z M100.4,4.2
	c0.1,0.6,0.2,1.2,0.2,1.8c0.1,0.7,0.1,1.6,0.1,2.6s0.1,1.8,0.1,2.6v3.4c0,0.5,0,1.3-0.1,2.5c0,1.2-0.1,2.4-0.2,3.5
	c0,0.8-0.1,1.6-0.3,2.3L97,23.4v0.1h16.2l0.6-5h-0.2l-1.4,3.7c-0.5,0.1-0.9,0.2-1.4,0.3c-0.7,0.1-1.5,0.1-2.2,0.1
	c-1.6,0-3.3-0.2-4.8-0.7c-0.1-1.5-0.2-3-0.2-4.4v-5.9c0-1.1,0-2.4,0.1-3.9s0.2-2.7,0.3-3.6l3.4-0.5V3.6H97v0.1L100.4,4.2z
	 M119.9,4.1v19H119V4.1L119.9,4.1L119.9,4.1z M118.2,4.2c0.1,0.9,0.2,1.7,0.2,2.6c0.1,0.9,0.1,1.7,0.1,2.5c0,0.8,0,1.4,0,1.9v3.4
	c0,0.5,0,1,0,1.7c0,0.6-0.1,1.4-0.1,2.4c0,1-0.1,1.8-0.2,2.6c0,0.6-0.1,1.1-0.2,1.7l-3.3,0.5v0.1h14.7l0.3-4.3h-0.2l-1.1,3.3
	c-0.9,0.1-1.7,0.1-2.6,0.1c-1.5,0-2.9-0.1-4.4-0.5c-0.1-0.6-0.1-1.3-0.2-2.2s-0.1-1.9-0.1-3.2c0-1,0-2.1,0.1-3.1
	c1.1-0.1,2.2-0.2,3.3-0.2c0.9,0,1.8,0,2.6,0.1l0.6,2.5h0.2v-5.8H128l-0.6,2.3c-1.1,0.1-2.1,0.2-3.2,0.2c-0.4,0-1.3,0-2.7-0.1
	c-0.1-0.7-0.1-1.7-0.1-2.9c0-1.7,0.1-3.4,0.3-5.1c1.4-0.3,2.8-0.4,4.3-0.4c1,0,1.8,0,2.6,0.1l1,3.3h0.2l-0.3-4.3h-14.6v0.1
	L118.2,4.2z M135.9,4.1v19H135v-19L135.9,4.1L135.9,4.1z M130.8,3.7l3.4,0.5c0.1,0.7,0.2,1.5,0.2,2.2c0.1,0.9,0.1,1.8,0.1,2.7
	s0,1.6,0,2.1V15c0,1.1,0,2.5-0.1,4.1c-0.1,1.6-0.2,2.9-0.3,3.9l-3.3,0.5v0.1h10.3v-0.1l-3.4-0.5c-0.1-0.8-0.2-1.8-0.3-3.2
	c-0.1-1.4-0.1-2.4-0.1-3.1c0-1,0-2,0.1-2.9c1.5-0.1,2.5-0.1,3-0.1c0.5,0,1,0,1.5,0c0.5,0,1,0.1,1.5,0.1l0.7,2.5h0.2v-5.8h-0.2
	l-0.7,2.4c-1,0.1-2,0.2-3,0.2c-1,0-2,0-3-0.2c-0.1-1.2-0.1-2.2-0.1-2.8c0-0.6,0-1.4,0.1-2.5c0.1-1.1,0.1-2,0.2-2.6
	c1.4-0.3,2.9-0.4,4.3-0.4c0.7,0,1.5,0,2.5,0.1l1,3.4h0.2l-0.3-4.3h-14.6V3.7L130.8,3.7z M163.8,21.3c0.9-1.3,1.3-2.8,1.3-4.3v-13h1
	v13c0,0.9-0.1,1.8-0.4,2.7c-0.2,0.7-0.6,1.4-1.2,1.9c-0.6,0.5-1.2,0.9-1.9,1.2c-0.9,0.3-1.8,0.5-2.8,0.5v-0.2
	C161.3,23.2,162.8,22.5,163.8,21.3L163.8,21.3z M152.4,21.8c-1.2-1-1.8-2.5-1.8-4V4.1h1v13.2c0,1.1,0.2,2.2,0.8,3.2
	c0.5,0.9,1.3,1.6,2.3,2c1.1,0.5,2.2,0.7,3.4,0.8v0.2C155.4,23.3,153.6,22.8,152.4,21.8L152.4,21.8z M151.3,21.3
	c0.8,0.9,1.8,1.6,3,1.9c1.5,0.4,3,0.6,4.5,0.6c0.9,0,1.8,0,2.6-0.1c0.7-0.1,1.3-0.2,2-0.4c0.5-0.1,1-0.4,1.5-0.6
	c0.4-0.3,0.8-0.6,1.1-0.9c0.5-0.5,0.9-1.2,1.1-1.9c0.3-0.8,0.4-1.7,0.4-2.6v-6.6c0-0.9,0-2.1,0.1-3.5c0-1,0.1-2,0.3-3l2.8-0.5V3.6
	h-9.9v0.1l3.6,0.5c0.1,0.7,0.2,1.8,0.3,3.2c0.1,1.4,0.1,2.6,0.1,3.7v5.9c0,2.1-0.5,3.6-1.6,4.5c-1.2,1-2.8,1.5-4.3,1.4
	c-1,0-2-0.2-2.9-0.5c-0.9-0.3-1.6-0.9-2.1-1.7c-0.6-1-0.9-2.1-0.8-3.2v-5.6c0-0.6,0-1.4,0.1-2.4s0.1-2,0.1-2.9
	c0.1-0.9,0.1-1.7,0.2-2.3l3.6-0.5V3.6h-10v0.1l2.9,0.5c0.2,2.3,0.3,4.3,0.3,6v7.6C150.1,19,150.5,20.3,151.3,21.3L151.3,21.3z
	 M173.4,4.2l1.8,1.3c0.1,0.8,0.1,1.5,0.1,2.3c0,0.8,0,1.6,0,2.4v6.7c0,0.9,0,2-0.1,3.2c0,0.9-0.1,1.9-0.2,2.8l-3.4,0.5v0.1h8.3v-0.1
	l-3.5-0.5c-0.2-1.4-0.3-2.8-0.3-4.1v-8.7c0-1.2,0.1-2.3,0.2-3.5c0.9,0.8,1.9,1.8,3.2,3.2l8.4,9.3c1.4,1.5,2.7,3.2,4.1,5h0.1v-15
	c0-1.6,0.1-3.3,0.3-4.9l3.3-0.5V3.6h-8.1v0.1l3.3,0.5c0.2,1.7,0.3,3.5,0.3,5.3v5.9c0,0.5,0,1,0,1.5s-0.1,1.1-0.1,1.8
	c-0.7-0.7-1.3-1.3-1.8-1.8c-0.5-0.5-1.1-1.2-1.9-2.1l-6.1-6.8c-0.6-0.6-1.2-1.4-1.9-2.3c-0.7-0.9-1.3-1.6-1.8-2.2h-6.9v0.1
	L173.4,4.2z M176.1,4.1l15.4,17.1v1.3L174.9,4.1L176.1,4.1L176.1,4.1z M196,3.7l3.4,0.5c0.3,2.4,0.4,4.7,0.4,7.1v3.6
	c0,1,0,2.4-0.1,4.2c0,1.3-0.2,2.6-0.4,3.8l-3.3,0.5v0.1h12.6c1.4,0,2.7-0.2,4-0.7c2.4-0.9,4.3-2.9,5.2-5.3c0.5-1.3,0.7-2.6,0.7-4
	c0-1.2-0.2-2.4-0.6-3.5c-0.4-1.2-1-2.3-1.8-3.2c-1-1.1-2.2-1.9-3.5-2.4c-1.7-0.6-3.5-1-5.4-0.9H196L196,3.7L196,3.7z M202.5,8.5
	c0-0.9,0.1-1.6,0.1-2.3c0-0.6,0.1-1.1,0.2-1.5c0.9-0.2,1.8-0.4,2.8-0.3c1.2,0,2.5,0.2,3.6,0.5c1.1,0.3,2.2,0.9,3.1,1.6
	c0.9,0.8,1.6,1.8,2.1,2.9c0.5,1.3,0.8,2.7,0.8,4.1c0,1.4-0.2,2.7-0.7,4c-1.2,3.1-4.3,5.2-7.6,5.2c-0.7,0-1.5-0.1-2.2-0.2
	c-0.7-0.1-1.4-0.3-2-0.6c-0.1-1.2-0.2-2.4-0.2-3.6v-8C202.5,10,202.5,9.3,202.5,8.5L202.5,8.5z M201.1,4.1v19h-1V4.1L201.1,4.1
	L201.1,4.1z M205.9,3.9c3.7,0,6.4,0.9,8.1,2.7c0.8,0.9,1.5,1.9,2,3c0.6,1.3,0.8,2.7,0.8,4.1c0,1.7-0.4,3.3-1.1,4.8
	c-0.7,1.5-1.9,2.7-3.3,3.5c-1.6,0.9-3.4,1.4-5.2,1.3h-1v-0.1h1c2.9-0.1,5.6-1.7,7.1-4.2c1-1.6,1.4-3.5,1.4-5.3
	c0-0.9-0.1-1.8-0.3-2.7c-0.2-0.8-0.5-1.6-0.9-2.3c-0.4-0.7-0.8-1.3-1.4-1.9c-0.5-0.5-1.2-1-1.9-1.4c-0.8-0.4-1.7-0.7-2.7-0.9
	c-1.2-0.2-2.4-0.4-3.6-0.3V3.9L205.9,3.9L205.9,3.9z M227.3,3.7c-1.4-0.1-2.8,0.4-3.9,1.4c-0.8,0.7-1.3,1.7-1.3,2.8
	c0,1.2,0.5,2.3,1.4,3.1c0.6,0.5,1.2,1,1.9,1.4c0.8,0.6,1.7,1.2,2.5,1.7c0.6,0.4,1.2,0.8,1.7,1.3c0.5,0.5,0.9,1,1.1,1.6
	c0.2,0.6,0.3,1.2,0.3,1.8c0,0.8-0.3,1.5-0.7,2.2c-0.5,0.7-1.2,1.3-2,1.7c-0.9,0.4-1.9,0.6-3,0.6v-0.2c0.9,0,1.7-0.2,2.5-0.6
	c0.7-0.4,1.2-0.9,1.6-1.6c0.4-0.6,0.6-1.3,0.6-2c0-1-0.5-2-1.2-2.7c-0.4-0.4-0.7-0.7-1.2-1c-0.5-0.3-1.1-0.8-1.9-1.3
	c-0.8-0.5-1.4-0.9-1.8-1.2c-0.4-0.3-0.9-0.7-1.3-1.1c-0.9-0.8-1.5-2-1.5-3.3c0-0.9,0.2-1.8,0.7-2.5c0.5-0.7,1.2-1.3,2-1.7
	c0.9-0.4,1.8-0.6,2.8-0.6h0.4L227.3,3.7L227.3,3.7z M220.4,18.8l0.2,4.8c0,0,0.2,0,0.4,0l0.4,0c0.1,0,0.2,0,0.4,0c0.4,0,1,0,1.8,0.1
	c0.8,0.1,1.5,0.1,2,0.1c1.3,0.1,2.7-0.3,3.9-0.9c0.9-0.5,1.6-1.3,2.1-2.2c0.4-0.8,0.6-1.6,0.6-2.5c0-1.4-0.6-2.8-1.6-3.8
	c-0.7-0.7-1.4-1.2-2.2-1.7c-0.9-0.6-1.8-1.2-2.6-1.7c-0.7-0.5-1.4-1-1.9-1.6c-0.4-0.5-0.7-1.2-0.7-1.9c0-0.6,0.2-1.2,0.5-1.7
	c0.4-0.5,0.9-1,1.5-1.2c0.7-0.3,1.4-0.5,2.1-0.4c1.1,0.1,2.3,0.3,3.3,0.8l0.9,3.2h0.2l-0.1-4.7c-0.1,0-0.2,0-0.4,0s-0.3,0-0.5,0
	s-0.4,0-0.6,0c-0.3,0-0.7,0-1.4-0.1s-1.3-0.1-1.9-0.1c-1.1,0-2.3,0.2-3.3,0.8c-0.8,0.4-1.5,1.1-2,1.9c-0.4,0.7-0.6,1.5-0.6,2.3
	c0,0.7,0.1,1.3,0.4,1.9c0.3,0.6,0.7,1.2,1.2,1.7c1,0.9,2,1.7,3.1,2.4c1.1,0.7,2.1,1.5,3.1,2.4c0.6,0.6,0.9,1.4,0.9,2.3
	c0,0.5-0.1,0.9-0.3,1.3c-0.2,0.5-0.5,0.9-0.8,1.2c-0.4,0.4-0.9,0.7-1.4,0.9c-0.6,0.2-1.2,0.4-1.9,0.4c-0.6,0-1.2-0.1-1.8-0.2
	c-0.6-0.1-1.2-0.3-1.8-0.6l-1-3.4L220.4,18.8L220.4,18.8z"/>
<text transform="matrix(1 0 0 1 52.3129 38.625)" class="st0 st1 st2 st3">Artificial Intelligence</text>
</svg>
