<?xml version="1.0" encoding="utf-8"?>
<!-- Generator: Adobe Illustrator 19.0.0, SVG Export Plug-In . SVG Version: 6.00 Build 0)  -->
<svg version="1.1" id="图层_1" xmlns="http://www.w3.org/2000/svg" xmlns:xlink="http://www.w3.org/1999/xlink" x="0px" y="0px"
	 viewBox="0 0 462 462" style="enable-background:new 0 0 462 462;" xml:space="preserve">
<style type="text/css">
	.st0{fill:none;stroke:#B1B2B5;stroke-width:1.5;stroke-linecap:round;stroke-linejoin:round;stroke-miterlimit:10;}
	.st1{fill:#FFFFFF;}
	.st2{fill:#B1B2B5;}
	.st3{fill:#A7A7A8;}
	.st4{fill:#A4A4A9;}
	.st5{fill:#979797;}
	.st6{fill:#6D6D71;}
	.st7{fill:#DEDEDE;}
	.st8{opacity:0.4;}
	.st9{clip-path:url(#SVGID_2_);fill:#A0A0A0;}
	.st10{fill:#E7A295;}
	.st11{opacity:0.3;}
	.st12{clip-path:url(#SVGID_4_);fill:#A4A4A9;}
	.st13{clip-path:url(#SVGID_6_);fill:#A4A4A9;}
	.st14{clip-path:url(#SVGID_8_);fill:#A4A4A9;}
	.st15{fill:#8F8F8F;}
	.st16{fill:none;stroke:#6D6D71;stroke-width:1.5;stroke-linecap:round;stroke-linejoin:round;stroke-miterlimit:10;}
	.st17{fill:none;stroke:#6D6D71;stroke-width:1.5;stroke-miterlimit:10;}
	.st18{fill:none;}
	.st19{font-family:'NotoSerifCJKsc-Light-GBpc-EUC-H';}
	.st20{font-size:14.5px;}
	
		.st21{clip-path:url(#SVGID_10_);fill:none;stroke:#6D6D71;stroke-width:1.5;stroke-linecap:round;stroke-linejoin:round;stroke-miterlimit:10;}
	.st22{clip-path:url(#SVGID_10_);fill:#B1B2B5;}
	.st23{clip-path:url(#SVGID_10_);fill:#8F8F8F;}
	.st24{clip-path:url(#SVGID_10_);fill:#FFFFFF;}
	
		.st25{clip-path:url(#SVGID_10_);fill:none;stroke:#B1B2B5;stroke-width:1.5;stroke-linecap:round;stroke-linejoin:round;stroke-miterlimit:10;}
	.st26{clip-path:url(#SVGID_10_);fill:#EDEDED;}
	.st27{clip-path:url(#SVGID_10_);fill:#DEDEDE;}
	.st28{clip-path:url(#SVGID_10_);fill:#A7A7A8;}
	.st29{clip-path:url(#SVGID_10_);fill:#FD4A4A;}
	.st30{opacity:0.4;clip-path:url(#SVGID_10_);}
	.st31{clip-path:url(#SVGID_12_);fill:#DEDEDE;}
	.st32{clip-path:url(#SVGID_10_);fill:#979797;}
	.st33{clip-path:url(#SVGID_10_);fill:#D1D1D1;}
	.st34{opacity:0.5;clip-path:url(#SVGID_10_);}
	.st35{clip-path:url(#SVGID_14_);fill:#DEDEDE;}
	.st36{clip-path:url(#SVGID_16_);fill:#DEDEDE;}
	.st37{clip-path:url(#SVGID_18_);fill:#DEDEDE;}
</style>
<circle class="st0" cx="340" cy="242.9" r="2.4"/>
<line class="st0" x1="340" y1="223.8" x2="340" y2="240.4"/>
<polyline class="st0" points="310.6,185.1 310.6,198.7 320.5,203.8 320.5,216.7 "/>
<polyline class="st0" points="350.4,246.8 350.3,238.9 344.5,233.6 344.5,220.7 "/>
<polyline class="st0" points="331,256.6 331,240.8 334.6,238.5 334.6,226.5 "/>
<line class="st0" x1="320.5" y1="185.1" x2="320.5" y2="189.2"/>
<line class="st0" x1="320.5" y1="193.2" x2="320.5" y2="199.9"/>
<line class="st0" x1="340" y1="260.2" x2="340" y2="249.9"/>
<line class="st0" x1="124.5" y1="219.1" x2="124.5" y2="202.5"/>
<polyline class="st0" points="133.5,183.3 133.5,199.1 129.9,201.4 129.9,222.8 "/>
<line class="st0" x1="139.1" y1="209.9" x2="139.1" y2="205.8"/>
<path class="st1" d="M260.4,160.7c-3.4,0.6-6.9,1.1-10.4,1.6c-1.3,4.9-2.9,9.4-5,13.4C251.4,172.1,256.7,166.9,260.4,160.7"/>
<path class="st1" d="M266.2,141.4h-13.5c-0.1,6.1-0.7,11.9-1.9,17.4c3.9-0.5,7.8-1.1,11.6-1.8C264.6,152.1,266,146.9,266.2,141.4"/>
<path class="st1" d="M226.8,180.7c4.5-0.2,8.9-1.1,12.9-2.6c2.8-4.3,5.1-9.5,6.7-15.5c-6.4,0.7-13,1-19.6,1.1V180.7z"/>
<path class="st1" d="M262.4,122.5c-3.8-0.7-7.7-1.3-11.6-1.8c1.1,5.5,1.8,11.3,1.9,17.4h13.5C266,132.5,264.6,127.3,262.4,122.5"/>
<path class="st1" d="M226.8,160.3c6.9-0.1,13.8-0.4,20.5-1.2c1.2-5.5,1.9-11.5,2-17.8h-22.5V160.3z"/>
<path class="st1" d="M260.4,118.7c-3.7-6.2-9-11.4-15.4-14.9c2,4,3.7,8.5,5,13.4C253.5,117.6,257,118.1,260.4,118.7"/>
<path class="st1" d="M226.8,138h22.5c-0.1-6.2-0.8-12.2-2-17.8c-6.7-0.7-13.5-1.1-20.5-1.2V138z"/>
<path class="st1" d="M226.8,98.7v17c6.6,0.1,13.2,0.4,19.6,1.1c-1.6-5.9-3.9-11.2-6.7-15.5C235.7,99.8,231.4,98.9,226.8,98.7"/>
<path class="st1" d="M223.5,119.1c-6.9,0.1-13.8,0.4-20.5,1.2c-1.2,5.5-1.9,11.5-2,17.8h22.5V119.1z"/>
<path class="st1" d="M184.1,138h13.5c0.1-6.1,0.7-11.9,1.9-17.4c-3.9,0.5-7.8,1.1-11.6,1.9C185.7,127.3,184.4,132.5,184.1,138"/>
<path class="st1" d="M223.5,180.7v-17c-6.6-0.1-13.2-0.4-19.6-1.1c1.6,5.9,3.9,11.2,6.7,15.5C214.6,179.6,218.9,180.6,223.5,180.7"
	/>
<path class="st1" d="M223.5,98.7c-4.5,0.2-8.9,1.1-12.9,2.6c-2.8,4.3-5.1,9.5-6.7,15.5c6.4-0.7,13-1,19.6-1.1V98.7z"/>
<path class="st1" d="M223.5,141.4H201c0.1,6.2,0.8,12.2,2,17.8c6.7,0.7,13.5,1.1,20.5,1.2V141.4z"/>
<path class="st1" d="M205.3,175.6c-2-4-3.7-8.5-5-13.4c-3.5-0.4-7-1-10.4-1.6C193.6,166.9,198.9,172.1,205.3,175.6"/>
<path class="st1" d="M205.3,103.8c-6.4,3.5-11.7,8.7-15.4,14.9c3.4-0.6,6.9-1.1,10.4-1.6C201.6,112.3,203.2,107.8,205.3,103.8"/>
<path class="st1" d="M187.9,156.9c3.8,0.7,7.7,1.3,11.6,1.8c-1.1-5.5-1.8-11.3-1.9-17.4h-13.5C184.4,146.9,185.7,152.1,187.9,156.9"
	/>
<path class="st1" d="M274,164.7c0.8,0,1.7,0.1,2.5,0.2c2.8-9.4,11.4-16.2,21.7-16.2c8.4,0,15.7,4.6,19.6,11.4
	c2.1-0.8,4.3-1.3,6.7-1.3c9.7,0,17.6,7.9,17.6,17.6c0,3.3-0.9,6.4-2.5,9.1c-3.1,5.1-8.7,8.5-15,8.5H274c-8.1,0-14.6-6.5-14.6-14.6
	S265.9,164.7,274,164.7"/>
<path class="st1" d="M121.2,155.3c0.8,0,1.7,0.1,2.5,0.2c2.8-9.4,11.4-16.2,21.7-16.2c8.4,0,15.7,4.6,19.6,11.4
	c2.1-0.8,4.3-1.3,6.7-1.3c9.7,0,17.6,7.9,17.6,17.6c0,3.3-0.9,6.4-2.5,9.1c-3.1,5.1-8.7,8.5-15,8.5h-50.4c-8.1,0-14.6-6.5-14.6-14.6
	S113.1,155.3,121.2,155.3"/>
<path class="st2" d="M352.5,425.6c-6.5-11-17.2-18.9-29.7-21.8c-21.2-4.9-52.5-12.8-55.1-16.7c-3.9-6-8.4-39.1-8.4-39.1l-23.1-6.8
	l0.9-12.3l-14.8-1.9l-0.9,12.4l-29,8.6c0,0-4.4,33.2-8.4,39.1c-2.6,3.9-33.9,11.8-55.1,16.7c-12.5,2.9-23.2,10.8-29.7,21.8l-5.6,9.4
	h121h7.6h7.2h128.7L352.5,425.6z"/>
<path class="st3" d="M222.3,326.9l-0.9,12.4l-29,8.6c0,0-4.4,33.2-8.4,39.1c-2.6,3.9-33.9,11.8-55.1,16.7
	c-12.5,2.9-23.2,10.8-29.7,21.8l-5.6,9.4h121h7.6h3v-42v-65.8L222.3,326.9z"/>
<path class="st2" d="M273.7,247.9c-17-23.5-47.8-22.8-47.8-22.8s-30.9-0.7-47.8,22.8c0,0-10.1,19.3-4.6,60c0,0,1.3,25.6,1.5,28.1
	c0.3,2.6,26.6,34.6,33.2,38.8c6.6,4.2,17.7,3.5,17.7,3.5s11.1,0.7,17.7-3.5c6.6-4.2,32.9-36.3,33.2-38.8c0.3-2.6,1.5-28.1,1.5-28.1
	C283.8,267.2,273.7,247.9,273.7,247.9"/>
<path class="st2" d="M277.2,319.2l5.4-6.2c0,0,7.1-20.6,2.7-25.8c-4.4-5.2-8.8,5.6-8.8,5.6L277.2,319.2z"/>
<path class="st4" d="M174.5,319.2l-5.4-6.2c0,0-7.1-20.6-2.7-25.8c4.4-5.2,8.8,5.6,8.8,5.6L174.5,319.2z"/>
<path class="st5" d="M262.8,369.3c-0.8-4.3-1.5-8.6-2.1-12.3c-6.9,8.1-14.1,15.9-17.1,17.8c-6.6,4.2-17.7,3.5-17.7,3.5
	s-11.1,0.7-17.7-3.5c-3-1.9-10.2-9.7-17.1-17.8c-0.6,3.7-1.3,8-2.1,12.3c7.5,8.9,15.9,18.2,19.2,20.3c6.6,4.2,17.7,3.5,17.7,3.5
	s11.1,0.7,17.7-3.5C246.9,387.4,255.3,378.2,262.8,369.3"/>
<path class="st3" d="M225.3,225.1c-4.2,0-31.6,1.2-47.3,22.8c0,0-10.1,19.3-4.6,60c0,0,1.3,25.6,1.5,28.1
	c0.3,2.6,26.6,34.6,33.2,38.8c5.7,3.6,14.8,3.6,17.1,3.5V225.1z"/>
<path class="st6" d="M267.1,252.7c-11.8-23.7-41.3-22.2-41.3-22.2s-29.4-1.5-41.3,22.2c-11.3,22.6,17.5,41.3,41.3,40.2
	C249.6,294,278.4,275.3,267.1,252.7"/>
<path class="st7" d="M227.9,290.5c-0.6,0-1.3,0-1.9,0l-0.1,0l-0.1,0c-0.6,0-1.3,0-1.9,0c-14.7,0-29.9-7.4-36.3-17.6
	c-3.8-6.1-4-12.5-0.7-19.1c9.9-19.8,33.4-20.9,38-20.9c0.6,0,0.9,0,0.9,0l0.1,0l0.1,0c0,0,0.3,0,0.9,0c4.6,0,28.1,1,38,20.9
	c3.3,6.5,3,13-0.8,19.1C257.9,283.1,242.6,290.5,227.9,290.5L227.9,290.5z"/>
<path class="st1" d="M227.9,289.2c-0.6,0-1.3,0-1.9,0l-0.1,0l-0.2,0c-0.6,0-1.3,0-1.9,0c-14.3,0-29.1-7.2-35.2-17
	c-3.5-5.7-3.8-11.7-0.7-17.9c9.6-19.2,32.5-20.2,36.9-20.2c0.5,0,0.8,0,0.8,0l0.3,0l0.1,0c0,0,0.3,0,0.8,0c4.5,0,27.3,1,36.9,20.2
	c3.1,6.1,2.8,12.1-0.7,17.9C257,282.1,242.2,289.2,227.9,289.2L227.9,289.2z"/>
<g class="st8">
	<g>
		<defs>
			<rect id="SVGID_1_" x="185.8" y="234.2" width="42.9" height="55.1"/>
		</defs>
		<clipPath id="SVGID_2_">
			<use xlink:href="#SVGID_1_"  style="overflow:visible;"/>
		</clipPath>
		<path class="st9" d="M227.5,234.2l0.3,0l0.1,0c-0.4,0-0.7,0-1,0h-0.1C227.2,234.2,227.4,234.2,227.5,234.2"/>
		<path class="st9" d="M227.9,289.2l-0.1,0l-0.2,0c-0.2,0-0.5,0-0.7,0C227.2,289.2,227.5,289.2,227.9,289.2L227.9,289.2
			c0.3,0,0.6,0,0.9,0C228.4,289.2,228.1,289.2,227.9,289.2"/>
		<path class="st9" d="M190.4,272.2c-3.5-5.7-3.8-11.7-0.7-17.9c9-18.1,29.9-20,36-20.2l0,0c-0.1,0-0.3,0-0.8,0
			c-4.5,0-27.3,1-36.9,20.2c-3.1,6.1-2.8,12.1,0.7,17.9c6.1,9.9,20.9,17,35.2,17c0.3,0,0.7,0,1,0C210.8,289,196.4,281.9,190.4,272.2
			"/>
	</g>
</g>
<path class="st10" d="M252.8,270c1.3,0.3,2.8,0.2,4-0.3c1.2-0.5,2-1.3,2.4-2.2c-0.2-1.6-0.8-3.2-1.9-4.5c-1,1.3-2.2,2.5-3.9,3.3
	c-0.9,0.4-2.1,0.7-3.2,0.7c-0.1,0-0.1,0-0.2,0c0,1.7-0.7,3.3-1.8,4.5c0.9,0.8,2.1,1.3,3.4,1.5c0.3,0,0.5,0.3,0.5,0.6
	c0,0.3-0.3,0.5-0.6,0.5c0,0-0.1,0-0.1,0c-1.6-0.2-3-0.9-4.1-1.8c-0.8,0.6-1.7,1.2-2.7,1.5c-0.5,0.2-1,0.3-1.5,0.4
	c-0.7,0.9-0.6,2.1,0.1,3c0.2,0.2,0.2,0.6-0.1,0.8c-0.1,0.1-0.2,0.1-0.4,0.1c-0.2,0-0.3-0.1-0.4-0.2c-0.8-1-1-2.3-0.6-3.5
	c-0.1,0-0.2,0-0.3,0c-0.8,0.1-1.6,0.2-2.4,0.4c-1.5,0.4-3.2,1.4-3.3,2.8c0,0.3-0.3,0.6-0.6,0.6h0c-0.3,0-0.6-0.3-0.6-0.6
	c0.1-1.7,1.7-2.9,3.3-3.6c-0.3-0.1-0.6-0.2-1-0.4c-1.1-0.5-2.1-1.6-2.5-2.6c-0.1-0.3,0-0.6,0.3-0.7c0.3-0.1,0.6,0,0.7,0.3
	c0.3,0.7,1.1,1.6,2,2c0.9,0.5,1.2,0.5,2.6,0.8c0.1,0,0.1,0,0.2,0.1c0.4-0.1,0.7-0.1,1.1-0.2c1.1-0.1,2-0.3,3-0.6
	c2.7-0.9,4.7-3.4,4.6-5.9c-0.7-0.1-1.4-0.4-2-0.9c-0.3-0.2-0.3-0.6-0.1-0.8c0.2-0.3,0.6-0.3,0.8-0.1c1.5,1.1,3.8,0.9,5.4,0.2
	c1.5-0.7,2.6-1.8,3.5-3c-1.3-1.7-3.5-3-5.9-3.5c-0.3-0.1-0.5-0.4-0.4-0.7c0.1-0.3,0.4-0.5,0.7-0.4c2.5,0.5,4.8,1.8,6.3,3.6
	c1.4-2.8,1.5-6.1,0.1-8.9c-1.3-2.7-3.8-4.9-6.9-6.2c0.2,1.2-0.2,2.6-0.8,3.6c-0.1,0.2-0.2,0.3-0.4,0.5c2.7,0.7,5,2.3,6.5,4.3
	c0.2,0.3,0.1,0.6-0.1,0.8c-0.1,0.1-0.2,0.1-0.3,0.1c-0.2,0-0.3-0.1-0.5-0.2c-1.4-1.9-3.8-3.4-6.4-4c0,0,0,0,0,0
	c-0.5,0.5-1,1-1.6,1.5l-0.3,0.3c-1,0.9-2.1,1.9-2.5,3.1c-0.3,0.9-0.4,1.8-0.4,2.8c0,0,0,0.1,0,0.1c2.3,0.1,4.5,1.2,5.8,3
	c0.2,0.3,0.1,0.6-0.1,0.8c-0.1,0.1-0.2,0.1-0.3,0.1c-0.2,0-0.4-0.1-0.5-0.2c-1.1-1.5-2.9-2.5-4.9-2.5c0,0.4-0.1,0.8-0.2,1.1
	c-0.3,1.4-1.2,2.7-2.3,3.7c0.8,1.6,2.2,2.9,3.9,3.8c0.3,0.1,0.4,0.5,0.3,0.8c-0.1,0.2-0.3,0.3-0.5,0.3c-0.1,0-0.2,0-0.2-0.1
	c-1.9-0.9-3.5-2.4-4.4-4.1c-1.2,0.8-2.7,1.4-4.2,1.6c-0.4,0.8-1.1,1.5-2.1,1.9c-0.9,0.4-1.9,0.6-3.1,0.6c0,0-0.1,0-0.1,0
	c-1.7,0-2.9-0.3-4.1-0.9v0.5c0,0.8,0.1,1.6,0.2,2.3c0,0,0,0,0,0c1.4,2.2,3.9,3.5,6.1,3.2c0.3,0,0.6,0.2,0.6,0.5
	c0,0.3-0.2,0.6-0.5,0.6c-0.2,0-0.5,0-0.7,0c-1.6,0-3.2-0.6-4.6-1.7c2.1,4.2,6.6,7.3,11.9,7.6c0,0,0,0,0,0c-0.2-0.1-0.3-0.3-0.5-0.5
	c-0.8-1-1.1-2.2-0.7-3.4c0.1-0.3,0.4-0.5,0.7-0.4c0.3,0.1,0.5,0.4,0.4,0.7c-0.2,0.8-0.1,1.6,0.5,2.3c0.7,0.8,1.6,1,2.4,1
	c3-0.4,5.9-1.7,8.2-3.6c-1.6-0.2-3.2-0.9-4.3-1.9c-0.2-0.2-0.2-0.6,0-0.8c0.2-0.2,0.6-0.2,0.8,0c1.2,1.2,3.1,1.8,5,1.7
	c0.1,0,0.1,0,0.2,0c3.2-1.1,5.7-3.4,6.6-6.2c0.2-0.5,0.3-1.1,0.4-1.6c-0.5,0.5-1.2,0.9-1.9,1.2c-0.9,0.4-1.9,0.6-2.9,0.6
	c-0.6,0-1.3-0.1-1.9-0.2c-0.3-0.1-0.5-0.4-0.4-0.7C252.2,270.2,252.5,270,252.8,270"/>
<path class="st10" d="M236.5,261.5c-1.7-0.8-3.7-1-5.6-0.6c-1.9,0.4-3.5,0.8-4.5,1.9v5c1.1,0.8,2.3,1.1,4.1,1.1c1,0,2-0.2,2.7-0.5
	c0.6-0.3,1-0.7,1.3-1.1c-1.2-0.5-2.3-1.3-2.9-2.4c-0.2-0.3-0.1-0.6,0.2-0.8c0.3-0.2,0.6-0.1,0.8,0.2c0.6,0.9,1.6,1.7,2.7,2.1
	c0,0,0,0,0,0c3.2-0.2,6.2-2.5,6.8-5.1c0.2-0.7,0.2-1.4,0.2-2.2c0-0.3,0-0.6,0-0.8c0,0,0,0-0.1,0c-2.7-1.8-6.2-2.8-9.6-2.7
	c-0.3,0-0.6-0.2-0.6-0.6c0-0.3,0.2-0.6,0.6-0.6c3.5-0.1,7,0.9,9.8,2.7c0.1-0.4,0.2-0.8,0.3-1.1c0.6-1.4,1.8-2.6,2.8-3.5l0.3-0.3
	c0,0,0.1-0.1,0.1-0.1c-2.1-2.1-4.9-4.1-10.8-4.1c-0.3,0-0.6-0.3-0.6-0.6c0-0.3,0.3-0.6,0.6-0.6c6.3,0,9.3,2.1,11.6,4.4
	c0.6-0.6,1.2-1.2,1.6-1.9c0.6-1,1-2.6,0.3-3.6c-0.2-0.2-0.4-0.4-0.6-0.6c0,0-0.1,0-0.1,0c-1.2,0-2.3,0.8-2.7,1.7
	c-0.1,0.2-0.3,0.4-0.5,0.4c-0.1,0-0.1,0-0.2,0c-0.3-0.1-0.4-0.5-0.3-0.7c0.5-1.1,1.6-2,2.9-2.3c-2.1-2-4.7-3.5-7.6-4.4
	c-3.4-1-6.8-1-9.3,0.1c-1.8,0.8-2.4,2.2-2.9,3.6c3.9-2,8.8-2.2,13.2-0.5c0.3,0.1,0.4,0.4,0.3,0.7c-0.1,0.3-0.4,0.4-0.7,0.3
	c-4.5-1.7-9.5-1.3-13.3,1c-0.4,1.3-0.7,2.7-0.7,4v2.2c3.3-0.9,6.6-1,10.2-0.1c0.3,0.1,0.5,0.4,0.4,0.7c-0.1,0.3-0.4,0.5-0.7,0.4
	c-3.4-0.8-6.7-0.8-9.9,0.2v8.9c1.2-0.8,2.7-1.2,4.3-1.5c2.1-0.4,4.4-0.1,6.3,0.7c0.3,0.1,0.4,0.5,0.3,0.8S236.8,261.6,236.5,261.5"
	/>
<path class="st10" d="M215.1,251c3.5-0.9,6.9-0.8,10.2,0.1v-2.2c0-1.3-0.3-2.7-0.7-4c-3.7-2.4-8.8-2.8-13.3-1
	c-0.3,0.1-0.6,0-0.7-0.3c-0.1-0.3,0-0.6,0.3-0.7c4.4-1.7,9.3-1.5,13.2,0.5c-0.4-1.4-1.1-2.8-2.8-3.6c-1.3-0.6-2.9-0.9-4.5-0.9
	c-1.5,0-3.2,0.3-4.8,0.8c-2.9,0.9-5.5,2.4-7.6,4.4c1.3,0.3,2.5,1.2,2.9,2.3c0.1,0.3,0,0.6-0.3,0.7c-0.1,0-0.1,0-0.2,0
	c-0.2,0-0.4-0.1-0.5-0.4c-0.4-0.9-1.5-1.6-2.7-1.7c0,0-0.1,0-0.1,0c-0.2,0.2-0.4,0.4-0.6,0.6c-0.6,1-0.3,2.6,0.3,3.6
	c0.4,0.7,1,1.3,1.6,1.9c2.3-2.3,5.3-4.4,11.6-4.4c0.3,0,0.6,0.3,0.6,0.6c0,0.3-0.3,0.6-0.6,0.6c-5.9,0-8.7,1.9-10.8,4.1
	c0,0,0.1,0,0.1,0.1l0.3,0.3c1.1,1,2.3,2.1,2.8,3.5c0.2,0.4,0.2,0.8,0.3,1.1c2.8-1.8,6.3-2.7,9.8-2.7c0.3,0,0.6,0.3,0.6,0.6
	c0,0.3-0.3,0.5-0.6,0.6c-3.4-0.1-6.9,0.9-9.6,2.7c0,0,0,0-0.1,0c0,0.3,0,0.6,0,0.8c0,0.8,0.1,1.5,0.2,2.2c0.6,2.6,3.6,4.9,6.8,5.1
	c0,0,0,0,0,0c1.1-0.4,2.1-1.1,2.7-2.1c0.2-0.3,0.5-0.3,0.8-0.2c0.3,0.2,0.3,0.5,0.2,0.8c-0.7,1-1.7,1.9-2.9,2.4
	c0.3,0.4,0.7,0.8,1.3,1.1c0.7,0.4,1.7,0.5,2.7,0.5c1.8,0,3-0.3,4.1-1.1v-5c-1.1-1.1-2.6-1.5-4.5-1.9c-1.9-0.4-3.9-0.1-5.6,0.6
	c-0.3,0.1-0.6,0-0.8-0.3c-0.1-0.3,0-0.6,0.3-0.8c1.9-0.9,4.2-1.1,6.2-0.7c1.6,0.3,3.1,0.7,4.3,1.5v-8.9c-3.2-1-6.4-1-9.9-0.2
	c-0.3,0.1-0.6-0.1-0.7-0.4C214.6,251.4,214.8,251.1,215.1,251"/>
<path class="st10" d="M218.9,275.1c2.2,0.3,4.7-1,6.1-3.2c0,0,0,0,0,0c0.2-0.7,0.2-1.5,0.2-2.3V269c-1.1,0.6-2.4,0.9-4.1,0.9
	c0,0-0.1,0-0.1,0c-1.2,0-2.2-0.2-3.1-0.6c-0.9-0.4-1.7-1.1-2.1-1.9c-1.5-0.2-3-0.8-4.2-1.6c-0.9,1.7-2.5,3.2-4.4,4.1
	c-0.1,0-0.2,0.1-0.2,0.1c-0.2,0-0.4-0.1-0.5-0.3c-0.1-0.3,0-0.6,0.3-0.8c1.7-0.8,3.2-2.2,3.9-3.8c-1.2-1-2-2.3-2.3-3.7
	c-0.1-0.4-0.1-0.8-0.2-1.1c-2,0.1-3.8,1-4.9,2.5c-0.1,0.2-0.3,0.2-0.5,0.2c-0.1,0-0.2,0-0.3-0.1c-0.3-0.2-0.3-0.5-0.1-0.8
	c1.3-1.8,3.5-2.9,5.8-3c0,0,0-0.1,0-0.1c0-1-0.1-1.9-0.4-2.8c-0.5-1.2-1.6-2.2-2.5-3.1l-0.3-0.3c-0.5-0.5-1.1-1-1.6-1.5c0,0,0,0,0,0
	c-2.6,0.6-4.9,2.1-6.4,4c-0.1,0.2-0.3,0.2-0.5,0.2c-0.1,0-0.2,0-0.3-0.1c-0.3-0.2-0.3-0.5-0.1-0.8c1.5-2,3.8-3.6,6.5-4.3
	c-0.1-0.2-0.3-0.3-0.4-0.5c-0.6-1-1-2.4-0.8-3.6c-3.1,1.3-5.6,3.5-6.9,6.2c-1.3,2.8-1.3,6.1,0.1,8.9c1.5-1.8,3.8-3.1,6.3-3.6
	c0.3-0.1,0.6,0.1,0.7,0.4c0.1,0.3-0.1,0.6-0.4,0.7c-2.4,0.5-4.5,1.8-5.9,3.5c0.9,1.2,2,2.3,3.5,3c1.6,0.7,3.9,0.9,5.4-0.2
	c0.3-0.2,0.6-0.1,0.8,0.1c0.2,0.3,0.1,0.6-0.1,0.8c-0.6,0.5-1.3,0.7-2,0.9c-0.1,2.5,1.8,5,4.6,5.9c0.9,0.3,1.9,0.5,3,0.6
	c0.4,0.1,0.7,0.1,1.1,0.2c0,0,0.1-0.1,0.2-0.1c1.4-0.3,1.7-0.4,2.6-0.8c0.9-0.4,1.7-1.2,2-2c0.1-0.3,0.4-0.4,0.7-0.3
	c0.3,0.1,0.4,0.4,0.3,0.7c-0.4,1-1.4,2.1-2.5,2.6c-0.4,0.2-0.7,0.3-1,0.4c1.6,0.6,3.2,1.8,3.3,3.6c0,0.3-0.2,0.6-0.6,0.6h0
	c-0.3,0-0.6-0.2-0.6-0.6c0-1.3-1.7-2.4-3.3-2.8c-0.8-0.2-1.6-0.3-2.4-0.4c-0.1,0-0.2,0-0.3,0c0.4,1.2,0.2,2.5-0.6,3.5
	c-0.1,0.1-0.3,0.2-0.4,0.2c-0.1,0-0.3,0-0.4-0.1c-0.2-0.2-0.3-0.6-0.1-0.8c0.7-0.9,0.8-2.1,0.1-3c-0.5-0.1-1-0.2-1.5-0.4
	c-1-0.3-1.9-0.9-2.7-1.5c-1.1,1-2.5,1.6-4.1,1.8c0,0-0.1,0-0.1,0c-0.3,0-0.5-0.2-0.6-0.5c0-0.3,0.2-0.6,0.5-0.6
	c1.3-0.2,2.5-0.7,3.4-1.5c-1.2-1.3-1.9-2.9-1.8-4.5c-0.1,0-0.1,0-0.2,0c-1.2,0-2.3-0.3-3.2-0.7c-1.7-0.8-2.9-2.1-3.9-3.3
	c-1.1,1.3-1.7,2.8-1.9,4.5c0.4,1,1.2,1.7,2.4,2.2c1.2,0.5,2.7,0.6,4,0.3c0.3-0.1,0.6,0.1,0.7,0.4c0.1,0.3-0.1,0.6-0.4,0.7
	c-0.6,0.2-1.2,0.2-1.9,0.2c-1,0-2-0.2-2.9-0.6c-0.8-0.3-1.4-0.8-1.9-1.2c0.1,0.6,0.2,1.1,0.4,1.6c0.9,2.8,3.4,5.1,6.6,6.2
	c0.1,0,0.1,0,0.2,0c1.9,0.1,3.8-0.5,5-1.7c0.2-0.2,0.6-0.2,0.8,0c0.2,0.2,0.2,0.6,0,0.8c-1.1,1.1-2.7,1.7-4.3,1.9
	c2.3,1.9,5.2,3.2,8.2,3.6c0.7,0,1.7-0.3,2.4-1c0.6-0.7,0.8-1.5,0.5-2.3c-0.1-0.3,0.1-0.6,0.4-0.7c0.3-0.1,0.6,0.1,0.7,0.4
	c0.4,1.2,0.1,2.4-0.7,3.4c-0.1,0.2-0.3,0.3-0.5,0.5c0,0,0,0,0,0c5.3-0.3,9.9-3.4,11.9-7.6c-1.4,1.1-3,1.7-4.6,1.7
	c-0.2,0-0.5,0-0.7,0c-0.3,0-0.5-0.3-0.5-0.6C218.3,275.3,218.6,275.1,218.9,275.1"/>
<g class="st11">
	<g>
		<defs>
			<rect id="SVGID_3_" x="227.2" y="245.8" width="33.6" height="43.4"/>
		</defs>
		<clipPath id="SVGID_4_">
			<use xlink:href="#SVGID_3_"  style="overflow:visible;"/>
		</clipPath>
		<path class="st12" d="M257.7,245.8l-30.4,43.4c0.2,0,0.5,0,0.7,0h0c1.8,0,3.5-0.1,5.3-0.3l27.6-39.4
			C259.9,248.1,258.8,246.9,257.7,245.8"/>
	</g>
</g>
<g class="st11">
	<g>
		<defs>
			<rect id="SVGID_5_" x="213.6" y="239" width="41" height="50.2"/>
		</defs>
		<clipPath id="SVGID_6_">
			<use xlink:href="#SVGID_5_"  style="overflow:visible;"/>
		</clipPath>
		<path class="st13" d="M222.3,289.2l32.3-46.1c-2.1-1.7-4.4-3-6.6-4.1l-34.4,49.1C216.4,288.7,219.4,289.1,222.3,289.2"/>
	</g>
</g>
<g class="st11">
	<g>
		<defs>
			<rect id="SVGID_7_" x="187.6" y="234.2" width="39.2" height="45.2"/>
		</defs>
		<clipPath id="SVGID_8_">
			<use xlink:href="#SVGID_7_"  style="overflow:visible;"/>
		</clipPath>
		<path class="st14" d="M226.1,234.2l-0.1,0l-0.3,0c-0.1,0-0.3,0-0.8,0c-1.9,0-7.1,0.2-13.2,1.9l-24,34.3c0.3,0.6,0.6,1.3,1,1.9
			c1.6,2.6,3.9,5,6.5,7.2l31.7-45.2C226.3,234.2,226.1,234.2,226.1,234.2"/>
	</g>
</g>
<path class="st15" d="M225.3,378.3c-2.3,0.1-11.4,0.1-17.1-3.5c-3-1.9-10.2-9.7-17.1-17.8c-0.6,3.7-1.3,8-2.1,12.3
	c7.5,8.9,15.9,18.2,19.2,20.3c5.7,3.6,14.8,3.6,17.1,3.5V378.3z"/>
<polyline class="st16" points="205.8,187.6 205.8,198.7 196.9,203.8 196.9,211.7 "/>
<circle class="st17" cx="196.9" cy="214.2" r="2.4"/>
<line class="st16" x1="211.4" y1="181.1" x2="211.4" y2="191.4"/>
<polyline class="st16" points="216.1,181.1 216.1,191.4 217.7,192.6 217.7,206 "/>
<line class="st16" x1="202.2" y1="200.7" x2="202.2" y2="208"/>
<polyline class="st16" points="205.8,187.4 206.7,186.9 206.7,180.2 "/>
<circle class="st17" cx="211.4" cy="198.2" r="2.4"/>
<line class="st16" x1="196.9" y1="238.4" x2="196.9" y2="221.8"/>
<polyline class="st16" points="221.3,232.3 221.3,218.7 211.4,213.6 211.4,200.7 "/>
<polyline class="st16" points="205.8,205.6 205.8,221.4 202.2,223.7 202.2,235.8 "/>
<line class="st16" x1="211.4" y1="232.3" x2="211.4" y2="228.1"/>
<line class="st16" x1="211.4" y1="224.2" x2="211.4" y2="217.5"/>
<line class="st16" x1="217.7" y1="210.4" x2="217.7" y2="212.8"/>
<circle class="st17" cx="248.7" cy="212.8" r="2.4"/>
<circle class="st17" cx="234.9" cy="198.2" r="2.4"/>
<line class="st16" x1="234.9" y1="181.1" x2="234.9" y2="191.4"/>
<polyline class="st16" points="239.6,181.1 239.6,191.4 241.2,192.6 241.2,206 "/>
<polyline class="st16" points="244.8,234.5 244.8,218.7 234.9,213.6 234.9,200.7 "/>
<line class="st16" x1="225.5" y1="201.2" x2="225.5" y2="208.6"/>
<polyline class="st16" points="229.3,205.6 229.3,221.4 225.8,223.7 225.8,231.7 "/>
<line class="st16" x1="234.9" y1="232.3" x2="234.9" y2="228.1"/>
<line class="st16" x1="234.9" y1="224.2" x2="234.9" y2="217.5"/>
<polyline class="st16" points="229.3,187.4 230.2,186.9 230.2,180.2 "/>
<line class="st16" x1="241.2" y1="210.4" x2="241.2" y2="212.8"/>
<line class="st16" x1="220.8" y1="181.1" x2="220.8" y2="185.2"/>
<polyline class="st16" points="220.8,188.5 225.3,190.1 225.3,195.7 "/>
<polyline class="st16" points="221.3,215.1 221.3,203.8 229.3,198.7 229.3,187.6 "/>
<rect x="205.5" y="135.3" class="st5" width="2.3" height="4.1"/>
<rect x="210.2" y="135.3" class="st5" width="2.3" height="4.1"/>
<rect x="214.9" y="135.3" class="st5" width="2.3" height="4.1"/>
<rect x="219.6" y="135.3" class="st5" width="2.3" height="4.1"/>
<rect x="224.3" y="135.3" class="st5" width="2.3" height="4.1"/>
<rect x="229.1" y="135.3" class="st5" width="2.3" height="4.1"/>
<rect x="233.8" y="135.3" class="st5" width="2.3" height="4.1"/>
<rect x="238.5" y="135.3" class="st5" width="2.3" height="4.1"/>
<rect x="205.5" y="177.4" class="st5" width="2.3" height="4.1"/>
<rect x="210.2" y="177.4" class="st5" width="2.3" height="4.1"/>
<rect x="214.9" y="177.4" class="st5" width="2.3" height="4.1"/>
<rect x="219.6" y="177.4" class="st5" width="2.3" height="4.1"/>
<rect x="224.3" y="177.4" class="st5" width="2.3" height="4.1"/>
<rect x="229.1" y="177.4" class="st5" width="2.3" height="4.1"/>
<rect x="233.8" y="177.4" class="st5" width="2.3" height="4.1"/>
<rect x="238.5" y="177.4" class="st5" width="2.3" height="4.1"/>
<rect x="242.4" y="140.7" class="st5" width="4.1" height="2.3"/>
<rect x="242.4" y="145.4" class="st5" width="4.1" height="2.3"/>
<rect x="242.4" y="150.2" class="st5" width="4.1" height="2.3"/>
<rect x="242.4" y="154.9" class="st5" width="4.1" height="2.3"/>
<rect x="242.4" y="159.6" class="st5" width="4.1" height="2.3"/>
<rect x="242.4" y="164.3" class="st5" width="4.1" height="2.3"/>
<rect x="242.4" y="169" class="st5" width="4.1" height="2.3"/>
<rect x="242.4" y="173.7" class="st5" width="4.1" height="2.3"/>
<rect x="199.8" y="140.7" class="st5" width="4.1" height="2.3"/>
<rect x="199.8" y="145.4" class="st5" width="4.1" height="2.3"/>
<rect x="199.8" y="150.2" class="st5" width="4.1" height="2.3"/>
<rect x="199.8" y="154.9" class="st5" width="4.1" height="2.3"/>
<rect x="199.8" y="159.6" class="st5" width="4.1" height="2.3"/>
<rect x="199.8" y="164.3" class="st5" width="4.1" height="2.3"/>
<rect x="199.8" y="169" class="st5" width="4.1" height="2.3"/>
<rect x="199.8" y="173.7" class="st5" width="4.1" height="2.3"/>
<rect x="203.5" y="138.7" class="st15" width="39.3" height="39.3"/>
<polygon class="st2" points="211.2,141.5 206.2,146.7 206.2,175.3 240,175.3 240,141.5 "/>
<polygon class="st3" points="203.5,178 206.2,175.3 240,175.3 242.8,178 "/>
<polygon class="st3" points="242.8,138.7 240,141.5 206.2,141.5 203.5,138.7 "/>
<polygon class="st5" points="203.5,138.7 206.2,141.5 206.2,175.3 203.5,178 "/>
<rect y="2.9" class="st18" width="462" height="456.3"/>
<text transform="matrix(1 0 0 1 207.0269 163.623)"><tspan x="0" y="0" class="st1 st19 st20">C</tspan><tspan x="10.4" y="0" class="st1 st19 st20">P</tspan><tspan x="19.9" y="0" class="st1 st19 st20">U</tspan></text>
<g>
	<defs>
		<rect id="SVGID_9_" width="462" height="462"/>
	</defs>
	<clipPath id="SVGID_10_">
		<use xlink:href="#SVGID_9_"  style="overflow:visible;"/>
	</clipPath>
	<polyline class="st21" points="240.9,201.4 248.2,204.4 248.2,210.4 	"/>
	<path class="st22" d="M360.4,372.9l-9-11.2l-4.3,3.7l-0.9-5.7l-14,2.4l0.9,5.7l-5.3-2l-5,13.6l5.3,2l-4.3,3.7l9,11.2l4.3-3.7
		l0.9,5.7l14-2.4l-0.9-5.7l5.3,2l5-13.6l-5.3-2L360.4,372.9z M352.2,382.9c-2.1,5.7-8.3,8.6-13.9,6.5c-5.6-2.1-8.4-8.5-6.3-14.2
		c2.1-5.7,8.3-8.6,13.9-6.5C351.4,370.8,354.3,377.1,352.2,382.9"/>
	<path class="st23" d="M349,381.6c-1.4,3.9-5.7,5.9-9.5,4.4c-3.8-1.5-5.7-5.8-4.3-9.7c1.4-3.9,5.7-5.9,9.5-4.4
		C348.5,373.4,350.4,377.7,349,381.6"/>
	<path class="st22" d="M279.3,186.8l-7-8.7l-3.4,2.8l-0.7-4.4l-10.8,1.8l0.7,4.4l-4.1-1.6l-3.9,10.5l4.1,1.6l-3.4,2.8l7,8.7l3.4-2.8
		l0.7,4.4l10.8-1.8l-0.7-4.4l4.1,1.6l3.9-10.5l-4.1-1.6L279.3,186.8z M272.9,194.5c-1.6,4.4-6.4,6.7-10.8,5c-4.3-1.7-6.5-6.6-4.9-11
		c1.6-4.4,6.4-6.7,10.8-5C272.4,185.1,274.6,190,272.9,194.5"/>
	<path class="st23" d="M270.5,193.5c-1.1,3-4.4,4.6-7.4,3.4c-3-1.1-4.5-4.5-3.3-7.5c1.1-3,4.4-4.6,7.4-3.4
		C270.1,187.1,271.6,190.5,270.5,193.5"/>
	<path class="st23" d="M175.7,382.1l-13.3-6.4l-2.5,5.4l-3.3-4.9l-12.1,8.6l3.3,4.9l-5.8,0.5l1.3,15l5.8-0.5l-2.5,5.4l13.3,6.4
		l2.5-5.4l3.3,4.9l12.1-8.6l-3.3-4.9l5.8-0.5l-1.3-15l-5.8,0.5L175.7,382.1z M172.3,395.2c0.5,6.3-4,11.9-10.2,12.4
		c-6.2,0.5-11.6-4.1-12.1-10.5c-0.5-6.3,4-11.9,10.2-12.4C166.4,384.2,171.8,388.9,172.3,395.2"/>
	<path class="st23" d="M168.8,395.5c0.4,4.3-2.8,8.1-7,8.5c-4.2,0.4-7.9-2.8-8.3-7.2c-0.4-4.3,2.8-8.1,7-8.5
		C164.7,388,168.4,391.2,168.8,395.5"/>
	<path class="st23" d="M317.2,401.9l6.2-0.9l-1.8-13l-6.2,0.9c-0.5-1-1.1-2-1.7-3l3.8-5.1l-10.2-7.9l-3.8,5.1
		c-1.1-0.4-2.1-0.7-3.3-0.9l-0.9-6.3l-12.7,1.8l0.9,6.3c-1,0.5-2,1.1-2.9,1.8l-5-3.9l-7.7,10.5l5,3.9c-0.4,1.1-0.7,2.2-0.8,3.3
		l-6.2,0.9l1.8,13l6.2-0.9c0.5,1,1.1,2,1.7,3l-3.8,5.1l10.2,7.9l3.8-5.1c1.1,0.4,2.1,0.7,3.3,0.9l0.9,6.3l12.7-1.8l-0.9-6.3
		c1-0.5,2-1.1,2.9-1.8l5,3.9l7.7-10.5l-5-3.9C316.8,404.2,317.1,403,317.2,401.9 M298.5,411.5c-7.1,1-13.7-4.1-14.7-11.4
		c-1-7.3,4-14.1,11.1-15.1c7.1-1,13.7,4.1,14.7,11.4C310.6,403.7,305.6,410.5,298.5,411.5"/>
	<path class="st23" d="M300.5,398.4c-0.1,2.2-1.9,3.9-4,3.8c-2.1-0.1-3.8-1.9-3.7-4.1c0.1-2.2,1.9-3.9,4-3.8
		C299,394.4,300.6,396.2,300.5,398.4"/>
	<path class="st22" d="M135.8,383.2l6.2-0.3l-0.6-13.1l-6.2,0.3c-0.4-1.1-0.9-2.1-1.4-3.1l4.2-4.7l-9.5-8.8l-4.2,4.7
		c-1-0.5-2.1-0.9-3.2-1.2l-0.3-6.4l-12.8,0.6l0.3,6.4c-1.1,0.4-2.1,0.9-3,1.5l-4.6-4.3l-8.6,9.7l4.6,4.3c-0.5,1-0.8,2.1-1.1,3.2
		l-6.2,0.3l0.6,13.1l6.2-0.3c0.4,1.1,0.9,2.1,1.4,3.1l-4.2,4.7l9.5,8.8l4.2-4.7c1,0.5,2.1,0.9,3.2,1.2l0.3,6.4l12.8-0.6l-0.3-6.4
		c1.1-0.4,2.1-0.9,3-1.5l4.6,4.3l8.6-9.7l-4.6-4.3C135.1,385.4,135.5,384.4,135.8,383.2 M116.3,391c-7.2,0.3-13.3-5.4-13.6-12.8
		c-0.3-7.4,5.3-13.6,12.4-14c7.2-0.3,13.3,5.4,13.6,12.8C129,384.4,123.4,390.7,116.3,391"/>
	<path class="st23" d="M119.5,378.1c-0.3,2.2-2.2,3.7-4.3,3.4c-2.1-0.3-3.6-2.3-3.3-4.4s2.2-3.7,4.3-3.4S119.7,376,119.5,378.1"/>
	<path class="st22" d="M193,192.1l4.2-0.2l-0.4-8.9l-4.2,0.2c-0.3-0.7-0.6-1.4-1-2.1l2.8-3.2l-6.4-6l-2.9,3.2
		c-0.7-0.3-1.4-0.6-2.1-0.8l-0.2-4.3l-8.7,0.4l0.2,4.3c-0.7,0.3-1.4,0.6-2.1,1l-3.1-2.9l-5.8,6.6l3.1,2.9c-0.3,0.7-0.6,1.4-0.8,2.2
		l-4.2,0.2l0.4,8.9l4.2-0.2c0.3,0.7,0.6,1.4,1,2.1l-2.9,3.2l6.4,6l2.9-3.2c0.7,0.3,1.4,0.6,2.1,0.8l0.2,4.3l8.7-0.4l-0.2-4.3
		c0.7-0.3,1.4-0.6,2.1-1l3.1,2.9l5.8-6.6l-3.1-2.9C192.5,193.6,192.8,192.8,193,192.1 M179.7,197.3c-4.9,0.2-9-3.6-9.2-8.6
		c-0.2-5,3.6-9.2,8.4-9.5c4.9-0.2,9,3.6,9.2,8.6C188.4,192.8,184.6,197.1,179.7,197.3"/>
	<path class="st23" d="M181.9,188.6c-0.2,1.5-1.5,2.5-2.9,2.3c-1.4-0.2-2.4-1.5-2.2-3c0.2-1.5,1.5-2.5,2.9-2.3
		C181.1,185.8,182.1,187.2,181.9,188.6"/>
	<path class="st24" d="M276.8,391.9c2.2,0.8,4.7,1.6,7.4,2.4c1.5-4.8,5.5-8.5,10.6-9.3c7.1-1,13.7,4.1,14.7,11.4
		c0.2,1.6,0.1,3.2-0.2,4.7c2.6,0.6,5.1,1.3,7.6,1.9c0.1-0.3,0.2-0.7,0.2-1l6.2-0.9l-1.8-13l-6.2,0.9c-0.5-1-1.1-2-1.7-3l3.8-5.1
		l-10.2-7.9l-3.8,5.1c-1.1-0.4-2.1-0.7-3.3-0.9l-0.9-6.3l-12.7,1.8l0.9,6.3c-1,0.5-2,1.1-2.9,1.8l-5-3.9l-7.7,10.5l5,3.9
		C276.9,391.5,276.9,391.7,276.8,391.9"/>
	<path class="st22" d="M300.5,398.8c0-0.1,0-0.3,0.1-0.4c0.1-2.2-1.6-4-3.7-4.1c-1.7-0.1-3.1,1-3.7,2.5
		C295.5,397.5,298,398.1,300.5,398.8"/>
	<polygon class="st23" points="296.5,359 294.1,354.8 296.5,350.5 301.3,350.5 303.7,354.8 301.3,359 	"/>
	<polygon class="st24" points="264.6,219.8 263,216.8 264.6,213.9 268,213.9 269.7,216.8 268,219.8 	"/>
	<polygon class="st24" points="318.7,146 317,143.1 318.7,140.1 322,140.1 323.7,143.1 322,146 	"/>
	<polygon class="st24" points="168.7,140.3 167.1,137.3 168.7,134.3 172.1,134.3 173.8,137.3 172.1,140.3 	"/>
	<polygon class="st24" points="175.1,220.7 173.4,217.7 175.1,214.7 178.4,214.7 180.1,217.7 178.4,220.7 	"/>
	<polygon class="st23" points="151.1,366.4 148.7,362.2 151.1,357.9 155.9,357.9 158.3,362.2 155.9,366.4 	"/>
	<polygon class="st22" points="351.8,412.2 347.3,410.4 346.7,405.6 350.4,402.5 354.9,404.3 355.5,409.2 	"/>
	<polygon class="st22" points="96.6,418.7 92.2,416.9 91.5,412 95.2,409 99.7,410.8 100.4,415.7 	"/>
	<path class="st24" d="M142.9,401c2.4-0.6,4.9-1.2,7.4-1.9c-0.2-0.6-0.3-1.3-0.3-2c-0.5-6.3,4-11.9,10.2-12.4
		c5.4-0.5,10.3,3.1,11.7,8.3c2.8-0.9,5.3-1.8,7.4-2.6L179,387l-5.8,0.5l2.5-5.4l-13.3-6.4l-2.5,5.4l-3.3-4.9l-12.1,8.6l3.3,4.9
		l-5.8,0.5L142.9,401z"/>
	<path class="st22" d="M153.8,398.2c5.2-1.4,10.3-2.8,14.8-4.2c-1-3.6-4.3-6-8-5.7c-4.2,0.4-7.3,4.2-7,8.5
		C153.6,397.3,153.6,397.8,153.8,398.2"/>
	<path class="st23" d="M115.6,388.8c-5.8,0-10.6-4.7-10.9-10.6c-0.1-3,0.9-5.8,2.8-8c2-2.2,4.6-3.5,7.5-3.6c0.2,0,0.3,0,0.5,0
		c5.8,0,10.6,4.7,10.9,10.6c0.1,3-0.9,5.8-2.8,8c-2,2.2-4.6,3.5-7.5,3.6C116,388.8,115.8,388.8,115.6,388.8 M115.7,368.7
		c-0.1,0-0.3,0-0.4,0c-4.8,0.2-8.5,4.4-8.3,9.3c0.2,4.9,4.2,8.7,9.1,8.5c2.3-0.1,4.5-1.1,6-2.9c1.6-1.8,2.4-4,2.3-6.4
		C124.1,372.4,120.3,368.7,115.7,368.7"/>
	<ellipse class="st25" cx="110" cy="314.6" rx="2.4" ry="2.4"/>
	<line class="st25" x1="95.8" y1="354.8" x2="95.8" y2="338.2"/>
	<polyline class="st25" points="118.6,354.8 118.6,335 109,330 109,317.1 	"/>
	<polyline class="st25" points="104.5,322 104.5,337.8 101,340.1 101,347.5 	"/>
	<line class="st25" x1="109" y1="340.6" x2="109" y2="333.9"/>
	<line class="st25" x1="116.1" y1="326.8" x2="116.1" y2="329.2"/>
	<polyline class="st25" points="336.3,349.1 336.3,338.1 345,332.9 345,325 	"/>
	<ellipse class="st25" cx="345" cy="322.5" rx="2.4" ry="2.4"/>
	<line class="st25" x1="330.8" y1="355.6" x2="330.8" y2="345.3"/>
	<polyline class="st25" points="326.3,374.4 326.3,345.3 324.7,344.1 324.7,330.7 	"/>
	<line class="st25" x1="339.8" y1="336" x2="339.8" y2="328.7"/>
	<polyline class="st25" points="336.3,349.3 335.5,349.8 335.5,364.1 	"/>
	<ellipse class="st25" cx="330.8" cy="338.5" rx="2.4" ry="2.4"/>
	<line class="st25" x1="317.1" y1="335.5" x2="317.1" y2="328.1"/>
	<line class="st25" x1="321.7" y1="355.6" x2="321.7" y2="351.5"/>
	<polyline class="st25" points="321.7,348.2 317.3,346.6 317.3,341 	"/>
	<path class="st23" d="M96.5,271.8H64.4c-1.8,0-3.3,1.5-3.3,3.4v60.4c0,1.9,1.5,3.4,3.3,3.4h32.1c1.8,0,3.3-1.5,3.3-3.4v-60.4
		C99.8,273.3,98.3,271.8,96.5,271.8"/>
	<rect x="62.9" y="276.8" class="st24" width="35.1" height="53.6"/>
	<rect x="62.9" y="276.8" class="st26" width="1" height="53.6"/>
	<rect x="62.9" y="276.8" class="st24" width="35.1" height="53.6"/>
	<rect x="62.9" y="276.8" class="st27" width="1" height="53.6"/>
	<path class="st28" d="M81.7,332h-2.6c-0.4,0-0.8,0.4-0.8,0.8v2.6c0,0.4,0.4,0.8,0.8,0.8h2.6c0.4,0,0.8-0.4,0.8-0.8v-2.6
		C82.5,332.4,82.1,332,81.7,332"/>
	<path class="st29" d="M95.2,274.1c-0.3,0-0.6,0.3-0.6,0.6c0,0.3,0.3,0.6,0.6,0.6c0.3,0,0.6-0.3,0.6-0.6
		C95.8,274.3,95.5,274.1,95.2,274.1"/>
	<rect x="76.8" y="274.3" class="st28" width="7.3" height="0.8"/>
	<g class="st30">
		<g>
			<defs>
				<rect id="SVGID_11_" x="62.9" y="276.8" width="35.1" height="53.6"/>
			</defs>
			<clipPath id="SVGID_12_">
				<use xlink:href="#SVGID_11_"  style="overflow:visible;"/>
			</clipPath>
			<polygon class="st31" points="89.3,276.8 62.9,320 62.9,330.4 64.4,330.4 97.2,276.8 			"/>
			<polygon class="st31" points="78.6,330.4 98,298.7 98,289.9 73.2,330.4 			"/>
		</g>
	</g>
	<path class="st27" d="M84,315h-0.9v-2.5c0-1.5-1.2-2.7-2.6-2.7c-1.5,0-2.6,1.2-2.6,2.7v2.5h-0.9v5.6h3.6h0H84V315z M78.9,312.5
		c0-0.9,0.7-1.6,1.6-1.6c0.9,0,1.6,0.7,1.6,1.6v2.5h-3.1V312.5z"/>
	<rect x="326.8" y="206.5" class="st32" width="36.4" height="24.4"/>
	<polygon class="st23" points="326.8,206.5 345,221.6 363.2,206.5 	"/>
	<polygon class="st22" points="326.8,206.5 345,217.7 363.2,206.5 	"/>
	<rect x="355.1" y="326.7" class="st23" width="18.3" height="17.7"/>
	<rect x="347.6" y="343.8" class="st23" width="33.4" height="1.6"/>
	<path class="st22" d="M410,263.8h-91.4c-0.8,0-1.5,0.7-1.5,1.5v61.5c0,0.9,0.7,1.5,1.5,1.5H410c0.8,0,1.5-0.7,1.5-1.5v-61.5
		C411.5,264.5,410.8,263.8,410,263.8"/>
	<path class="st29" d="M400.7,323.1c-0.6,0-1.2,0.5-1.2,1.2c0,0.7,0.5,1.2,1.2,1.2s1.2-0.5,1.2-1.2
		C401.8,323.6,401.3,323.1,400.7,323.1"/>
	<rect x="320.3" y="268.1" class="st24" width="87.9" height="51.7"/>
	<rect x="320.3" y="273" class="st33" width="87.9" height="4.9"/>
	<rect x="320.3" y="310.4" class="st33" width="87.9" height="1.3"/>
	<rect x="320.3" y="314.7" class="st33" width="87.9" height="1.3"/>
	<rect x="325.6" y="283.4" class="st33" width="29.6" height="22.8"/>
	<rect x="361.9" y="283.4" class="st33" width="41" height="0.9"/>
	<rect x="361.9" y="286.4" class="st33" width="41" height="0.9"/>
	<rect x="361.9" y="289.5" class="st33" width="27.5" height="0.9"/>
	<rect x="361.9" y="292.5" class="st33" width="27.5" height="0.9"/>
	<rect x="361.9" y="295.5" class="st33" width="27.5" height="0.9"/>
	<rect x="394.3" y="289.5" class="st33" width="8.5" height="0.9"/>
	<rect x="394.3" y="292.5" class="st33" width="8.5" height="0.9"/>
	<rect x="394.3" y="295.5" class="st33" width="8.5" height="0.9"/>
	<rect x="361.9" y="298.6" class="st33" width="41" height="0.9"/>
	<rect x="361.9" y="301.6" class="st33" width="32.5" height="0.9"/>
	<rect x="361.9" y="305.4" class="st33" width="32.5" height="0.9"/>
	<g class="st34">
		<g>
			<defs>
				<rect id="SVGID_13_" x="368.9" y="268.1" width="39.3" height="51.7"/>
			</defs>
			<clipPath id="SVGID_14_">
				<use xlink:href="#SVGID_13_"  style="overflow:visible;"/>
			</clipPath>
			<polygon class="st35" points="379.5,319.8 408.2,280 408.2,268.1 406.3,268.1 368.9,319.8 			"/>
		</g>
	</g>
	<g class="st34">
		<g>
			<defs>
				<rect id="SVGID_15_" x="334.3" y="268.1" width="42.7" height="51.7"/>
			</defs>
			<clipPath id="SVGID_16_">
				<use xlink:href="#SVGID_15_"  style="overflow:visible;"/>
			</clipPath>
			<polygon class="st36" points="339.6,319.8 377,268.1 371.7,268.1 334.3,319.8 			"/>
		</g>
	</g>
	<g class="st34">
		<g>
			<defs>
				<rect id="SVGID_17_" x="320.3" y="268.1" width="41.3" height="51.7"/>
			</defs>
			<clipPath id="SVGID_18_">
				<use xlink:href="#SVGID_17_"  style="overflow:visible;"/>
			</clipPath>
			<polygon class="st37" points="361.7,268.1 351.1,268.1 320.3,310.6 320.3,319.8 324.2,319.8 			"/>
		</g>
	</g>
	<rect x="122.7" y="224.8" class="st22" width="31.2" height="20"/>
	<polygon class="st22" points="125.1,242.4 125.1,253.3 134.3,241.3 	"/>
	<rect x="132.7" y="227.8" class="st24" width="17.2" height="1.2"/>
	<rect x="141.6" y="231.8" class="st24" width="8.3" height="1.2"/>
	<rect x="141.6" y="235.8" class="st24" width="8.3" height="1.2"/>
	<rect x="132.7" y="239.7" class="st24" width="17.2" height="1.2"/>
	<rect x="102.1" y="217.8" class="st32" width="36.4" height="23.3"/>
	<polygon class="st32" points="104.9,238.4 104.9,251.1 115.6,237.1 	"/>
	<rect x="106.8" y="221.4" class="st24" width="27.1" height="1.4"/>
	<rect x="120.8" y="226" class="st24" width="13.1" height="1.4"/>
	<rect x="120.8" y="230.6" class="st24" width="13.1" height="1.4"/>
	<rect x="106.8" y="226" class="st24" width="10.3" height="1.4"/>
	<rect x="106.8" y="230.6" class="st24" width="10.3" height="1.4"/>
	<rect x="106.8" y="235.3" class="st24" width="27.1" height="1.4"/>
	<ellipse class="st25" cx="143.1" cy="281.9" rx="2.4" ry="2.4"/>
	<polyline class="st25" points="133.5,247.9 133.5,261.5 143.1,266.6 143.1,279.5 	"/>
	<polyline class="st25" points="137.8,274.9 137.8,259.1 141.3,256.8 141.3,244.8 	"/>
	<line class="st25" x1="137.8" y1="280.7" x2="137.8" y2="292.9"/>
	<line class="st25" x1="137.8" y1="298.9" x2="137.8" y2="303.2"/>
</g>
<rect class="st18" width="462" height="462"/>
</svg>
