<?xml version="1.0" encoding="utf-8"?>
<!-- Generator: Adobe Illustrator 22.1.0, SVG Export Plug-In . SVG Version: 6.00 Build 0)  -->
<svg version="1.1" id="img" xmlns="http://www.w3.org/2000/svg" xmlns:xlink="http://www.w3.org/1999/xlink" x="0px" y="0px"
	 viewBox="0 0 1401 301" style="enable-background:new 0 0 1401 301;" xml:space="preserve">
<style type="text/css">
	.st0{fill:#FFFFFF;stroke:#E8E8E8;}
	.st1{fill:#FFBF6D;}
	.st2{enable-background:new    ;}
	.st3{fill:#2C3A44;}
	.st4{fill:#004092;}
	.st5{fill:#E8E8E8;}
</style>
<rect id="矩形_18" x="0.5" y="0.5" class="st0" width="1400" height="300"/>
<rect id="矩形_22" x="1266.5" y="57.5" class="st1" width="18" height="12"/>
<g id="risk" class="st2">
	<path class="st3" d="M1182.1,67.9v0.6c-0.3,0.1-0.7,0.2-1.2,0.2c-1,0-1.5-0.3-1.6-1l-0.8-2.9c-0.4-1.4-0.9-1.7-2.4-1.7h-1.1
		c0,1.6,0,3.2,0,4.7l1.7,0.2v0.6h-4.8v-0.6l1.7-0.2c0-1.5,0-3.1,0-4.6v-0.9c0-1.6,0-3.1,0-4.7l-1.7-0.2v-0.6h4.8
		c2.6,0,4.1,1.1,4.1,3.1c0,1.4-1,2.6-2.9,3c1,0.2,1.5,0.8,1.9,2.1l0.9,2.8L1182.1,67.9z M1176.5,62.4c1.9,0,2.9-1.1,2.9-2.6
		c0-1.5-0.9-2.4-2.8-2.4h-1.6c0,1.5,0,3.1,0,4.9H1176.5z"/>
	<path class="st3" d="M1186.3,57.6c0,1.5,0,3.1,0,4.7v0.9c0,1.5,0,3.1,0,4.6l1.7,0.2v0.6h-4.8v-0.6l1.7-0.2c0-1.5,0-3.1,0-4.6v-0.9
		c0-1.6,0-3.1,0-4.7l-1.7-0.2v-0.6h4.8v0.6L1186.3,57.6z"/>
	<path class="st3" d="M1193.8,62c2.4,0.9,3.2,1.9,3.2,3.5c0,2-1.7,3.3-4,3.3c-1.3,0-2.6-0.4-3.3-0.9l0.1-2.4h0.8l0.4,2.1
		c0.6,0.4,1.2,0.5,2,0.5c1.7,0,2.9-0.8,2.9-2.3c0-1.2-0.7-1.7-2.3-2.4l-0.7-0.3c-1.8-0.7-2.9-1.7-2.9-3.4c0-2,1.7-3.1,3.8-3.1
		c1.2,0,2,0.4,2.8,0.9l-0.1,2.2h-0.8l-0.4-2c-0.5-0.3-0.9-0.4-1.5-0.4c-1.5,0-2.5,0.7-2.5,2.1c0,1.2,0.8,1.9,2,2.4L1193.8,62z"/>
	<path class="st3" d="M1209.2,67.9v0.6h-4.4v-0.6l1.5-0.2l-3-5.5l-1.9,2.3c0,0.9,0,2,0,3.2l1.7,0.2v0.6h-4.8v-0.6l1.7-0.2
		c0-1.5,0-3.1,0-4.6v-0.9c0-1.6,0-3.1,0-4.7l-1.7-0.2v-0.6h4.8v0.6l-1.7,0.2c0,1.5,0,3.1,0,4.6v1.3l4.9-6l-1.5-0.2v-0.6h4v0.6
		l-1.6,0.2l-3.1,3.7l3.6,6.5L1209.2,67.9z"/>
</g>
<g id="yield" class="st2">
	<path class="st3" d="M1305.2,65.5c0,1.6,0,2.7,0,3.9l1.8,0.2v0.6h-5.1v-0.6l1.8-0.2c0-1.1,0-2.3,0-3.8l-3.2-6.4l-1.4-0.2v-0.6h4.6
		V59l-1.7,0.2l2.6,5.6l2.6-5.6l-1.7-0.2v-0.6h4V59l-1.5,0.2L1305.2,65.5z"/>
	<path class="st3" d="M1314,59.2c0,1.5,0,3.1,0,4.7v0.9c0,1.5,0,3.1,0,4.6l1.7,0.2v0.6h-4.8v-0.6l1.7-0.2c0-1.5,0-3.1,0-4.6v-0.9
		c0-1.6,0-3.1,0-4.7l-1.7-0.2v-0.6h4.8V59L1314,59.2z"/>
	<path class="st3" d="M1326.3,67.1l-0.1,3h-8.9v-0.6l1.7-0.2c0-1.5,0-3.1,0-4.6v-0.9c0-1.6,0-3.1,0-4.7l-1.7-0.2v-0.6h8.6l0.1,3
		h-0.8l-0.4-2.3h-4.4c0,1.5,0,3.1,0,4.7h2.8l0.2-1.7h0.7v4h-0.7l-0.2-1.7h-2.8c0,1.8,0,3.3,0,4.9h4.7l0.4-2.3H1326.3z"/>
	<path class="st3" d="M1336.4,66.9l-0.1,3.2h-8.5v-0.6l1.7-0.2c0-1.5,0-3.1,0-4.6v-0.9c0-1.6,0-3.1,0-4.7l-1.7-0.2v-0.6h4.8V59
		l-1.7,0.2c0,1.5,0,3.1,0,4.7V65c0,1.3,0,2.8,0,4.4h4.2l0.5-2.5H1336.4z"/>
	<path class="st3" d="M1342.7,58.4c3.4,0,5.6,2.1,5.6,5.8c0,3.7-2.4,5.8-5.9,5.8h-4.7v-0.6l1.7-0.2c0-1.5,0-3.1,0-4.9v-0.6
		c0-1.6,0-3.2,0-4.7l-1.7-0.2v-0.6H1342.7z M1342.3,69.5c3,0,4.5-1.9,4.5-5.2c0-3.4-1.6-5.2-4.4-5.2h-1.6c0,1.5,0,3.1,0,4.8v0.6
		c0,1.8,0,3.4,0,5H1342.3z"/>
</g>
<rect id="矩形_22_拷贝" x="1138.5" y="56.5" class="st4" width="18" height="12"/>
<g id="crypto_funds" class="st2">
	<path class="st3" d="M633.3,59.5l0,3.3c-1.3,0.8-2.8,1.1-4.4,1.1c-4.4,0-7.6-3-7.6-7.7c0-4.7,3.3-7.7,7.6-7.7
		c1.4,0,2.8,0.3,4.2,1.1v3.3h-1.2l-0.7-3.1c-0.7-0.3-1.4-0.5-2.1-0.5c-3,0-5.3,2.4-5.3,6.9c0,4.5,2.2,6.8,5.3,6.8
		c0.8,0,1.5-0.1,2.3-0.5l0.7-3H633.3z"/>
	<path class="st3" d="M648.5,62.8v0.7c-0.5,0.2-1.1,0.2-1.8,0.2c-1.5,0-2.2-0.4-2.4-1.6l-0.8-3.3c-0.4-1.7-1-2.2-2.8-2.2h-1.1
		c0,2.1,0,4,0,6l2,0.2v0.7h-6.4v-0.7l2-0.2c0-1.9,0-3.9,0-5.9v-1c0-2,0-4,0-5.9l-2-0.2v-0.7h6.4c3.4,0,5.3,1.4,5.3,3.8
		c0,1.7-1.2,3.2-3.9,3.7c1.7,0.3,2.4,1.2,2.9,2.9l0.9,3.4L648.5,62.8z M641.1,55.8c2.3,0,3.4-1.4,3.4-3.2c0-1.9-1-3-3.3-3h-1.7
		c0,2,0,3.9,0,6.2H641.1z"/>
	<path class="st3" d="M655.9,57.5c0,2.2,0,3.6,0,5.1l2.2,0.2v0.7h-6.8v-0.7l2.2-0.2c0-1.4,0-2.8,0-4.8l-4-8.1l-1.5-0.2v-0.7h6.3v0.7
		l-2.1,0.2l3.2,6.9l3.2-6.9l-2-0.3v-0.7h4.9v0.7l-1.9,0.3L655.9,57.5z"/>
	<path class="st3" d="M667,57.6c0,1.6,0,3.2,0,5l2.1,0.2v0.7h-6.5v-0.7l2-0.2c0-1.9,0-3.9,0-5.9v-1c0-2,0-4,0-5.9l-2-0.2v-0.7h5.9
		c3.9,0,5.7,1.7,5.7,4.4c0,2.5-1.7,4.5-6.2,4.5H667z M667,49.6c0,2,0,4,0,6v1.1h1.2c2.7,0,3.8-1.5,3.8-3.6c0-2.3-1.2-3.5-3.7-3.5
		H667z"/>
	<path class="st3" d="M682.9,49.7c0,2,0,3.9,0,6v1c0,2,0,3.9,0,5.9l2.2,0.2v0.7h-6.8v-0.7l2.2-0.2c0.1-1.9,0.1-3.9,0.1-5.9v-1
		c0-2,0-4-0.1-6h-3.3l-0.7,3.1h-1.1l0.2-4h12.3l0.2,4h-1.1l-0.7-3.1H682.9z"/>
	<path class="st3" d="M702.8,56.2c0,4.9-3.2,7.7-6.8,7.7c-3.5,0-6.8-2.7-6.8-7.7c0-4.9,3.3-7.7,6.8-7.7
		C699.5,48.4,702.8,51.2,702.8,56.2z M696,63c2.9,0,4.2-3.2,4.2-6.8c0-3.6-1.3-6.9-4.2-6.9c-2.9,0-4.2,3.2-4.2,6.9
		C691.8,59.8,693.1,63,696,63z"/>
	<path class="st3" d="M714.2,49.7c0,1.9,0,3.9,0,5.9h3.3l0.3-2.2h0.9v5.3h-0.9l-0.3-2.3h-3.3c0,2.2,0,4.2,0,6.2l2.1,0.2v0.7h-6.5
		v-0.7l2-0.2c0-1.9,0-3.9,0-5.9v-1c0-2,0-4,0-5.9l-2-0.2v-0.7h11l0.1,3.9h-1.1l-0.6-3H714.2z"/>
	<path class="st3" d="M737.1,49.5l-2,0.3l0,7.7c0,4.5-2.1,6.4-5.2,6.4c-3.3,0-5.5-1.7-5.5-6v-2.3c0-1.9,0-3.9-0.1-5.9l-1.8-0.2v-0.7
		h6.4v0.7l-2.1,0.2c0,1.9,0,3.9,0,5.8v1.8c0,3.8,1.4,5,3.7,5c2.5,0,3.8-1.5,3.8-5.3l0-7.3l-2.3-0.3v-0.7h5.3V49.5z"/>
	<path class="st3" d="M752.9,49.5l-1.8,0.3L751,63.7h-1l-8.9-12.4l0.1,11.2l2.4,0.3v0.7h-5.3v-0.7l1.8-0.3l0.1-12.5l-0.3-0.4
		l-1.5-0.2v-0.7h3.7l8,11.1l0-10.1l-2.5-0.3v-0.7h5.3V49.5z"/>
	<path class="st3" d="M760.9,48.8c4.4,0,7.3,2.7,7.3,7.4c0,4.7-3.1,7.4-7.7,7.4h-6v-0.7l2-0.2c0-1.9,0-4,0-6.2v-0.7c0-2,0-4,0-6
		l-2-0.2v-0.7H760.9z M760.4,62.7c3.4,0,5.3-2.4,5.3-6.5c0-4.3-1.9-6.6-5.1-6.6h-1.7c0,2,0,4,0,6.1v0.7c0,2.2,0,4.3,0,6.3H760.4z"/>
	<path class="st3" d="M775.8,55.1c3,1.2,4.1,2.4,4.1,4.5c0,2.6-2.1,4.2-5.3,4.2c-1.7,0-3.3-0.5-4.3-1.2l0.1-3.2h1.1l0.7,2.9
		c0.7,0.4,1.3,0.5,2.3,0.5c2.1,0,3.4-1,3.4-2.7c0-1.4-0.7-2.1-2.6-2.9l-0.9-0.4c-2.4-1-3.8-2.3-3.8-4.5c0-2.6,2.1-4.1,5-4.1
		c1.5,0,2.7,0.4,3.7,1.2l-0.1,3h-1.1l-0.7-2.8c-0.5-0.3-1-0.4-1.7-0.4c-1.8,0-3,0.9-3,2.5c0,1.4,0.9,2.2,2.4,2.8L775.8,55.1z"/>
</g>
<g id="traditional_funds" class="st2">
	<path class="st3" d="M64,223.7c-0.4,0.6-1.2,1-2.1,1c-1.3,0-2.1-0.7-2.1-2.2c0-0.5,0-0.9,0-1.6v-4.2h-1.5v-0.6l1.6-0.2l0.5-2.4h1.2
		l-0.1,2.5h2.3v0.7h-2.3v5.8c0,0.9,0.4,1.3,1,1.3c0.4,0,0.7-0.2,1.2-0.5L64,223.7z"/>
	<path class="st3" d="M67.7,218.1c0.5-1.5,1.6-2.4,2.6-2.4c0.6,0,1.2,0.2,1.3,0.8c0,0.7-0.3,1.2-1,1.2c-0.5,0-0.8-0.3-1.2-0.6
		l-0.2-0.2c-0.7,0.5-1.2,1.3-1.5,2.4v1.3c0,0.8,0,2.1,0,3l1.5,0.2v0.5h-4.5v-0.5l1.2-0.2c0-0.9,0-2.2,0-3v-1c0-1,0-1.6-0.1-2.4
		l-1.3-0.1v-0.5l2.7-0.9l0.2,0.2L67.7,218.1z"/>
	<path class="st3" d="M80.4,223.7c-0.4,0.7-0.9,1-1.6,1c-0.9,0-1.5-0.5-1.6-1.4c-0.9,0.9-1.6,1.4-2.7,1.4c-1.3,0-2.3-0.8-2.3-2.1
		c0-1.2,0.7-2,3-2.8c0.5-0.2,1.2-0.4,1.9-0.5v-0.7c0-1.7-0.5-2.2-1.7-2.2c-0.3,0-0.6,0-0.9,0.1l-0.3,1.2c-0.1,0.7-0.5,1-1,1
		c-0.5,0-0.8-0.2-0.8-0.7c0.3-1.4,1.6-2.2,3.5-2.2c2,0,2.8,0.9,2.8,3.1v3.9c0,0.8,0.2,1.1,0.6,1.1c0.3,0,0.5-0.1,0.7-0.4L80.4,223.7
		z M77.1,219.7c-0.6,0.2-1.1,0.3-1.5,0.5c-1.4,0.6-1.8,1.3-1.8,2.1c0,0.9,0.6,1.4,1.4,1.4c0.6,0,1-0.2,1.9-0.9V219.7z"/>
	<path class="st3" d="M90.3,223.9v0.5l-2.9,0.2l-0.1-1.1c-0.6,0.8-1.4,1.2-2.5,1.2c-2.1,0-3.6-1.7-3.6-4.4c0-2.8,1.6-4.5,3.8-4.5
		c0.9,0,1.6,0.3,2.3,1.1v-4.2l-1.4-0.1v-0.5l2.9-0.7l0.2,0.1L89,214v9.8L90.3,223.9z M87.3,217.5c-0.7-0.6-1.2-0.8-1.8-0.8
		c-1.3,0-2.5,1-2.5,3.5c0,2.5,1,3.5,2.4,3.5c0.7,0,1.2-0.2,1.8-0.8V217.5z"/>
	<path class="st3" d="M95.5,223.9v0.5h-4.2v-0.5l1.2-0.2c0-0.9,0-2.2,0-3v-1c0-1,0-1.6,0-2.4l-1.4-0.1v-0.5l2.9-0.9l0.2,0.2l0,2.4
		v2.4c0,0.8,0,2.1,0,3L95.5,223.9z M92.2,212.7c0-0.7,0.5-1.1,1.2-1.1c0.6,0,1.2,0.4,1.2,1.1s-0.5,1.1-1.2,1.1
		C92.8,213.8,92.2,213.4,92.2,212.7z"/>
	<path class="st3" d="M101.9,223.7c-0.4,0.6-1.2,1-2.1,1c-1.3,0-2.1-0.7-2.1-2.2c0-0.5,0-0.9,0-1.6v-4.2h-1.5v-0.6l1.6-0.2l0.5-2.4
		h1.2l-0.1,2.5h2.3v0.7h-2.3v5.8c0,0.9,0.4,1.3,1,1.3c0.4,0,0.7-0.2,1.2-0.5L101.9,223.7z"/>
	<path class="st3" d="M106.8,223.9v0.5h-4.2v-0.5l1.2-0.2c0-0.9,0-2.2,0-3v-1c0-1,0-1.6,0-2.4l-1.4-0.1v-0.5l2.9-0.9l0.2,0.2l0,2.4
		v2.4c0,0.8,0,2.1,0,3L106.8,223.9z M103.5,212.7c0-0.7,0.5-1.1,1.2-1.1c0.6,0,1.2,0.4,1.2,1.1s-0.5,1.1-1.2,1.1
		C104.1,213.8,103.5,213.4,103.5,212.7z"/>
	<path class="st3" d="M108.1,220.2c0-2.9,2-4.4,4.2-4.4c2.1,0,4.1,1.6,4.1,4.4c0,2.9-1.9,4.5-4.1,4.5
		C110,224.7,108.1,223.1,108.1,220.2z M114.5,220.2c0-2.5-0.9-3.8-2.3-3.8c-1.5,0-2.3,1.3-2.3,3.8c0,2.5,0.8,3.8,2.3,3.8
		C113.7,224,114.5,222.7,114.5,220.2z"/>
	<path class="st3" d="M127.4,223.9v0.5h-4.2v-0.5l1.2-0.2c0-0.9,0-2.1,0-3v-1.8c0-1.5-0.4-2-1.4-2c-0.7,0-1.4,0.3-2.3,1.1v2.7
		c0,0.8,0,2.1,0,3l1.2,0.2v0.5h-4.2v-0.5l1.2-0.2c0-0.9,0-2.2,0-3v-1c0-1,0-1.6-0.1-2.4l-1.3-0.1v-0.5l2.7-0.9l0.2,0.2l0.1,1.4
		c1-1.1,2-1.6,3.1-1.6c1.5,0,2.3,0.9,2.3,3.1v1.8c0,0.9,0,2.1,0,3L127.4,223.9z"/>
	<path class="st3" d="M136.9,223.7c-0.4,0.7-0.9,1-1.6,1c-0.9,0-1.5-0.5-1.6-1.4c-0.9,0.9-1.6,1.4-2.7,1.4c-1.3,0-2.3-0.8-2.3-2.1
		c0-1.2,0.7-2,3-2.8c0.5-0.2,1.2-0.4,1.9-0.5v-0.7c0-1.7-0.5-2.2-1.7-2.2c-0.3,0-0.6,0-0.9,0.1l-0.3,1.2c-0.1,0.7-0.5,1-1,1
		c-0.5,0-0.8-0.2-0.8-0.7c0.3-1.4,1.6-2.2,3.5-2.2c2,0,2.8,0.9,2.8,3.1v3.9c0,0.8,0.2,1.1,0.6,1.1c0.3,0,0.5-0.1,0.7-0.4
		L136.9,223.7z M133.6,219.7c-0.6,0.2-1.1,0.3-1.5,0.5c-1.4,0.6-1.8,1.3-1.8,2.1c0,0.9,0.6,1.4,1.4,1.4c0.6,0,1-0.2,1.9-0.9V219.7z"
		/>
	<path class="st3" d="M141.9,223.9v0.5h-4.4v-0.5l1.3-0.2c0-1,0-2,0-3v-8l-1.4-0.1v-0.5l2.9-0.7l0.2,0.1l-0.1,2.5v6.7c0,1,0,2,0,3
		L141.9,223.9z"/>
	<path class="st3" d="M148.4,216c0.1-1.9,0.6-2.9,1.3-3.7c0.8-0.8,1.7-1.1,2.5-1.1c0.8,0,1.6,0.3,1.8,1c0,0.5-0.4,0.8-1,0.8
		c-0.5,0-0.9-0.2-1.3-0.7l-0.4-0.4c-0.2,0.1-0.4,0.3-0.6,0.6c-0.4,0.7-0.7,1.7-0.6,3.6h2.4v0.7h-2.3v4c0,1,0,2,0,3l1.6,0.2v0.5H147
		v-0.5l1.3-0.2c0-1,0-2,0-3v-4H147v-0.6L148.4,216z"/>
	<path class="st3" d="M162.5,223.9v0.5l-2.7,0.2l-0.1-1.6c-0.8,1-1.9,1.7-3.1,1.7c-1.5,0-2.4-0.8-2.4-3.2l0-4.5l-1.2-0.2v-0.5
		l2.8-0.3l0.2,0.2l-0.1,2.5v2.9c0,1.5,0.5,2,1.4,2c0.8,0,1.6-0.4,2.3-1.1l0-5.5l-1.2-0.2v-0.5l2.8-0.3l0.2,0.2l0,2.5v5.2
		L162.5,223.9z"/>
	<path class="st3" d="M173.4,223.9v0.5h-4.2v-0.5l1.2-0.2c0-0.9,0-2.1,0-3v-1.8c0-1.5-0.4-2-1.4-2c-0.7,0-1.4,0.3-2.3,1.1v2.7
		c0,0.8,0,2.1,0,3l1.2,0.2v0.5h-4.2v-0.5l1.2-0.2c0-0.9,0-2.2,0-3v-1c0-1,0-1.6-0.1-2.4l-1.3-0.1v-0.5l2.7-0.9l0.2,0.2l0.1,1.4
		c1-1.1,2-1.6,3.1-1.6c1.5,0,2.3,0.9,2.3,3.1v1.8c0,0.9,0,2.1,0,3L173.4,223.9z"/>
	<path class="st3" d="M183.7,223.9v0.5l-2.9,0.2l-0.1-1.1c-0.6,0.8-1.4,1.2-2.5,1.2c-2.1,0-3.6-1.7-3.6-4.4c0-2.8,1.6-4.5,3.8-4.5
		c0.9,0,1.6,0.3,2.3,1.1v-4.2l-1.4-0.1v-0.5l2.9-0.7l0.2,0.1l-0.1,2.5v9.8L183.7,223.9z M180.6,217.5c-0.7-0.6-1.2-0.8-1.8-0.8
		c-1.3,0-2.5,1-2.5,3.5c0,2.5,1,3.5,2.4,3.5c0.7,0,1.2-0.2,1.8-0.8V217.5z"/>
	<path class="st3" d="M188.8,219.5c1.7,0.6,2.4,1.4,2.4,2.6c0,1.5-1.2,2.6-3.5,2.6c-1.1,0-1.9-0.2-2.8-0.7v-2h0.9l0.4,1.7
		c0.4,0.2,0.9,0.3,1.4,0.3c1.3,0,2-0.5,2-1.4c0-0.7-0.4-1.2-1.6-1.6l-0.8-0.3c-1.3-0.5-2.2-1.2-2.2-2.4c0-1.4,1.2-2.6,3.2-2.6
		c1,0,1.7,0.2,2.5,0.7l-0.1,1.8h-0.8l-0.4-1.6c-0.4-0.2-0.8-0.3-1.3-0.3c-1.1,0-1.7,0.5-1.7,1.3c0,0.8,0.4,1.1,1.6,1.5L188.8,219.5z
		"/>
</g>
<rect id="矩形_19" x="212.5" y="96.5" class="st5" width="1" height="164"/>
<rect id="矩形_19_拷贝" x="414.5" y="96.5" class="st5" width="1" height="164"/>
<rect id="矩形_19_拷贝_2" x="616.5" y="96.5" class="st5" width="1" height="164"/>
<rect id="矩形_19_拷贝_2-2" x="818.5" y="96.5" class="st5" width="1" height="164"/>
<rect id="矩形_19_拷贝_3" x="1020.5" y="96.5" class="st5" width="1" height="164"/>
<rect id="矩形_19_拷贝_3-2" x="1222.5" y="96.5" class="st5" width="1" height="164"/>
<rect id="矩形_21" x="212.5" y="259.5" class="st5" width="1120" height="1"/>
<rect id="矩形_20" x="213.5" y="218.5" class="st4" width="762" height="18"/>
<rect id="矩形_20_拷贝" x="213.5" y="200.5" class="st1" width="422" height="18"/>
<rect id="矩形_20_拷贝_2" x="213.5" y="142.5" class="st4" width="528" height="18"/>
<rect id="矩形_20_拷贝_2-2" x="213.5" y="124.5" class="st1" width="920" height="18"/>
<g id="crypto_funds-2" class="st2">
	<path class="st3" d="M65.8,146.6c-0.6,1.3-1.7,2.1-3.4,2.1c-2.4,0-4.1-1.7-4.1-4.4c0-2.8,2-4.5,4.3-4.5c1.6,0,2.9,1,3.1,2.3
		c-0.1,0.5-0.4,0.7-0.8,0.7c-0.6,0-0.9-0.3-1-1l-0.3-1.2c-0.3-0.1-0.6-0.1-0.8-0.1c-1.6,0-2.6,1.3-2.6,3.7c0,2.3,1.2,3.6,2.9,3.6
		c1,0,1.8-0.4,2.4-1.2L65.8,146.6z"/>
	<path class="st3" d="M70,142.1c0.5-1.5,1.6-2.4,2.6-2.4c0.6,0,1.2,0.2,1.3,0.8c0,0.7-0.3,1.2-1,1.2c-0.5,0-0.8-0.3-1.2-0.6
		l-0.2-0.2c-0.7,0.5-1.2,1.3-1.5,2.4v1.3c0,0.8,0,2.1,0,3l1.5,0.2v0.5h-4.5v-0.5l1.2-0.2c0-0.9,0-2.2,0-3v-1c0-1,0-1.6-0.1-2.4
		l-1.3-0.1v-0.5l2.7-0.9l0.2,0.2L70,142.1z"/>
	<path class="st3" d="M83.4,140.5l-1,0.2l-3.1,8.2c-1.1,2.9-2.3,3.9-3.5,3.9c-0.8,0-1.6-0.5-1.6-1.1c0.1-0.5,0.7-0.8,1.2-0.8
		c0.5,0,0.9,0.3,1.3,0.7l0.2,0.2c0.8-0.6,1.3-1.5,1.7-2.6l0-0.1l-3.4-8.4l-1-0.1V140h4.3v0.5l-1.4,0.1l2.3,6.3l2.2-6.3l-1.6-0.2V140
		h3.4V140.5z"/>
	<path class="st3" d="M86.9,141.1c0.8-0.9,1.7-1.3,2.7-1.3c1.9,0,3.4,1.6,3.4,4.4c0,2.8-1.6,4.5-3.7,4.5c-0.8,0-1.6-0.3-2.4-1.2v1.3
		c0,0.9,0,2,0,3.1l1.5,0.2v0.5H84v-0.5l1.3-0.2c0-1.1,0-2.1,0-3.1v-5.1c0-1,0-1.6-0.1-2.4l-1.3-0.1v-0.5l2.7-0.9l0.2,0.2L86.9,141.1
		z M87,147c0.6,0.5,1.2,0.8,1.8,0.8c1.3,0,2.4-1,2.4-3.5c0-2.4-0.9-3.6-2.2-3.6c-0.5,0-1.1,0.1-2,0.9V147z"/>
	<path class="st3" d="M99.5,147.7c-0.4,0.6-1.2,1-2.1,1c-1.3,0-2.1-0.7-2.1-2.2c0-0.5,0-0.9,0-1.6v-4.2h-1.5v-0.6l1.6-0.2l0.5-2.4
		h1.2L97,140h2.3v0.7H97v5.8c0,0.9,0.4,1.3,1,1.3c0.4,0,0.7-0.2,1.2-0.5L99.5,147.7z"/>
	<path class="st3" d="M100.3,144.2c0-2.9,2-4.4,4.2-4.4c2.1,0,4.1,1.6,4.1,4.4c0,2.9-1.9,4.5-4.1,4.5
		C102.3,148.7,100.3,147.1,100.3,144.2z M106.8,144.2c0-2.5-0.9-3.8-2.3-3.8c-1.5,0-2.3,1.3-2.3,3.8c0,2.5,0.8,3.8,2.3,3.8
		C105.9,148,106.8,146.8,106.8,144.2z"/>
	<path class="st3" d="M115.4,140c0.1-1.9,0.6-2.9,1.3-3.7c0.8-0.8,1.7-1.1,2.5-1.1c0.8,0,1.6,0.3,1.8,1c0,0.5-0.4,0.8-1,0.8
		c-0.5,0-0.9-0.2-1.3-0.7l-0.4-0.4c-0.2,0.1-0.4,0.3-0.6,0.6c-0.4,0.7-0.7,1.7-0.6,3.6h2.4v0.7h-2.3v4c0,1,0,2,0,3l1.6,0.2v0.5H114
		v-0.5l1.3-0.2c0-1,0-2,0-3v-4H114v-0.6L115.4,140z"/>
	<path class="st3" d="M129.5,147.9v0.5l-2.7,0.2l-0.1-1.6c-0.8,1-1.9,1.7-3.1,1.7c-1.5,0-2.4-0.8-2.4-3.2l0-4.5l-1.2-0.2v-0.5
		l2.8-0.3l0.2,0.2l-0.1,2.5v2.9c0,1.5,0.5,2,1.4,2c0.8,0,1.6-0.4,2.3-1.1l0-5.5l-1.2-0.2v-0.5l2.8-0.3l0.2,0.2l0,2.5v5.2
		L129.5,147.9z"/>
	<path class="st3" d="M140.3,147.9v0.5h-4.2v-0.5l1.2-0.2c0-0.9,0-2.1,0-3v-1.8c0-1.5-0.4-2-1.4-2c-0.7,0-1.4,0.3-2.3,1.1v2.7
		c0,0.8,0,2.1,0,3l1.2,0.2v0.5h-4.2v-0.5l1.2-0.2c0-0.9,0-2.2,0-3v-1c0-1,0-1.6-0.1-2.4l-1.3-0.1v-0.5l2.7-0.9l0.2,0.2l0.1,1.4
		c1-1.1,2-1.6,3.1-1.6c1.5,0,2.3,0.9,2.3,3.1v1.8c0,0.9,0,2.1,0,3L140.3,147.9z"/>
	<path class="st3" d="M150.7,147.9v0.5l-2.9,0.2l-0.1-1.1c-0.6,0.8-1.4,1.2-2.5,1.2c-2.1,0-3.6-1.7-3.6-4.4c0-2.8,1.6-4.5,3.8-4.5
		c0.9,0,1.6,0.3,2.3,1.1v-4.2l-1.4-0.1v-0.5l2.9-0.7l0.2,0.1l-0.1,2.5v9.8L150.7,147.9z M147.6,141.5c-0.7-0.6-1.2-0.8-1.8-0.8
		c-1.3,0-2.5,1-2.5,3.5c0,2.5,1,3.5,2.4,3.5c0.7,0,1.2-0.2,1.8-0.8V141.5z"/>
	<path class="st3" d="M155.7,143.5c1.7,0.6,2.4,1.4,2.4,2.6c0,1.5-1.2,2.6-3.5,2.6c-1.1,0-1.9-0.2-2.8-0.7v-2h0.9l0.4,1.7
		c0.4,0.2,0.9,0.3,1.4,0.3c1.3,0,2-0.5,2-1.4c0-0.7-0.4-1.2-1.6-1.6l-0.8-0.3c-1.3-0.5-2.2-1.2-2.2-2.4c0-1.4,1.2-2.6,3.2-2.6
		c1,0,1.7,0.2,2.5,0.7l-0.1,1.8h-0.8l-0.4-1.6c-0.4-0.2-0.8-0.3-1.3-0.3c-1.1,0-1.7,0.5-1.7,1.3c0,0.8,0.4,1.1,1.6,1.5L155.7,143.5z
		"/>
</g>
</svg>
