<?xml version="1.0" encoding="utf-8"?>
<!-- Generator: Adobe Illustrator 22.1.0, SVG Export Plug-In . SVG Version: 6.00 Build 0)  -->
<svg version="1.1" id="img" xmlns="http://www.w3.org/2000/svg" xmlns:xlink="http://www.w3.org/1999/xlink" x="0px" y="0px"
	 viewBox="0 0 1401 301" style="enable-background:new 0 0 1401 301;" xml:space="preserve">
<style type="text/css">
	.st0{fill:#FFFFFF;stroke:#E8E8E8;}
	.st1{fill:#FFBF6D;}
	.st2{enable-background:new    ;}
	.st3{fill:#2C3A44;}
	.st4{fill:#004092;}
	.st5{fill:#E8E8E8;}
</style>
<rect id="矩形_18" x="0.5" y="0.5" class="st0" width="1400" height="300"/>
<rect id="矩形_22" x="1266.5" y="57.5" class="st1" width="18" height="12"/>
<g id="风险" class="st2">
	<path class="st3" d="M1186.2,68.5c0.3,0.5,0.4,0.9,0.2,1.1c-0.4,0.4-1,0.1-1.6-0.4c-2.2-1.8-2.3-7.4-2.3-12.6h-7.8v5.2
		c0,2.9-0.2,6-2.9,8.1l-0.2-0.2c1.9-2.1,2.1-4.9,2.1-7.9v-6.2l1.2,0.5h7.5l0.7-0.7l1.3,1.1c-0.1,0.1-0.3,0.2-0.7,0.3
		c-0.2,4-0.1,9.7,1.7,11c0.2,0.2,0.3,0.1,0.3-0.1c0.2-0.6,0.4-1.2,0.5-1.8l0.2,0L1186.2,68.5z M1176,58.7c1.2,1,2.2,2,3,2.8
		c0.6-1.2,1.1-2.4,1.5-3.7l1.5,0.5c-0.1,0.2-0.3,0.3-0.6,0.3c-0.5,1.3-1,2.5-1.7,3.6c2.7,3.3,2.2,5.2,1.1,4.4
		c-0.3-1-0.9-2.2-1.7-3.4c-1.2,1.9-2.6,3.4-4.2,4.6l-0.2-0.2c1.4-1.3,2.7-3.1,3.9-5.2c-0.9-1.3-1.9-2.6-2.8-3.6L1176,58.7z"/>
	<path class="st3" d="M1193.4,56.6c-0.1,0.1-0.4,0.2-0.7,0.2c-0.5,1-1.4,2.9-2,3.8c1.6,1.3,2.2,2.6,2.2,3.9c0,1.6-0.5,2.2-2.1,2.3
		c0-0.3-0.1-0.7-0.2-0.8c-0.1-0.1-0.4-0.2-0.8-0.3v-0.3h1.2c0.2,0,0.3,0,0.4-0.1c0.3-0.1,0.4-0.5,0.4-1.1c0-1.2-0.4-2.4-1.5-3.6
		c0.4-1,0.9-2.9,1.3-4.1h-2.1v12.9c0,0.1-0.3,0.4-0.8,0.4h-0.2V55.5l1.2,0.5h1.9l0.7-0.7L1193.4,56.6z M1200.8,67.7
		c0,0,0.8,0.6,1.3,1.1c0,0.2-0.2,0.3-0.4,0.3h-9.7l-0.1-0.5h6.1c0.5-1.7,1.2-4.2,1.7-6.3l1.6,0.5c-0.1,0.2-0.2,0.3-0.6,0.3
		c-0.7,1.8-1.5,3.9-2.4,5.4h1.9L1200.8,67.7z M1197.3,55.8c0.9,2.1,3.1,3.9,5.1,4.8l0,0.2c-0.4,0.1-0.8,0.3-0.9,0.7
		c-1.9-1.1-3.5-3.1-4.4-5.3c-1.1,1.9-2.8,3.9-4.9,5.2l-0.2-0.2c2-1.6,3.6-4.2,4.3-6.2l1.7,0.5C1197.9,55.6,1197.7,55.7,1197.3,55.8
		L1197.3,55.8z M1193.6,62.6c2.6,3,1.7,5.5,0.7,4.5c0-1.4-0.5-3.2-1-4.4L1193.6,62.6z M1199,60.4c0,0,0.7,0.6,1.1,1
		c0,0.2-0.2,0.3-0.4,0.3h-5.8l-0.1-0.5h4.5L1199,60.4z M1196,62.3c2.5,3,1.6,5.4,0.7,4.4c0-1.4-0.5-3.2-0.9-4.4L1196,62.3z"/>
</g>
<g id="收益" class="st2">
	<path class="st3" d="M1307.4,56.9c0,0.2-0.2,0.4-0.5,0.4v13.6c0,0.2-0.4,0.4-0.8,0.4h-0.2v-5.1c-0.8,0.4-1.8,1-2.9,1.5
		c-0.1,0.2-0.3,0.3-0.4,0.3l-0.6-1.2c0.5-0.2,0.5-0.3,0.5-0.6v-7.9l1.6,0.2c0,0.2-0.2,0.4-0.6,0.4v7.5c0.7-0.2,1.5-0.4,2.3-0.7v-9.1
		L1307.4,56.9z M1314.8,60.8c-0.4,2.6-1.1,4.8-2.4,6.6c1.1,1.2,2.4,2.3,4.2,3l0,0.2c-0.5,0.1-0.9,0.3-1,0.8
		c-1.6-0.8-2.8-1.9-3.8-3.2c-1.1,1.3-2.6,2.4-4.5,3.2l-0.2-0.2c1.8-1.1,3.2-2.3,4.2-3.8c-0.9-1.5-1.5-3.3-1.9-5.3
		c-0.5,1.2-1.2,2.2-1.9,3l-0.2-0.1c1.1-2.1,2.1-5.2,2.5-8.3l1.7,0.4c0,0.2-0.2,0.4-0.6,0.4c-0.2,1-0.5,2-0.8,2.9h4.2l0.8-0.9
		c0,0,0.8,0.7,1.4,1.2c0,0.2-0.2,0.3-0.4,0.3H1314.8z M1310,60.8c-0.1,0.3-0.2,0.6-0.3,0.8c0.4,1.9,1.1,3.6,2.1,5
		c1-1.7,1.6-3.7,1.8-5.8H1310z"/>
	<path class="st3" d="M1331.2,69.3c0,0,0.8,0.7,1.3,1.2c0,0.2-0.2,0.3-0.4,0.3h-14.2l-0.1-0.5h2.4v-5.3l1.2,0.5h7.2l0.6-0.7l1.4,1
		c-0.1,0.2-0.3,0.3-0.7,0.3v4.2h0.6L1331.2,69.3z M1318.2,60.7l-0.1-0.5h8.1c0.7-1,1.4-2.5,1.8-3.5l1.6,0.7
		c-0.1,0.2-0.3,0.3-0.6,0.2c-0.6,0.8-1.5,1.8-2.4,2.6h3.2l0.8-1c0,0,0.9,0.7,1.4,1.2c0,0.2-0.2,0.3-0.4,0.3H1318.2z M1324,61.8
		c-0.1,0.2-0.3,0.3-0.7,0.3c-1.1,1.2-3.1,2.6-5.1,3.4l-0.2-0.2c1.7-1,3.5-2.9,4.3-4.1L1324,61.8z M1320.8,56.7
		c3.7,1.5,2.9,4,1.7,3.1c-0.2-1-1.1-2.3-1.9-3L1320.8,56.7z M1321.2,70.3h2v-4.4h-2V70.3z M1324.1,65.9v4.4h1.8v-4.4H1324.1z
		 M1326.5,61.4c5.7,1.7,5.5,4.3,4.1,3.8c-0.8-1.1-2.8-2.7-4.3-3.6L1326.5,61.4z M1326.9,65.9v4.4h1.8v-4.4H1326.9z"/>
</g>
<rect id="矩形_22_拷贝" x="1138.5" y="56.5" class="st4" width="18" height="12"/>
<g id="数字货币基金" class="st2">
	<path class="st3" d="M650.8,58.2c-0.1,0.2-0.3,0.2-0.8,0.3c-0.4,1.2-1,2.2-1.8,3c2.2,1.1,1.4,2.8,0.2,2.4c-0.3-0.4-0.8-0.8-1.4-1.1
		c-1.4,1.2-3.3,2-5.8,2.5l-0.1-0.3c2.1-0.7,3.6-1.6,4.8-2.8c-1.3-0.6-2.7-1.1-3.9-1.3l0.1-0.1c0.4-0.6,1-1.6,1.5-2.5h-2.3l-0.2-0.6
		h2.8c0.4-0.8,0.8-1.6,0.9-2.1l0.4,0.1v-2.4c-1.1,1.2-2.5,2.1-4.1,2.8l-0.2-0.3c1.5-1.2,2.8-2.7,3.5-4.3h-3.2l-0.2-0.6h4v-4.2
		l2.4,0.2c0,0.3-0.2,0.4-0.7,0.5v3.5h1.9l1-1.2c0,0,1.1,0.9,1.7,1.5c0,0.2-0.2,0.3-0.5,0.3h-4.1v0.3c4.8,1,3.6,4.2,2,3.2
		c-0.3-0.9-1.2-1.9-2-2.7v3c0,0.2-0.8,0.5-1.4,0.5h-0.2l1.8,0.6c-0.1,0.2-0.3,0.4-0.9,0.3c-0.1,0.3-0.3,0.6-0.5,0.9h2.4l1-0.9
		L650.8,58.2z M642,47.4c3.9,1.2,2.3,4,0.9,2.8c-0.1-0.9-0.6-2-1.1-2.7L642,47.4z M645.4,58.2c-0.4,0.8-0.9,1.6-1.4,2.3
		c1.2,0.1,2.1,0.2,2.9,0.5c0.6-0.8,1-1.7,1.3-2.8H645.4z M647.5,50.4c0.3-0.8,0.7-2,1-3.1l2.2,0.8c-0.1,0.2-0.3,0.4-0.7,0.4
		c-0.6,0.8-1.4,1.6-2.1,2.2L647.5,50.4z M658.1,51.8c-0.3,3.2-1,6-2.6,8.3c1.1,1.4,2.5,2.6,4.3,3.4l-0.1,0.2
		c-0.9,0.2-1.4,0.7-1.7,1.5c-1.5-1-2.7-2.3-3.5-3.8c-1.4,1.6-3.4,2.9-6.1,3.8l-0.1-0.2c2.6-1.4,4.3-3.1,5.5-5
		c-0.7-1.7-1.2-3.6-1.6-5.6c-0.5,0.9-1.1,1.8-1.7,2.5l-0.3-0.2c1.1-2.6,2-6.3,2.4-9.9l2.8,0.6c-0.1,0.3-0.3,0.5-0.7,0.5
		c-0.3,1.2-0.6,2.3-1,3.4h3.1l1.1-1.4c0,0,1.3,1,2,1.7c-0.1,0.2-0.3,0.3-0.5,0.3H658.1z M653.4,51.8c-0.2,0.6-0.5,1.3-0.8,1.8
		c0.4,1.9,1.1,3.5,1.9,5c0.9-2,1.4-4.3,1.5-6.8H653.4z"/>
	<path class="st3" d="M664,50.5c0.1,1.4-0.4,2.4-1.1,2.8c-0.6,0.4-1.6,0.3-1.8-0.4c-0.2-0.7,0.2-1.2,0.8-1.5
		c0.7-0.4,1.5-1.4,1.5-2.6h0.3c0.1,0.4,0.2,0.8,0.3,1.1h12.6l1.1-1.1l1.9,1.9c-0.2,0.2-0.4,0.2-0.8,0.2c-0.7,0.7-1.8,1.6-2.7,2.2
		l-0.2-0.1c0.3-0.7,0.6-1.6,0.8-2.4H664z M677.4,56.4c0,0,1.3,1,2.1,1.7c0,0.2-0.3,0.3-0.5,0.3h-7.7v4.4c0,1.4-0.3,2.2-2.9,2.4
		c-0.1-0.6-0.2-1-0.6-1.3c-0.4-0.3-0.9-0.5-2.1-0.7V63c0,0,2.6,0.2,3.1,0.2c0.4,0,0.5-0.1,0.5-0.4v-4.3h-7.9l-0.2-0.6h8.1v-2.5
		l1.7,0.2c0.7-0.6,1.5-1.4,2-2.1h-8.2l-0.2-0.6h8.6l1.1-1.1l1.9,1.7c-0.2,0.2-0.4,0.2-0.8,0.2c-1,0.7-2.3,1.4-3.6,1.9h0.1
		c0,0.3-0.2,0.4-0.7,0.5v1.7h5L677.4,56.4z M668.7,46.6c5,0.4,3.2,4.3,1.3,2.9c-0.1-1-0.7-2.1-1.4-2.7L668.7,46.6z"/>
	<path class="st3" d="M684.6,50.9c-1.1,0.8-2.3,1.5-3.5,2l-0.2-0.2c2.2-1.6,4.2-4.2,5.1-6.1l2.5,1c-0.1,0.2-0.3,0.3-0.7,0.3
		c-0.4,0.5-0.9,1.1-1.5,1.7l0.8,0.3c-0.1,0.2-0.3,0.3-0.6,0.4v4.3c0,0.1-0.8,0.5-1.5,0.5h-0.3V50.9z M692.1,57.9
		c-0.1,0.2-0.3,0.4-0.8,0.4c-0.2,1.3-0.3,2.4-0.9,3.3c11.7,0.8,8.7,4.6,6.7,3.3c-1.3-1-3.6-2.1-6.8-3l0-0.1
		c-1.1,1.6-3.4,2.6-8.9,3.4l-0.1-0.4c7.6-1.6,8-3.6,8.2-7.5L692.1,57.9z M694.6,61.8v-5.5h-8.5v5.5c0,0.2-0.8,0.6-1.6,0.6h-0.3v-7.5
		l2,0.8h8.1l0.9-1l1.9,1.5c-0.1,0.1-0.4,0.3-0.7,0.4v4.7c0,0.1-1,0.5-1.6,0.5H694.6z M698.8,52.8c0.6,0.2,0.7,0.4,0.7,0.7
		c0,0.8-0.8,1-4.3,1h-2.3c-1.9,0-2.3-0.4-2.3-1.6v-1c-1.2,0.4-2.3,0.8-3.5,1.1l-0.1-0.3c1.2-0.5,2.4-1.1,3.6-1.8v-4.3l2.4,0.2
		c0,0.3-0.2,0.4-0.6,0.5v2.5c1.4-0.9,2.6-1.8,3.4-2.5l2.4,1.4c-0.2,0.2-0.5,0.3-1.1,0.2c-1.2,0.8-2.9,1.6-4.7,2.3v1.4
		c0,0.3,0.1,0.4,0.8,0.4h2.2c0.8,0,1.6,0,1.9,0c0.2,0,0.4-0.1,0.5-0.2c0.2-0.2,0.4-0.9,0.7-1.8h0.2L698.8,52.8z"/>
	<path class="st3" d="M718.1,53.7c-0.1,0.1-0.4,0.3-0.8,0.4v6.8c0,1.3-0.3,2.1-2.6,2.3c-0.1-0.6-0.2-1.1-0.4-1.3
		c-0.3-0.3-0.7-0.5-1.6-0.7V61c0,0,1.8,0.1,2.3,0.1c0.3,0,0.4-0.1,0.4-0.4v-6.9h-4.1v10.8c0,0.1-0.7,0.6-1.6,0.6h-0.4V53.8h-4v8.8
		c0,0.2-0.8,0.7-1.6,0.7h-0.3V52.4l2,0.9h3.9v-3.5c-2.3,0.3-4.8,0.5-7,0.6l-0.1-0.3c4.6-0.7,10.4-2.1,13.3-3.3l1.9,1.8
		c-0.2,0.2-0.6,0.2-1.2,0c-1.4,0.3-3.1,0.6-5,0.9v3.8h3.9l0.9-1L718.1,53.7z"/>
	<path class="st3" d="M733.6,57.2c1.5,1.4,4.1,2.2,6.2,2.5l0,0.3c-0.8,0.5-1.1,1.2-1.2,2c-2.3-0.9-4.3-2.7-5.6-4.7h-4.8
		c-1.5,2.2-4,3.8-7.1,4.9l-0.2-0.3c2.1-1.1,3.7-2.8,4.8-4.6h-4.6l-0.2-0.6h4.7v-6.8h-3.7l-0.2-0.6h3.9v-2.5l2.7,0.3
		c-0.1,0.3-0.2,0.5-0.7,0.6v1.7h5.4v-2.5l2.7,0.3c0,0.3-0.2,0.5-0.7,0.6v1.7h1.1l1.1-1.4c0,0,1.2,1,1.9,1.7
		c-0.1,0.2-0.2,0.3-0.5,0.3h-3.6v6.8h1.6l1.1-1.5c0,0,1.2,1,2,1.8c-0.1,0.2-0.3,0.3-0.6,0.3H733.6z M736.4,62.6c0,0,1.4,1,2.3,1.8
		c0,0.2-0.3,0.3-0.6,0.3h-16l-0.2-0.6h7.3v-2.9h-4l-0.2-0.6h4.2v-2.6l2.6,0.2c0,0.3-0.2,0.5-0.7,0.5v1.8h1.4l1-1.3
		c0,0,1.2,0.9,1.9,1.6c-0.1,0.2-0.3,0.3-0.5,0.3h-3.7v2.9h4L736.4,62.6z M727.6,49.7v1.9h5.4v-1.9H727.6z M727.6,54.1h5.4v-1.9h-5.4
		V54.1z M733,56.6v-1.9h-5.4v1.9H733z"/>
	<path class="st3" d="M752.1,47.3c-0.1,0.3-0.3,0.4-0.9,0.4c1.8,2.5,5.4,4.2,8.6,5.3l0,0.3c-0.9,0.2-1.5,1-1.6,1.8
		c-3.1-1.6-6-4-7.3-7.1c-2,3-6.1,6.2-10,7.8l-0.1-0.3c3.4-2,7.3-6.2,8.3-9L752.1,47.3z M757,62.4c0,0,1.4,1.1,2.3,1.9
		c-0.1,0.2-0.3,0.3-0.5,0.3h-17.3l-0.2-0.6h7.8v-6.2h-6.7l-0.2-0.6h6.8v-3.1h-3.7l-0.2-0.6h6.7l1.1-1.3c0,0,1.2,0.9,2,1.6
		c-0.1,0.2-0.3,0.3-0.5,0.3h-3.4v3.1h4.1l1.1-1.4c0,0,1.3,1,2.1,1.7c-0.1,0.2-0.3,0.3-0.5,0.3h-6.8V64h4.8L757,62.4z M744.6,58.6
		c4.7,2.3,2.7,5.8,1,4.2c0-1.4-0.6-3-1.2-4.1L744.6,58.6z M752.3,63.2c0.5-1.1,1.2-3,1.7-4.7l2.6,1c-0.1,0.2-0.3,0.4-0.8,0.4
		c-1,1.3-2.2,2.6-3.3,3.5L752.3,63.2z"/>
</g>
<g id="传统基金" class="st2">
	<path class="st3" d="M62.5,215.6c-0.1,0.1-0.2,0.2-0.5,0.3v9.4c0,0.1-0.7,0.5-1.2,0.5h-0.3v-8.4c-0.6,0.7-1.2,1.4-1.8,2l-0.2-0.1
		c1.2-2,2.6-5.2,3.2-8.3l2.3,0.7c-0.1,0.2-0.3,0.3-0.6,0.3c-0.4,1.2-1,2.4-1.6,3.4L62.5,215.6z M72.1,215.6c0,0,1,0.8,1.6,1.4
		c0,0.2-0.2,0.3-0.4,0.3h-6.1c-0.2,0.8-0.5,1.6-0.7,2.3h3.6l0.9-0.9l1.6,1.5c-0.1,0.1-0.3,0.2-0.7,0.2c-0.7,0.8-1.8,1.8-2.8,2.6
		c2.5,1.3,2.3,3,1,2.7c-1.1-1.4-3.6-2.9-5.5-3.6l0.1-0.2c1.7,0.2,3,0.5,4,1c0.5-0.9,1.1-2,1.4-2.8h-3.6l-0.7,0.7l-1.5-1
		c0.2-0.1,0.4-0.3,0.6-0.4c0.2-0.6,0.4-1.3,0.6-2h-3.1l-0.1-0.5h3.3c0.3-0.9,0.5-1.8,0.7-2.7h-3l-0.1-0.5h3.3
		c0.3-1.1,0.5-2.1,0.6-2.8l2.1,0.5c-0.1,0.2-0.2,0.4-0.6,0.3c-0.1,0.5-0.3,1.2-0.5,2h2.3l0.9-1.1c0,0,1,0.8,1.6,1.3
		c0,0.2-0.2,0.3-0.4,0.3H68c-0.2,0.9-0.5,1.8-0.7,2.7h3.9L72.1,215.6z"/>
	<path class="st3" d="M74.7,219.7c0,0,0.4-0.1,0.5-0.2c0.7-0.6,1.6-1.8,2.3-3c-0.6,0.2-1.2,0.4-1.9,0.7c-0.1,0.2-0.2,0.3-0.4,0.3
		l-0.7-1.8c0,0,0.3-0.1,0.5-0.2c0.8-0.9,1.9-3.2,2.3-4.5l1.9,0.8c-0.1,0.2-0.3,0.3-0.6,0.3c-0.7,1.2-2,2.7-3.1,3.7
		c0.6,0,1.5,0,2.4,0c0.4-0.7,0.7-1.4,0.9-1.9l1.8,1c-0.1,0.1-0.3,0.3-0.6,0.2c-0.9,1.3-2.6,3.2-4.1,4.5c1.1-0.1,2.7-0.3,4.4-0.5
		l0,0.2c-0.9,0.4-2.6,1.1-4.5,1.7c-0.1,0.2-0.2,0.3-0.4,0.3L74.7,219.7z M80.5,221.9c-1.1,0.7-2.5,1.6-4.6,2.6
		c-0.1,0.2-0.2,0.3-0.4,0.4l-0.8-1.9c1.1-0.2,3.5-0.7,5.8-1.3L80.5,221.9z M89.3,223.8c0.4,0.2,0.5,0.4,0.5,0.6
		c0,0.6-0.5,0.9-2.3,0.9h-1c-1.2,0-1.4-0.3-1.4-1.3v-6.1c-0.4,0.1-0.9,0.2-1.4,0.3v1.2c0,2.2-0.6,5-5.3,6.5l-0.1-0.2
		c3.2-1.7,3.8-4.2,3.8-6.3v-0.9l-0.9,0.2c-0.1,0.2-0.2,0.3-0.4,0.4l-0.8-1.8c0,0,0.3-0.1,0.5-0.1c1-0.6,2.4-2.2,2.9-3.1H80l-0.1-0.5
		h7.4l0.9-1.1c0,0,1,0.8,1.6,1.3c0,0.2-0.2,0.3-0.4,0.3h-5.6l1.7,0.7c-0.1,0.1-0.3,0.3-0.6,0.2c-0.8,0.8-2.2,1.7-3.4,2.4
		c1.4,0,3.5-0.1,5.7-0.2c-0.4-0.7-0.9-1.3-1.3-1.8l0.2-0.1c4.5,1.6,3.3,4.7,1.9,3.6c-0.1-0.4-0.3-0.8-0.5-1.3l-0.8,0.2v0.3v5.8
		c0,0.2,0,0.3,0.3,0.3h0.7c0.3,0,0.5,0,0.6,0c0.1,0,0.2,0,0.3-0.2c0.1-0.3,0.3-1.1,0.5-2h0.2L89.3,223.8z M83,210.8
		c3.7,0.6,2.5,3.3,1.1,2.4c-0.2-0.8-0.8-1.7-1.3-2.2L83,210.8z"/>
	<path class="st3" d="M100.8,219.3c1.2,1.1,3.3,1.8,5,2l0,0.2c-0.6,0.4-0.9,0.9-1,1.6c-1.8-0.7-3.5-2.1-4.5-3.8h-3.9
		c-1.2,1.8-3.2,3.1-5.7,3.9l-0.1-0.2c1.7-0.9,3-2.3,3.8-3.7h-3.6l-0.1-0.5h3.7v-5.5h-3l-0.1-0.5h3.1v-2l2.1,0.2
		c0,0.2-0.2,0.4-0.6,0.4v1.3h4.3v-2l2.1,0.2c0,0.2-0.2,0.4-0.6,0.4v1.3h0.9l0.9-1.1c0,0,1,0.8,1.5,1.3c0,0.2-0.2,0.3-0.4,0.3h-2.8
		v5.5h1.3l0.9-1.2c0,0,1,0.8,1.6,1.4c0,0.2-0.2,0.3-0.4,0.3H100.8z M103,223.7c0,0,1.1,0.8,1.8,1.4c0,0.2-0.2,0.3-0.4,0.3H91.6
		l-0.1-0.5h5.8v-2.3H94l-0.1-0.5h3.4v-2.1l2.1,0.2c0,0.2-0.1,0.4-0.5,0.4v1.5h1.1l0.8-1.1c0,0,1,0.7,1.5,1.3c0,0.2-0.2,0.3-0.4,0.3
		h-3v2.3h3.2L103,223.7z M95.9,213.4v1.5h4.3v-1.5H95.9z M95.9,216.8h4.3v-1.5h-4.3V216.8z M100.2,218.8v-1.6h-4.3v1.6H100.2z"/>
	<path class="st3" d="M115.6,211.5c0,0.2-0.3,0.3-0.7,0.3c1.5,2,4.3,3.3,6.9,4.2l0,0.2c-0.7,0.2-1.2,0.8-1.3,1.4
		c-2.5-1.3-4.8-3.2-5.8-5.7c-1.6,2.4-4.9,5-8,6.3l-0.1-0.2c2.7-1.6,5.8-4.9,6.6-7.2L115.6,211.5z M119.5,223.5c0,0,1.1,0.9,1.8,1.5
		c0,0.2-0.2,0.3-0.4,0.3H107l-0.1-0.5h6.2v-5h-5.3l-0.1-0.5h5.5v-2.4h-2.9l-0.1-0.5h5.4l0.9-1c0,0,1,0.7,1.6,1.2
		c0,0.2-0.2,0.3-0.4,0.3h-2.7v2.4h3.3l0.9-1.2c0,0,1.1,0.8,1.7,1.4c0,0.2-0.2,0.3-0.4,0.3h-5.5v5h3.8L119.5,223.5z M109.5,220.5
		c3.8,1.8,2.1,4.7,0.8,3.3c0-1.1-0.5-2.4-1-3.3L109.5,220.5z M115.7,224.1c0.4-0.9,1-2.4,1.4-3.8l2.1,0.8c-0.1,0.2-0.3,0.3-0.6,0.3
		c-0.8,1.1-1.8,2.1-2.7,2.8L115.7,224.1z"/>
</g>
<rect id="矩形_19" x="182.5" y="96.5" class="st5" width="1" height="164"/>
<rect id="矩形_19_拷贝" x="384.5" y="96.5" class="st5" width="1" height="164"/>
<rect id="矩形_19_拷贝_2" x="586.5" y="96.5" class="st5" width="1" height="164"/>
<rect id="矩形_19_拷贝_2-2" x="788.5" y="96.5" class="st5" width="1" height="164"/>
<rect id="矩形_19_拷贝_3" x="990.5" y="96.5" class="st5" width="1" height="164"/>
<rect id="矩形_19_拷贝_3-2" x="1192.5" y="96.5" class="st5" width="1" height="164"/>
<rect id="矩形_21" x="182.5" y="259.5" class="st5" width="1150" height="1"/>
<rect id="矩形_20" x="183.5" y="218.5" class="st4" width="762" height="18"/>
<rect id="矩形_20_拷贝" x="183.5" y="200.5" class="st1" width="422" height="18"/>
<rect id="矩形_20_拷贝_2" x="183.5" y="142.5" class="st4" width="528" height="18"/>
<rect id="矩形_20_拷贝_2-2" x="183.5" y="124.5" class="st1" width="920" height="18"/>
<g id="数字货币基金-2" class="st2">
	<path class="st3" d="M66.1,144.1c-0.1,0.1-0.3,0.2-0.6,0.2c-0.4,0.9-0.8,1.7-1.4,2.4c1.7,0.9,1.1,2.2,0.1,1.9
		c-0.3-0.3-0.7-0.6-1.1-0.9c-1.1,0.9-2.7,1.6-4.6,2l-0.1-0.2c1.6-0.5,2.9-1.3,3.9-2.2c-1-0.5-2.2-0.9-3.1-1.1l0-0.1
		c0.3-0.5,0.8-1.3,1.2-2h-1.8l-0.1-0.5h2.2c0.3-0.7,0.6-1.2,0.8-1.6l0.3,0.1v-1.9c-0.9,0.9-2,1.7-3.2,2.3l-0.2-0.2
		c1.2-0.9,2.2-2.2,2.8-3.5h-2.5l-0.1-0.5h3.2v-3.4l2,0.2c0,0.2-0.2,0.4-0.6,0.4v2.8h1.6l0.8-1c0,0,0.8,0.7,1.3,1.2
		c0,0.2-0.2,0.3-0.4,0.3h-3.3v0.3c3.8,0.8,2.9,3.3,1.6,2.5c-0.3-0.7-0.9-1.6-1.6-2.2v2.4c0,0.1-0.6,0.4-1.1,0.4h-0.1l1.4,0.5
		c-0.1,0.2-0.2,0.3-0.7,0.3c-0.1,0.2-0.2,0.5-0.4,0.8h2l0.8-0.8L66.1,144.1z M59,135.5c3.1,1,1.8,3.2,0.7,2.2c0-0.7-0.5-1.6-0.9-2.1
		L59,135.5z M61.7,144.1c-0.4,0.6-0.7,1.3-1.1,1.8c0.9,0.1,1.7,0.2,2.3,0.4c0.5-0.7,0.8-1.4,1-2.2H61.7z M63.5,137.9
		c0.2-0.6,0.5-1.6,0.8-2.5L66,136c-0.1,0.2-0.3,0.3-0.6,0.3c-0.5,0.6-1.2,1.3-1.7,1.7L63.5,137.9z M71.9,139
		c-0.3,2.6-0.8,4.8-2.1,6.7c0.9,1.1,2,2,3.4,2.8l0,0.2c-0.7,0.1-1.2,0.5-1.4,1.2c-1.2-0.8-2.1-1.9-2.8-3.1c-1.2,1.3-2.7,2.3-4.9,3.1
		l-0.1-0.2c2-1.1,3.5-2.5,4.4-4c-0.6-1.3-1-2.9-1.3-4.5c-0.4,0.8-0.9,1.4-1.4,2l-0.2-0.1c0.9-2,1.6-5.1,1.9-7.9l2.2,0.5
		c0,0.2-0.2,0.4-0.6,0.4c-0.2,1-0.5,1.9-0.8,2.7h2.5l0.9-1.1c0,0,1,0.8,1.6,1.3c0,0.2-0.2,0.3-0.4,0.3H71.9z M68.2,139
		c-0.2,0.5-0.4,1-0.7,1.5c0.4,1.5,0.9,2.8,1.5,4c0.7-1.6,1.1-3.4,1.2-5.5H68.2z"/>
	<path class="st3" d="M76.7,138c0.1,1.1-0.3,1.9-0.9,2.2c-0.5,0.3-1.2,0.2-1.5-0.4c-0.2-0.5,0.1-1,0.6-1.2c0.6-0.3,1.2-1.1,1.2-2
		h0.2c0.1,0.3,0.2,0.6,0.2,0.9h10.1l0.9-0.9l1.5,1.5c-0.1,0.1-0.3,0.2-0.6,0.2c-0.5,0.6-1.5,1.3-2.2,1.7l-0.2-0.1
		c0.2-0.5,0.4-1.3,0.6-1.9H76.7z M87.3,142.7c0,0,1,0.8,1.7,1.4c0,0.2-0.2,0.3-0.4,0.3h-6.2v3.5c0,1.1-0.3,1.8-2.3,1.9
		c-0.1-0.5-0.2-0.8-0.4-1.1c-0.3-0.3-0.8-0.4-1.7-0.6V148c0,0,2.1,0.1,2.5,0.1c0.3,0,0.4-0.1,0.4-0.3v-3.4h-6.4l-0.1-0.5h6.5v-2
		l1.4,0.1c0.6-0.5,1.2-1.2,1.6-1.7h-6.6l-0.1-0.5H84l0.9-0.9l1.5,1.4c-0.1,0.1-0.3,0.2-0.6,0.2c-0.8,0.5-1.9,1.1-2.9,1.6H83
		c0,0.2-0.2,0.4-0.6,0.4v1.4h4L87.3,142.7z M80.4,134.9c4,0.4,2.6,3.5,1,2.3c-0.1-0.8-0.6-1.7-1.2-2.2L80.4,134.9z"/>
	<path class="st3" d="M93.1,138.3c-0.9,0.6-1.8,1.2-2.8,1.6l-0.1-0.2c1.8-1.3,3.4-3.3,4.1-4.9l2,0.8c-0.1,0.2-0.2,0.3-0.6,0.2
		c-0.3,0.4-0.7,0.9-1.2,1.3l0.6,0.2c0,0.1-0.2,0.3-0.5,0.3v3.5c0,0.1-0.6,0.4-1.2,0.4h-0.3V138.3z M99.1,143.9
		c-0.1,0.2-0.3,0.3-0.6,0.3c-0.1,1-0.3,1.9-0.7,2.7c9.4,0.7,6.9,3.7,5.3,2.6c-1.1-0.8-2.9-1.7-5.5-2.4l0-0.1
		c-0.9,1.3-2.7,2.1-7.1,2.7l-0.1-0.3c6.1-1.2,6.4-2.9,6.5-6L99.1,143.9z M101.1,147.1v-4.4h-6.8v4.4c0,0.1-0.7,0.5-1.3,0.5h-0.2v-6
		l1.6,0.7h6.5l0.7-0.8l1.5,1.2c-0.1,0.1-0.3,0.2-0.6,0.3v3.8c0,0.1-0.8,0.4-1.3,0.4H101.1z M104.4,139.8c0.5,0.1,0.6,0.3,0.6,0.6
		c0,0.6-0.6,0.8-3.4,0.8h-1.8c-1.5,0-1.9-0.3-1.9-1.3v-0.8c-0.9,0.3-1.9,0.6-2.8,0.9l-0.1-0.2c0.9-0.4,1.9-0.9,2.9-1.4v-3.5l1.9,0.2
		c0,0.2-0.2,0.4-0.5,0.4v2c1.1-0.7,2.1-1.4,2.7-2l1.9,1.1c-0.1,0.2-0.4,0.2-0.9,0.1c-1,0.6-2.3,1.3-3.7,1.8v1.1
		c0,0.3,0.1,0.3,0.7,0.3h1.7c0.7,0,1.2,0,1.5,0c0.2,0,0.3,0,0.4-0.2c0.1-0.2,0.4-0.8,0.6-1.4h0.2L104.4,139.8z"/>
	<path class="st3" d="M119.9,140.6c-0.1,0.1-0.3,0.3-0.7,0.3v5.4c0,1.1-0.2,1.7-2.1,1.9c0-0.5-0.1-0.9-0.3-1.1
		c-0.2-0.2-0.6-0.4-1.3-0.5v-0.2c0,0,1.4,0.1,1.8,0.1c0.3,0,0.3-0.1,0.3-0.3v-5.5h-3.3v8.7c0,0.1-0.5,0.5-1.3,0.5h-0.3v-9.1h-3.2
		v7.1c0,0.2-0.7,0.5-1.3,0.5h-0.2v-8.7l1.6,0.7h3.1v-2.8c-1.9,0.2-3.8,0.4-5.6,0.5l0-0.3c3.7-0.5,8.3-1.7,10.7-2.6l1.5,1.5
		c-0.2,0.2-0.5,0.2-0.9,0c-1.1,0.3-2.5,0.5-4,0.7v3h3.1l0.7-0.8L119.9,140.6z"/>
	<path class="st3" d="M132.3,143.3c1.2,1.1,3.3,1.8,5,2l0,0.2c-0.6,0.4-0.9,0.9-1,1.6c-1.8-0.7-3.5-2.1-4.5-3.8H128
		c-1.2,1.8-3.2,3.1-5.7,3.9l-0.1-0.2c1.7-0.9,3-2.3,3.8-3.7h-3.6l-0.1-0.5h3.7v-5.5h-3l-0.1-0.5h3.1v-2l2.1,0.2
		c0,0.2-0.2,0.4-0.6,0.4v1.3h4.3v-2l2.1,0.2c0,0.2-0.2,0.4-0.6,0.4v1.3h0.9l0.9-1.1c0,0,1,0.8,1.5,1.3c0,0.2-0.2,0.3-0.4,0.3h-2.8
		v5.5h1.3l0.9-1.2c0,0,1,0.8,1.6,1.4c0,0.2-0.2,0.3-0.4,0.3H132.3z M134.6,147.7c0,0,1.1,0.8,1.8,1.4c0,0.2-0.2,0.3-0.4,0.3h-12.8
		L123,149h5.8v-2.3h-3.2l-0.1-0.5h3.4v-2.1l2.1,0.2c0,0.2-0.1,0.4-0.5,0.4v1.5h1.1l0.8-1.1c0,0,1,0.7,1.5,1.3c0,0.2-0.2,0.3-0.4,0.3
		h-3v2.3h3.2L134.6,147.7z M127.5,137.4v1.5h4.3v-1.5H127.5z M127.5,140.9h4.3v-1.5h-4.3V140.9z M131.8,142.9v-1.6h-4.3v1.6H131.8z"
		/>
	<path class="st3" d="M147.1,135.5c0,0.2-0.3,0.3-0.7,0.3c1.5,2,4.3,3.3,6.9,4.2l0,0.2c-0.7,0.2-1.2,0.8-1.3,1.4
		c-2.5-1.3-4.8-3.2-5.8-5.7c-1.6,2.4-4.9,5-8,6.3l-0.1-0.2c2.7-1.6,5.8-4.9,6.6-7.2L147.1,135.5z M151.1,147.5c0,0,1.1,0.9,1.8,1.5
		c0,0.2-0.2,0.3-0.4,0.3h-13.8l-0.1-0.5h6.2v-5h-5.3l-0.1-0.5h5.5v-2.4h-2.9l-0.1-0.5h5.4l0.9-1c0,0,1,0.7,1.6,1.2
		c0,0.2-0.2,0.3-0.4,0.3h-2.7v2.4h3.3l0.9-1.2c0,0,1.1,0.8,1.7,1.4c0,0.2-0.2,0.3-0.4,0.3h-5.5v5h3.8L151.1,147.5z M141.1,144.5
		c3.8,1.8,2.1,4.7,0.8,3.3c0-1.1-0.5-2.4-1-3.3L141.1,144.5z M147.3,148.2c0.4-0.9,1-2.4,1.4-3.8l2.1,0.8c-0.1,0.2-0.3,0.3-0.6,0.3
		c-0.8,1.1-1.8,2.1-2.7,2.8L147.3,148.2z"/>
</g>
</svg>
