<?xml version="1.0" encoding="utf-8"?>
<!-- Generator: Adobe Illustrator 22.1.0, SVG Export Plug-In . SVG Version: 6.00 Build 0)  -->
<svg version="1.1" id="组_14_拷贝" xmlns="http://www.w3.org/2000/svg" xmlns:xlink="http://www.w3.org/1999/xlink" x="0px"
	 y="0px" viewBox="0 0 976 65" style="enable-background:new 0 0 976 65;" xml:space="preserve">
<style type="text/css">
	.st0{fill:url(#矩形_28_1_);}
	.st1{fill:#4E6778;}
	.st2{enable-background:new    ;}
	.st3{fill:#FFFFFF;}
</style>
<linearGradient id="矩形_28_1_" gradientUnits="userSpaceOnUse" x1="480" y1="-882.5" x2="255" y2="-882.5" gradientTransform="matrix(1 0 0 -1 -255 -850)">
	<stop  offset="0" style="stop-color:#4E6778"/>
	<stop  offset="1" style="stop-color:#61869F"/>
	<stop  offset="1" style="stop-color:#61869F"/>
</linearGradient>
<path id="矩形_28" class="st0" d="M0,0h205l20,32l-21,33H0V0z"/>
<path id="矩形_28_拷贝_2" class="st1" d="M441,65H227l21-33L228,0h214l20,32L441,65z"/>
<path id="矩形_28_拷贝_3" class="st1" d="M698,65H464l21-33L465,0h234l20,32L698,65z"/>
<path id="矩形_28_拷贝_4" class="st1" d="M955,65H721l21-33L722,0h234l20,32L955,65z"/>
<g id="Intelligent_finance" class="st2">
	<path class="st3" d="M779.2,25.7c0,1.5,0,3.1,0,4.7v0.9c0,1.5,0,3.1,0,4.6l1.7,0.2v0.6h-4.8V36l1.7-0.2c0-1.5,0-3.1,0-4.6v-0.9
		c0-1.6,0-3.1,0-4.7l-1.7-0.2v-0.6h4.8v0.6L779.2,25.7z"/>
	<path class="st3" d="M791.7,36.1v0.5h-3.9v-0.5l1.4-0.2c0-0.9,0-2.1,0-2.9v-1.6c0-1.7-0.5-2.2-1.5-2.2c-0.8,0-1.6,0.3-2.6,1.3V33
		c0,0.8,0,2,0,2.9l1.3,0.2v0.5h-3.9v-0.5l1.3-0.2c0-0.9,0-2.1,0-2.9v-0.9c0-1,0-1.7-0.1-2.4l-1.4-0.1V29l2.3-0.8l0.2,0.2l0.1,1.5
		c0.9-1,2.1-1.6,3.2-1.6c1.5,0,2.2,0.9,2.2,3.1V33c0,0.8,0,2,0,2.9L791.7,36.1z"/>
	<path class="st3" d="M797.7,36c-0.4,0.5-1.1,0.8-1.9,0.8c-1.2,0-1.9-0.7-1.9-2c0-0.4,0-0.8,0-1.4v-4.3h-1.6v-0.6l1.6-0.2l0.4-2.4
		h0.9l-0.1,2.4h2.4v0.7h-2.4v5.6c0,0.9,0.4,1.3,1,1.3c0.4,0,0.8-0.1,1.2-0.5L797.7,36z"/>
	<path class="st3" d="M799.9,32.4c0,2.4,1.3,3.5,3,3.5c1.1,0,1.9-0.5,2.5-1.2l0.3,0.3c-0.7,1.2-1.8,1.9-3.3,1.9
		c-2.2,0-3.9-1.6-3.9-4.3c0-2.7,1.8-4.4,3.9-4.4c1.9,0,3.2,1.3,3.2,3.3c0,0.4,0,0.8-0.1,1L799.9,32.4z M803.7,31.8
		c0.7,0,0.9-0.4,0.9-0.9c0-1.1-0.8-2.1-2.1-2.1c-1.2,0-2.3,1-2.5,3H803.7z"/>
	<path class="st3" d="M811.1,36.1v0.5h-4.2v-0.5l1.5-0.2c0-0.9,0-2,0-2.9v-8l-1.5-0.1v-0.5l2.5-0.7l0.2,0.1l0,2.5V33
		c0,0.9,0,2,0,2.9L811.1,36.1z"/>
	<path class="st3" d="M816.3,36.1v0.5h-4.2v-0.5l1.5-0.2c0-0.9,0-2,0-2.9v-8l-1.5-0.1v-0.5l2.5-0.7l0.2,0.1l0,2.5V33
		c0,0.9,0,2,0,2.9L816.3,36.1z"/>
	<path class="st3" d="M821.4,36.1v0.5h-3.9v-0.5l1.4-0.2c0-0.9,0-2.1,0-2.9v-0.9c0-1,0-1.6,0-2.4l-1.5-0.1V29l2.5-0.8l0.2,0.2l0,2.3
		V33c0,0.8,0,2,0,2.9L821.4,36.1z M818.4,25c0-0.6,0.4-1,1-1c0.6,0,1,0.4,1,1c0,0.6-0.4,1-1,1C818.9,26,818.4,25.6,818.4,25z"/>
	<path class="st3" d="M830.6,29.3l-1.8,0c0.3,0.4,0.5,1,0.5,1.7c0,1.8-1.3,2.9-3.1,2.9c-0.5,0-0.9-0.1-1.3-0.2
		c-0.4,0.4-0.5,0.8-0.5,1.2c0,0.5,0.3,0.8,1.2,0.8h2.4c1.8,0,2.6,0.8,2.6,2.1c0,1.5-1.4,2.9-4.2,2.9c-2.4,0-3.6-0.9-3.6-2.2
		c0-0.8,0.5-1.4,1.7-2c-0.7-0.2-1.1-0.6-1.1-1.3c0-0.6,0.3-1.1,1.2-1.9c-0.8-0.5-1.3-1.3-1.3-2.5c0-1.8,1.3-2.8,3.1-2.8
		c0.8,0,1.6,0.2,2.1,0.6l2-0.6l0.3,0.2V29.3z M825.6,36.8c-0.3,0-0.6,0-0.8,0c-0.5,0.5-0.8,1-0.8,1.6c0,1.2,0.9,1.7,2.4,1.7
		c2,0,3.1-0.9,3.1-1.9c0-0.8-0.5-1.4-1.8-1.4H825.6z M828.1,31c0-1.3-0.7-2.2-1.9-2.2c-1.2,0-1.9,0.9-1.9,2.3c0,1.4,0.7,2.3,1.9,2.3
		C827.3,33.3,828.1,32.3,828.1,31z"/>
	<path class="st3" d="M833,32.4c0,2.4,1.3,3.5,3,3.5c1.1,0,1.9-0.5,2.5-1.2l0.3,0.3c-0.7,1.2-1.8,1.9-3.2,1.9
		c-2.2,0-3.9-1.6-3.9-4.3c0-2.7,1.8-4.4,3.9-4.4c1.9,0,3.2,1.3,3.2,3.3c0,0.4,0,0.8-0.1,1L833,32.4z M836.7,31.8
		c0.7,0,0.9-0.4,0.9-0.9c0-1.1-0.8-2.1-2.1-2.1c-1.2,0-2.3,1-2.5,3H836.7z"/>
	<path class="st3" d="M849.6,36.1v0.5h-3.9v-0.5l1.4-0.2c0-0.9,0-2.1,0-2.9v-1.6c0-1.7-0.5-2.2-1.5-2.2c-0.8,0-1.6,0.3-2.6,1.3V33
		c0,0.8,0,2,0,2.9l1.3,0.2v0.5h-3.9v-0.5l1.3-0.2c0-0.9,0-2.1,0-2.9v-0.9c0-1,0-1.7-0.1-2.4l-1.4-0.1V29l2.3-0.8l0.2,0.2l0.1,1.5
		c0.9-1,2.1-1.6,3.2-1.6c1.5,0,2.2,0.9,2.2,3.1V33c0,0.8,0,2,0,2.9L849.6,36.1z"/>
	<path class="st3" d="M855.6,36c-0.4,0.5-1.1,0.8-1.9,0.8c-1.2,0-1.9-0.7-1.9-2c0-0.4,0-0.8,0-1.4v-4.3h-1.6v-0.6l1.6-0.2l0.4-2.4
		h0.9l-0.1,2.4h2.4v0.7h-2.4v5.6c0,0.9,0.4,1.3,1,1.3c0.4,0,0.8-0.1,1.2-0.5L855.6,36z"/>
	<path class="st3" d="M870,36.1v0.5h-3.9v-0.5l1.4-0.2c0-0.9,0-2.1,0-2.9V32c0-1.2,0-2,0-2.9h-4.2V33c0,1,0,2,0,2.9l1.6,0.2v0.5
		h-4.4v-0.5l1.5-0.2c0-1,0-2,0-2.9v-3.8h-1.5v-0.6l1.6-0.2c0.1-1.9,0.5-3,1.4-3.8c0.8-0.7,1.7-1,2.7-1c1.4,0,2.4,0.6,2.5,1.5
		c-0.1,0.3-0.4,0.6-0.8,0.6c-0.4,0-0.7-0.2-1.1-0.7l-0.7-0.9c-0.8,0-1.5,0.4-2,0.8c-0.6,0.6-0.9,1.6-0.9,3.5h3.9l1.4-0.2l0.2,0.2
		l0,2.2V33c0,0.8,0,2,0,2.9L870,36.1z"/>
	<path class="st3" d="M880.6,36.1v0.5h-3.9v-0.5l1.4-0.2c0-0.9,0-2.1,0-2.9v-1.6c0-1.7-0.5-2.2-1.5-2.2c-0.8,0-1.6,0.3-2.6,1.3V33
		c0,0.8,0,2,0,2.9l1.3,0.2v0.5h-3.9v-0.5l1.3-0.2c0-0.9,0-2.1,0-2.9v-0.9c0-1,0-1.7-0.1-2.4l-1.4-0.1V29l2.3-0.8l0.2,0.2l0.1,1.5
		c0.9-1,2.1-1.6,3.2-1.6c1.5,0,2.2,0.9,2.2,3.1V33c0,0.8,0,2,0,2.9L880.6,36.1z"/>
	<path class="st3" d="M889.8,36c-0.4,0.6-0.8,0.8-1.4,0.8c-0.8,0-1.3-0.5-1.5-1.4c-1,1-1.6,1.5-2.7,1.5c-1.3,0-2.3-0.7-2.3-2.1
		c0-1.1,0.6-1.9,2.8-2.6c0.6-0.2,1.4-0.4,2.1-0.6V31c0-1.8-0.5-2.2-1.7-2.2c-0.3,0-0.7,0-1.1,0.2l-0.4,1.2c-0.1,0.5-0.4,0.7-0.8,0.7
		c-0.4,0-0.7-0.2-0.7-0.6c0.3-1.3,1.6-2.1,3.3-2.1c1.8,0,2.6,0.8,2.6,2.9v3.8c0,0.9,0.3,1.2,0.7,1.2c0.3,0,0.5-0.1,0.7-0.4L889.8,36
		z M886.9,32c-0.7,0.2-1.4,0.4-1.8,0.6c-1.6,0.6-1.8,1.3-1.8,1.9c0,1,0.6,1.4,1.5,1.4c0.7,0,1.1-0.3,2.2-1.1V32z"/>
	<path class="st3" d="M899.9,36.1v0.5H896v-0.5l1.4-0.2c0-0.9,0-2.1,0-2.9v-1.6c0-1.7-0.5-2.2-1.5-2.2c-0.8,0-1.6,0.3-2.6,1.3V33
		c0,0.8,0,2,0,2.9l1.3,0.2v0.5h-3.9v-0.5l1.3-0.2c0-0.9,0-2.1,0-2.9v-0.9c0-1,0-1.7-0.1-2.4l-1.4-0.1V29l2.3-0.8l0.2,0.2l0.1,1.5
		c0.9-1,2.1-1.6,3.2-1.6c1.5,0,2.2,0.9,2.2,3.1V33c0,0.8,0,2,0,2.9L899.9,36.1z"/>
	<path class="st3" d="M908.3,34.8c-0.5,1.3-1.6,2-3.2,2c-2.3,0-3.9-1.7-3.9-4.3c0-2.7,1.9-4.3,4-4.3c1.5,0,2.7,0.9,3,2.1
		c-0.1,0.4-0.3,0.6-0.7,0.6c-0.5,0-0.7-0.3-0.8-0.7l-0.4-1.2c-0.4-0.1-0.8-0.2-1.1-0.2c-1.6,0-2.8,1.3-2.8,3.6
		c0,2.2,1.2,3.6,2.9,3.6c1,0,1.9-0.5,2.5-1.3L908.3,34.8z"/>
	<path class="st3" d="M911,32.4c0,2.4,1.3,3.5,3,3.5c1.1,0,1.9-0.5,2.5-1.2l0.3,0.3c-0.7,1.2-1.8,1.9-3.2,1.9
		c-2.2,0-3.9-1.6-3.9-4.3c0-2.7,1.8-4.4,3.9-4.4c1.9,0,3.2,1.3,3.2,3.3c0,0.4,0,0.8-0.1,1L911,32.4z M914.8,31.8
		c0.7,0,0.9-0.4,0.9-0.9c0-1.1-0.8-2.1-2.1-2.1c-1.2,0-2.3,1-2.5,3H914.8z"/>
</g>
<g id="Detailed_transaction" class="st2">
	<path class="st3" d="M516.7,27.6c3.4,0,5.6,2.1,5.6,5.8c0,3.7-2.4,5.8-5.9,5.8h-4.7v-0.6l1.7-0.2c0-1.5,0-3.1,0-4.9V33
		c0-1.6,0-3.2,0-4.7l-1.7-0.2v-0.6H516.7z M516.3,38.6c3,0,4.5-1.9,4.5-5.2c0-3.4-1.6-5.2-4.4-5.2h-1.6c0,1.5,0,3.1,0,4.8v0.6
		c0,1.8,0,3.4,0,5H516.3z"/>
	<path class="st3" d="M525.4,35c0,2.4,1.3,3.5,3,3.5c1.1,0,1.9-0.5,2.5-1.2l0.3,0.3c-0.7,1.2-1.8,1.9-3.3,1.9
		c-2.2,0-3.9-1.6-3.9-4.3c0-2.7,1.8-4.4,3.9-4.4c1.9,0,3.2,1.3,3.2,3.3c0,0.4,0,0.8-0.1,1L525.4,35z M529.2,34.4
		c0.7,0,0.9-0.4,0.9-0.9c0-1.1-0.8-2.1-2.1-2.1c-1.2,0-2.3,1-2.5,3H529.2z"/>
	<path class="st3" d="M537.6,38.7c-0.4,0.5-1.1,0.8-1.9,0.8c-1.2,0-1.9-0.7-1.9-2c0-0.4,0-0.8,0-1.4v-4.3h-1.6v-0.6l1.6-0.2l0.4-2.4
		h0.9L535,31h2.4v0.7H535v5.6c0,0.9,0.4,1.3,1,1.3c0.4,0,0.8-0.1,1.2-0.5L537.6,38.7z"/>
	<path class="st3" d="M546.4,38.6c-0.4,0.6-0.8,0.8-1.4,0.8c-0.8,0-1.3-0.5-1.5-1.4c-1,1-1.6,1.5-2.7,1.5c-1.3,0-2.3-0.7-2.3-2.1
		c0-1.1,0.6-1.9,2.8-2.6c0.6-0.2,1.4-0.4,2.1-0.6v-0.5c0-1.8-0.5-2.2-1.7-2.2c-0.3,0-0.7,0-1.1,0.2l-0.4,1.2
		c-0.1,0.5-0.4,0.7-0.8,0.7c-0.4,0-0.7-0.2-0.7-0.6c0.3-1.3,1.6-2.1,3.3-2.1c1.8,0,2.6,0.8,2.6,2.9v3.8c0,0.9,0.3,1.2,0.7,1.2
		c0.3,0,0.5-0.1,0.7-0.4L546.4,38.6z M543.5,34.6c-0.7,0.2-1.4,0.4-1.8,0.6c-1.6,0.6-1.8,1.3-1.8,1.9c0,1,0.6,1.4,1.5,1.4
		c0.7,0,1.1-0.3,2.2-1.1V34.6z"/>
	<path class="st3" d="M551.1,38.7v0.5h-3.9v-0.5l1.4-0.2c0-0.9,0-2.1,0-2.9v-0.9c0-1,0-1.6,0-2.4l-1.5-0.1v-0.5l2.5-0.8l0.2,0.2
		l0,2.3v2.4c0,0.8,0,2,0,2.9L551.1,38.7z M548.2,27.6c0-0.6,0.4-1,1-1c0.6,0,1,0.4,1,1c0,0.6-0.4,1-1,1
		C548.6,28.6,548.2,28.2,548.2,27.6z"/>
	<path class="st3" d="M556.5,38.7v0.5h-4.2v-0.5l1.5-0.2c0-0.9,0-2,0-2.9v-8l-1.5-0.1V27l2.5-0.7l0.2,0.1l0,2.5v6.7c0,0.9,0,2,0,2.9
		L556.5,38.7z"/>
	<path class="st3" d="M559.1,35c0,2.4,1.3,3.5,3,3.5c1.1,0,1.9-0.5,2.5-1.2l0.3,0.3c-0.7,1.2-1.8,1.9-3.2,1.9
		c-2.2,0-3.9-1.6-3.9-4.3c0-2.7,1.8-4.4,3.9-4.4c1.9,0,3.2,1.3,3.2,3.3c0,0.4,0,0.8-0.1,1L559.1,35z M562.8,34.4
		c0.7,0,0.9-0.4,0.9-0.9c0-1.1-0.8-2.1-2.1-2.1c-1.2,0-2.3,1-2.5,3H562.8z"/>
	<path class="st3" d="M575.3,38.7v0.5l-2.6,0.2l-0.1-1.2c-0.6,0.8-1.4,1.3-2.5,1.3c-2.1,0-3.5-1.8-3.5-4.3c0-2.7,1.6-4.4,3.7-4.4
		c0.8,0,1.6,0.3,2.3,1.2v-4.3l-1.5-0.1V27l2.5-0.7l0.2,0.1l0,2.4v9.6L575.3,38.7z M572.5,32.6c-0.8-0.8-1.5-1-2.1-1
		c-1.4,0-2.6,1.1-2.6,3.6c0,2.4,1.1,3.5,2.6,3.5c0.8,0,1.4-0.3,2.1-1.1V32.6z"/>
	<path class="st3" d="M585.3,38.7c-0.4,0.5-1.1,0.8-1.9,0.8c-1.2,0-1.9-0.7-1.9-2c0-0.4,0-0.8,0-1.4v-4.3h-1.6v-0.6l1.6-0.2l0.4-2.4
		h0.9l-0.1,2.4h2.4v0.7h-2.4v5.6c0,0.9,0.4,1.3,1,1.3c0.4,0,0.8-0.1,1.2-0.5L585.3,38.7z"/>
	<path class="st3" d="M588.7,33.1c0.6-1.4,1.6-2.3,2.6-2.3c0.5,0,1,0.2,1.2,0.6c0,0.7-0.3,1.1-0.9,1.1c-0.4,0-0.7-0.2-1-0.5
		l-0.2-0.2c-0.8,0.5-1.3,1.2-1.7,2.3v1.5c0,0.8,0,2,0,2.9l1.5,0.2v0.5h-4.1v-0.5l1.3-0.2c0-0.9,0-2.1,0-2.9v-0.9c0-1,0-1.7-0.1-2.4
		l-1.4-0.1v-0.5l2.3-0.8l0.2,0.2L588.7,33.1z"/>
	<path class="st3" d="M601.2,38.6c-0.4,0.6-0.8,0.8-1.4,0.8c-0.8,0-1.3-0.5-1.5-1.4c-1,1-1.6,1.5-2.7,1.5c-1.3,0-2.3-0.7-2.3-2.1
		c0-1.1,0.6-1.9,2.8-2.6c0.6-0.2,1.4-0.4,2.1-0.6v-0.5c0-1.8-0.5-2.2-1.7-2.2c-0.3,0-0.7,0-1.1,0.2l-0.4,1.2
		c-0.1,0.5-0.4,0.7-0.8,0.7c-0.4,0-0.7-0.2-0.7-0.6c0.3-1.3,1.6-2.1,3.3-2.1c1.8,0,2.6,0.8,2.6,2.9v3.8c0,0.9,0.3,1.2,0.7,1.2
		c0.3,0,0.5-0.1,0.7-0.4L601.2,38.6z M598.3,34.6c-0.7,0.2-1.4,0.4-1.8,0.6c-1.6,0.6-1.8,1.3-1.8,1.9c0,1,0.6,1.4,1.5,1.4
		c0.7,0,1.1-0.3,2.2-1.1V34.6z"/>
	<path class="st3" d="M611.3,38.7v0.5h-3.9v-0.5l1.4-0.2c0-0.9,0-2.1,0-2.9V34c0-1.7-0.5-2.2-1.5-2.2c-0.8,0-1.6,0.3-2.6,1.3v2.5
		c0,0.8,0,2,0,2.9l1.3,0.2v0.5H602v-0.5l1.3-0.2c0-0.9,0-2.1,0-2.9v-0.9c0-1,0-1.7-0.1-2.4l-1.4-0.1v-0.5l2.3-0.8l0.2,0.2l0.1,1.5
		c0.9-1,2.1-1.6,3.2-1.6c1.5,0,2.2,0.9,2.2,3.1v1.7c0,0.8,0,2,0,2.9L611.3,38.7z"/>
	<path class="st3" d="M616.2,34.6c1.7,0.6,2.3,1.4,2.3,2.5c0,1.3-1.1,2.4-3.3,2.4c-1,0-1.7-0.2-2.6-0.6l-0.1-1.9h0.8l0.4,1.6
		c0.4,0.2,0.9,0.3,1.5,0.3c1.4,0,2.1-0.6,2.1-1.5c0-0.8-0.5-1.2-1.7-1.6l-0.8-0.3c-1.3-0.5-2.1-1.1-2.1-2.3c0-1.2,1-2.3,2.9-2.3
		c0.9,0,1.6,0.2,2.4,0.7l-0.1,1.7h-0.7l-0.3-1.4c-0.4-0.2-0.9-0.4-1.3-0.4c-1.2,0-1.8,0.5-1.8,1.3c0,0.8,0.4,1.2,1.6,1.6L616.2,34.6
		z"/>
	<path class="st3" d="M628,38.6c-0.4,0.6-0.8,0.8-1.4,0.8c-0.8,0-1.3-0.5-1.5-1.4c-1,1-1.6,1.5-2.7,1.5c-1.3,0-2.3-0.7-2.3-2.1
		c0-1.1,0.6-1.9,2.8-2.6c0.6-0.2,1.4-0.4,2.1-0.6v-0.5c0-1.8-0.5-2.2-1.7-2.2c-0.3,0-0.7,0-1.1,0.2l-0.4,1.2
		c-0.1,0.5-0.4,0.7-0.8,0.7c-0.4,0-0.7-0.2-0.7-0.6c0.3-1.3,1.6-2.1,3.3-2.1c1.8,0,2.6,0.8,2.6,2.9v3.8c0,0.9,0.3,1.2,0.7,1.2
		c0.3,0,0.5-0.1,0.7-0.4L628,38.6z M625.1,34.6c-0.7,0.2-1.4,0.4-1.8,0.6c-1.6,0.6-1.8,1.3-1.8,1.9c0,1,0.6,1.4,1.5,1.4
		c0.7,0,1.1-0.3,2.2-1.1V34.6z"/>
	<path class="st3" d="M636,37.4c-0.5,1.3-1.6,2-3.2,2c-2.3,0-3.9-1.7-3.9-4.3c0-2.7,1.9-4.3,4-4.3c1.5,0,2.7,0.9,3,2.1
		c-0.1,0.4-0.3,0.6-0.7,0.6c-0.5,0-0.7-0.3-0.8-0.7l-0.4-1.2c-0.4-0.1-0.8-0.2-1.1-0.2c-1.6,0-2.8,1.3-2.8,3.6
		c0,2.2,1.2,3.6,2.9,3.6c1,0,1.9-0.5,2.5-1.3L636,37.4z"/>
	<path class="st3" d="M642.1,38.7c-0.4,0.5-1.1,0.8-1.9,0.8c-1.2,0-1.9-0.7-1.9-2c0-0.4,0-0.8,0-1.4v-4.3h-1.6v-0.6l1.6-0.2l0.4-2.4
		h0.9l-0.1,2.4h2.4v0.7h-2.4v5.6c0,0.9,0.4,1.3,1,1.3c0.4,0,0.8-0.1,1.2-0.5L642.1,38.7z"/>
	<path class="st3" d="M646.8,38.7v0.5h-3.9v-0.5l1.4-0.2c0-0.9,0-2.1,0-2.9v-0.9c0-1,0-1.6,0-2.4l-1.5-0.1v-0.5l2.5-0.8l0.2,0.2
		l0,2.3v2.4c0,0.8,0,2,0,2.9L646.8,38.7z M643.9,27.6c0-0.6,0.4-1,1-1c0.6,0,1,0.4,1,1c0,0.6-0.4,1-1,1
		C644.3,28.6,643.9,28.2,643.9,27.6z"/>
	<path class="st3" d="M648.3,35.2c0-2.9,2-4.4,3.9-4.4c1.9,0,3.9,1.5,3.9,4.4c0,2.9-2,4.3-3.9,4.3C650.2,39.5,648.3,38.1,648.3,35.2
		z M654.8,35.2c0-2.4-1-3.7-2.6-3.7c-1.6,0-2.6,1.3-2.6,3.7c0,2.4,1,3.7,2.6,3.7C653.8,38.8,654.8,37.6,654.8,35.2z"/>
	<path class="st3" d="M667,38.7v0.5H663v-0.5l1.4-0.2c0-0.9,0-2.1,0-2.9V34c0-1.7-0.5-2.2-1.5-2.2c-0.8,0-1.6,0.3-2.6,1.3v2.5
		c0,0.8,0,2,0,2.9l1.3,0.2v0.5h-3.9v-0.5l1.3-0.2c0-0.9,0-2.1,0-2.9v-0.9c0-1,0-1.7-0.1-2.4l-1.4-0.1v-0.5l2.3-0.8l0.2,0.2l0.1,1.5
		c0.9-1,2.1-1.6,3.2-1.6c1.5,0,2.2,0.9,2.2,3.1v1.7c0,0.8,0,2,0,2.9L667,38.7z"/>
</g>
<g id="Cloud_data_forecast" class="st2">
	<path class="st3" d="M277.7,36.5l0,2.5c-1.1,0.6-2.2,0.9-3.5,0.9c-3.5,0-5.9-2.5-5.9-6.1c0-3.5,2.5-6.1,5.9-6.1
		c1,0,2.2,0.2,3.3,0.9l0.1,2.5h-0.9l-0.4-2.2c-0.7-0.4-1.3-0.5-1.9-0.5c-2.5,0-4.5,2-4.5,5.4c0,3.5,1.8,5.4,4.4,5.4
		c0.7,0,1.5-0.1,2.2-0.5l0.4-2.2H277.7z"/>
	<path class="st3" d="M283.1,39.1v0.5h-4.2v-0.5l1.5-0.2c0-0.9,0-2,0-2.9v-8l-1.5-0.1v-0.5l2.5-0.7l0.2,0.1l0,2.5V36
		c0,0.9,0,2,0,2.9L283.1,39.1z"/>
	<path class="st3" d="M284.4,35.5c0-2.9,2-4.4,3.9-4.4c1.9,0,3.9,1.5,3.9,4.4c0,2.9-2,4.3-3.9,4.3C286.4,39.8,284.4,38.4,284.4,35.5
		z M290.9,35.5c0-2.4-1-3.7-2.6-3.7c-1.6,0-2.6,1.3-2.6,3.7c0,2.4,1,3.7,2.6,3.7C290,39.2,290.9,37.9,290.9,35.5z"/>
	<path class="st3" d="M302.6,39.1v0.5l-2.3,0.1l-0.1-1.6c-0.9,1.1-2,1.7-3.1,1.7c-1.4,0-2.3-0.8-2.3-3.2l0-4.4l-1.3-0.2v-0.5
		l2.4-0.2l0.2,0.2l-0.1,2.4v2.7c0,1.7,0.5,2.2,1.6,2.2c0.9,0,1.8-0.4,2.6-1.3l0-5.3l-1.3-0.2v-0.5l2.4-0.2l0.2,0.2l-0.1,2.4v5
		L302.6,39.1z"/>
	<path class="st3" d="M312.7,39.1v0.5l-2.6,0.2l-0.1-1.2c-0.6,0.8-1.4,1.3-2.5,1.3c-2.1,0-3.5-1.8-3.5-4.3c0-2.7,1.6-4.4,3.7-4.4
		c0.8,0,1.6,0.3,2.3,1.2V28l-1.5-0.1v-0.5l2.5-0.7l0.2,0.1l0,2.4v9.6L312.7,39.1z M309.9,32.9c-0.8-0.8-1.5-1-2.1-1
		c-1.4,0-2.6,1.1-2.6,3.6c0,2.4,1.1,3.5,2.6,3.5c0.8,0,1.4-0.3,2.1-1.1V32.9z"/>
	<path class="st3" d="M326.7,39.1v0.5l-2.6,0.2l-0.1-1.2c-0.6,0.8-1.4,1.3-2.5,1.3c-2.1,0-3.5-1.8-3.5-4.3c0-2.7,1.6-4.4,3.7-4.4
		c0.8,0,1.6,0.3,2.3,1.2V28l-1.5-0.1v-0.5l2.5-0.7l0.2,0.1l0,2.4v9.6L326.7,39.1z M323.9,32.9c-0.8-0.8-1.5-1-2.1-1
		c-1.4,0-2.6,1.1-2.6,3.6c0,2.4,1.1,3.5,2.6,3.5c0.8,0,1.4-0.3,2.1-1.1V32.9z"/>
	<path class="st3" d="M335.5,39c-0.4,0.6-0.8,0.8-1.4,0.8c-0.8,0-1.3-0.5-1.5-1.4c-1,1-1.6,1.5-2.7,1.5c-1.3,0-2.3-0.7-2.3-2.1
		c0-1.1,0.6-1.9,2.8-2.6c0.6-0.2,1.4-0.4,2.1-0.6V34c0-1.8-0.5-2.2-1.7-2.2c-0.3,0-0.7,0-1.1,0.2l-0.4,1.2c-0.1,0.5-0.4,0.7-0.8,0.7
		c-0.4,0-0.7-0.2-0.7-0.6c0.3-1.3,1.6-2.1,3.3-2.1c1.8,0,2.6,0.8,2.6,2.9v3.8c0,0.9,0.3,1.2,0.7,1.2c0.3,0,0.5-0.1,0.7-0.4L335.5,39
		z M332.6,35c-0.7,0.2-1.4,0.4-1.8,0.6c-1.6,0.6-1.8,1.3-1.8,1.9c0,1,0.6,1.4,1.5,1.4c0.7,0,1.1-0.3,2.2-1.1V35z"/>
	<path class="st3" d="M341.2,39c-0.4,0.5-1.1,0.8-1.9,0.8c-1.2,0-1.9-0.7-1.9-2c0-0.4,0-0.8,0-1.4v-4.3h-1.6v-0.6l1.6-0.2l0.4-2.4
		h0.9l-0.1,2.4h2.4v0.7h-2.4v5.6c0,0.9,0.4,1.3,1,1.3c0.4,0,0.8-0.1,1.2-0.5L341.2,39z"/>
	<path class="st3" d="M350,39c-0.4,0.6-0.8,0.8-1.4,0.8c-0.8,0-1.3-0.5-1.5-1.4c-1,1-1.6,1.5-2.7,1.5c-1.3,0-2.3-0.7-2.3-2.1
		c0-1.1,0.6-1.9,2.8-2.6c0.6-0.2,1.4-0.4,2.1-0.6V34c0-1.8-0.5-2.2-1.7-2.2c-0.3,0-0.7,0-1.1,0.2l-0.4,1.2c-0.1,0.5-0.4,0.7-0.8,0.7
		c-0.4,0-0.7-0.2-0.7-0.6c0.3-1.3,1.6-2.1,3.3-2.1c1.8,0,2.6,0.8,2.6,2.9v3.8c0,0.9,0.3,1.2,0.7,1.2c0.3,0,0.5-0.1,0.7-0.4L350,39z
		 M347.1,35c-0.7,0.2-1.4,0.4-1.8,0.6c-1.6,0.6-1.8,1.3-1.8,1.9c0,1,0.6,1.4,1.5,1.4c0.7,0,1.1-0.3,2.2-1.1V35z"/>
	<path class="st3" d="M356.5,31.3c0.1-1.9,0.4-3,1.2-3.8c0.7-0.8,1.6-1,2.3-1c0.8,0,1.4,0.3,1.6,0.8c0,0.4-0.4,0.7-0.9,0.7
		c-0.4,0-0.8-0.2-1.2-0.5l-0.5-0.4c-0.3,0.1-0.6,0.4-0.8,0.7c-0.4,0.6-0.7,1.6-0.6,3.5h2.5v0.7h-2.5V36c0,1,0,2,0,2.9l1.6,0.2v0.5
		h-4.4v-0.5l1.5-0.2c0-1,0-2,0-2.9v-3.8h-1.5v-0.6L356.5,31.3z"/>
	<path class="st3" d="M361,35.5c0-2.9,2-4.4,3.9-4.4c1.9,0,3.9,1.5,3.9,4.4c0,2.9-2,4.3-3.9,4.3C363,39.8,361,38.4,361,35.5z
		 M367.5,35.5c0-2.4-1-3.7-2.6-3.7c-1.6,0-2.6,1.3-2.6,3.7c0,2.4,1,3.7,2.6,3.7C366.6,39.2,367.5,37.9,367.5,35.5z"/>
	<path class="st3" d="M373,33.4c0.6-1.4,1.6-2.3,2.6-2.3c0.5,0,1,0.2,1.2,0.6c0,0.7-0.3,1.1-0.9,1.1c-0.4,0-0.7-0.2-1-0.5l-0.2-0.2
		c-0.8,0.5-1.3,1.2-1.7,2.3V36c0,0.8,0,2,0,2.9l1.5,0.2v0.5h-4.1v-0.5l1.3-0.2c0-0.9,0-2.1,0-2.9v-0.9c0-1,0-1.7-0.1-2.4l-1.4-0.1
		V32l2.3-0.8l0.2,0.2L373,33.4z"/>
	<path class="st3" d="M378.9,35.4c0,2.4,1.3,3.5,3,3.5c1.1,0,1.9-0.5,2.5-1.2l0.3,0.3c-0.7,1.2-1.8,1.9-3.2,1.9
		c-2.2,0-3.9-1.6-3.9-4.3c0-2.7,1.8-4.4,3.9-4.4c1.9,0,3.2,1.3,3.2,3.3c0,0.4,0,0.8-0.1,1L378.9,35.4z M382.6,34.8
		c0.7,0,0.9-0.4,0.9-0.9c0-1.1-0.8-2.1-2.1-2.1c-1.2,0-2.3,1-2.5,3H382.6z"/>
	<path class="st3" d="M393.4,37.8c-0.5,1.3-1.6,2-3.2,2c-2.3,0-3.9-1.7-3.9-4.3c0-2.7,1.9-4.3,4-4.3c1.5,0,2.7,0.9,3,2.1
		c-0.1,0.4-0.3,0.6-0.7,0.6c-0.5,0-0.7-0.3-0.8-0.7l-0.4-1.2c-0.4-0.1-0.8-0.2-1.1-0.2c-1.6,0-2.8,1.3-2.8,3.6
		c0,2.2,1.2,3.6,2.9,3.6c1,0,1.9-0.5,2.5-1.3L393.4,37.8z"/>
	<path class="st3" d="M402.7,39c-0.4,0.6-0.8,0.8-1.4,0.8c-0.8,0-1.3-0.5-1.5-1.4c-1,1-1.6,1.5-2.7,1.5c-1.3,0-2.3-0.7-2.3-2.1
		c0-1.1,0.6-1.9,2.8-2.6c0.6-0.2,1.4-0.4,2.1-0.6V34c0-1.8-0.5-2.2-1.7-2.2c-0.3,0-0.7,0-1.1,0.2l-0.4,1.2c-0.1,0.5-0.4,0.7-0.8,0.7
		c-0.4,0-0.7-0.2-0.7-0.6c0.3-1.3,1.6-2.1,3.3-2.1c1.8,0,2.6,0.8,2.6,2.9v3.8c0,0.9,0.3,1.2,0.7,1.2c0.3,0,0.5-0.1,0.7-0.4L402.7,39
		z M399.8,35c-0.7,0.2-1.4,0.4-1.8,0.6c-1.6,0.6-1.8,1.3-1.8,1.9c0,1,0.6,1.4,1.5,1.4c0.7,0,1.1-0.3,2.2-1.1V35z"/>
	<path class="st3" d="M407.3,34.9c1.7,0.6,2.3,1.4,2.3,2.5c0,1.3-1.1,2.4-3.3,2.4c-1,0-1.7-0.2-2.6-0.6l-0.1-1.9h0.8l0.4,1.6
		c0.4,0.2,0.9,0.3,1.5,0.3c1.4,0,2.1-0.6,2.1-1.5c0-0.8-0.5-1.2-1.7-1.6l-0.8-0.3c-1.3-0.5-2.1-1.1-2.1-2.3c0-1.2,1-2.3,2.9-2.3
		c0.9,0,1.6,0.2,2.4,0.7l-0.1,1.7h-0.7l-0.3-1.4c-0.4-0.2-0.9-0.4-1.3-0.4c-1.2,0-1.8,0.5-1.8,1.3c0,0.8,0.4,1.2,1.6,1.6L407.3,34.9
		z"/>
	<path class="st3" d="M415.9,39c-0.4,0.5-1.1,0.8-1.9,0.8c-1.2,0-1.9-0.7-1.9-2c0-0.4,0-0.8,0-1.4v-4.3h-1.6v-0.6l1.6-0.2l0.4-2.4
		h0.9l-0.1,2.4h2.4v0.7h-2.4v5.6c0,0.9,0.4,1.3,1,1.3c0.4,0,0.8-0.1,1.2-0.5L415.9,39z"/>
</g>
<g id="Optimal_investment" class="st2">
	<path class="st3" d="M43.8,31.6c0,3.8-2.5,6.1-5.2,6.1c-2.8,0-5.3-2.2-5.3-6.1c0-3.8,2.5-6.1,5.3-6.1
		C41.3,25.5,43.8,27.7,43.8,31.6z M38.6,37c2.5,0,3.7-2.6,3.7-5.4c0-2.8-1.2-5.4-3.7-5.4c-2.5,0-3.7,2.6-3.7,5.4
		C34.9,34.4,36,37,38.6,37z"/>
	<path class="st3" d="M48,30.4c0.8-0.9,1.8-1.3,2.7-1.3c1.9,0,3.3,1.6,3.3,4.3c0,2.7-1.5,4.4-3.5,4.4c-0.8,0-1.7-0.3-2.4-1.2V38
		c0,0.9,0,2,0,3l1.6,0.2v0.5h-4.3v-0.5l1.5-0.2c0-1,0-2,0-2.9V33c0-1,0-1.7-0.1-2.4l-1.4-0.1v-0.5l2.3-0.8l0.2,0.2L48,30.4z
		 M48.1,35.9c0.7,0.7,1.4,1,2.1,1c1.4,0,2.5-1,2.5-3.5c0-2.4-1-3.6-2.4-3.6c-0.6,0-1.3,0.2-2.3,1V35.9z"/>
	<path class="st3" d="M60.2,36.9c-0.4,0.5-1.1,0.8-1.9,0.8c-1.2,0-1.9-0.7-1.9-2c0-0.4,0-0.8,0-1.4V30h-1.6v-0.6l1.6-0.2l0.4-2.4
		h0.9l-0.1,2.4h2.4V30h-2.4v5.6c0,0.9,0.4,1.3,1,1.3c0.4,0,0.8-0.1,1.2-0.5L60.2,36.9z"/>
	<path class="st3" d="M64.9,37v0.5H61V37l1.4-0.2c0-0.9,0-2.1,0-2.9v-0.9c0-1,0-1.6,0-2.4l-1.5-0.1v-0.5l2.5-0.8l0.2,0.2l0,2.3v2.4
		c0,0.8,0,2,0,2.9L64.9,37z M62,25.9c0-0.6,0.4-1,1-1c0.6,0,1,0.4,1,1c0,0.6-0.4,1-1,1C62.4,26.9,62,26.5,62,25.9z"/>
	<path class="st3" d="M80.6,37v0.5h-3.9V37l1.4-0.2c0-0.9,0-2.1,0-2.9v-1.6c0-1.7-0.5-2.2-1.5-2.2c-0.8,0-1.6,0.3-2.5,1.3
		c0,0.3,0,0.5,0,0.8v1.7c0,0.8,0,2,0,2.9l1.3,0.2v0.5h-3.9V37l1.4-0.2c0-0.9,0-2.1,0-2.9v-1.6c0-1.6-0.5-2.2-1.5-2.2
		c-0.8,0-1.5,0.3-2.5,1.2v2.5c0,0.8,0,2,0,2.9l1.3,0.2v0.5h-3.9V37l1.3-0.2c0-0.9,0-2.1,0-2.9V33c0-1,0-1.7-0.1-2.4l-1.4-0.1v-0.5
		l2.3-0.8l0.2,0.2l0.1,1.5c0.9-1,2-1.6,3.1-1.6c1.1,0,1.8,0.5,2,1.7c0.9-1.1,2.1-1.7,3.2-1.7c1.4,0,2.2,0.8,2.2,3v1.8
		c0,0.8,0,2,0,2.9L80.6,37z"/>
	<path class="st3" d="M89.8,36.9c-0.4,0.6-0.8,0.8-1.4,0.8c-0.8,0-1.3-0.5-1.5-1.4c-1,1-1.6,1.5-2.7,1.5C83,37.7,82,37,82,35.6
		c0-1.1,0.6-1.9,2.8-2.6c0.6-0.2,1.4-0.4,2.1-0.6v-0.5c0-1.8-0.5-2.2-1.7-2.2c-0.3,0-0.7,0-1.1,0.2L83.7,31
		c-0.1,0.5-0.4,0.7-0.8,0.7c-0.4,0-0.7-0.2-0.7-0.6c0.3-1.3,1.6-2.1,3.3-2.1c1.8,0,2.6,0.8,2.6,2.9v3.8c0,0.9,0.3,1.2,0.7,1.2
		c0.3,0,0.5-0.1,0.7-0.4L89.8,36.9z M86.9,32.9c-0.7,0.2-1.4,0.4-1.8,0.6c-1.6,0.6-1.8,1.3-1.8,1.9c0,1,0.6,1.4,1.5,1.4
		c0.7,0,1.1-0.3,2.2-1.1V32.9z"/>
	<path class="st3" d="M94.7,37v0.5h-4.2V37l1.5-0.2c0-0.9,0-2,0-2.9v-8l-1.5-0.1v-0.5l2.5-0.7l0.2,0.1l0,2.5v6.7c0,0.9,0,2,0,2.9
		L94.7,37z"/>
	<path class="st3" d="M103.9,37v0.5H100V37l1.4-0.2c0-0.9,0-2.1,0-2.9v-0.9c0-1,0-1.6,0-2.4l-1.5-0.1v-0.5l2.5-0.8l0.2,0.2l0,2.3
		v2.4c0,0.8,0,2,0,2.9L103.9,37z M100.9,25.9c0-0.6,0.4-1,1-1c0.6,0,1,0.4,1,1c0,0.6-0.4,1-1,1C101.4,26.9,100.9,26.5,100.9,25.9z"
		/>
	<path class="st3" d="M114.5,37v0.5h-3.9V37l1.4-0.2c0-0.9,0-2.1,0-2.9v-1.6c0-1.7-0.5-2.2-1.5-2.2c-0.8,0-1.6,0.3-2.6,1.3v2.5
		c0,0.8,0,2,0,2.9l1.3,0.2v0.5h-3.9V37l1.3-0.2c0-0.9,0-2.1,0-2.9V33c0-1,0-1.7-0.1-2.4l-1.4-0.1v-0.5l2.3-0.8l0.2,0.2l0.1,1.5
		c0.9-1,2.1-1.6,3.2-1.6c1.5,0,2.2,0.9,2.2,3.1v1.7c0,0.8,0,2,0,2.9L114.5,37z"/>
	<path class="st3" d="M123.2,29.8l-1,0.2l-2.8,7.6h-0.6l-3.1-7.6l-1.1-0.1v-0.6h4v0.6L117,30l2.3,6.1l2.1-6l-1.5-0.2v-0.6h3.2V29.8z
		"/>
	<path class="st3" d="M125.1,33.3c0,2.4,1.3,3.5,3,3.5c1.1,0,1.9-0.5,2.5-1.2l0.3,0.3c-0.7,1.2-1.8,1.9-3.2,1.9
		c-2.2,0-3.9-1.6-3.9-4.3c0-2.7,1.8-4.4,3.9-4.4c1.9,0,3.2,1.3,3.2,3.3c0,0.4,0,0.8-0.1,1L125.1,33.3z M128.9,32.7
		c0.7,0,0.9-0.4,0.9-0.9c0-1.1-0.8-2.1-2.1-2.1c-1.2,0-2.3,1-2.5,3H128.9z"/>
	<path class="st3" d="M136.2,32.8c1.7,0.6,2.3,1.4,2.3,2.5c0,1.3-1.1,2.4-3.3,2.4c-1,0-1.7-0.2-2.6-0.6l-0.1-1.9h0.8l0.4,1.6
		c0.4,0.2,0.9,0.3,1.5,0.3c1.4,0,2.1-0.6,2.1-1.5c0-0.8-0.5-1.2-1.7-1.6l-0.8-0.3c-1.3-0.5-2.1-1.1-2.1-2.3c0-1.2,1-2.3,2.9-2.3
		c0.9,0,1.6,0.2,2.4,0.7l-0.1,1.7h-0.7l-0.3-1.4c-0.4-0.2-0.9-0.4-1.3-0.4c-1.2,0-1.8,0.5-1.8,1.3c0,0.8,0.4,1.2,1.6,1.6L136.2,32.8
		z"/>
	<path class="st3" d="M144.9,36.9c-0.4,0.5-1.1,0.8-1.9,0.8c-1.2,0-1.9-0.7-1.9-2c0-0.4,0-0.8,0-1.4V30h-1.6v-0.6l1.6-0.2l0.4-2.4
		h0.9l-0.1,2.4h2.4V30h-2.4v5.6c0,0.9,0.4,1.3,1,1.3c0.4,0,0.8-0.1,1.2-0.5L144.9,36.9z"/>
	<path class="st3" d="M160.1,37v0.5h-3.9V37l1.4-0.2c0-0.9,0-2.1,0-2.9v-1.6c0-1.7-0.5-2.2-1.5-2.2c-0.8,0-1.6,0.3-2.5,1.3
		c0,0.3,0,0.5,0,0.8v1.7c0,0.8,0,2,0,2.9l1.3,0.2v0.5h-3.9V37l1.4-0.2c0-0.9,0-2.1,0-2.9v-1.6c0-1.6-0.5-2.2-1.5-2.2
		c-0.8,0-1.5,0.3-2.5,1.2v2.5c0,0.8,0,2,0,2.9l1.3,0.2v0.5h-3.9V37l1.3-0.2c0-0.9,0-2.1,0-2.9V33c0-1,0-1.7-0.1-2.4l-1.4-0.1v-0.5
		l2.3-0.8l0.2,0.2l0.1,1.5c0.9-1,2-1.6,3.1-1.6c1.1,0,1.8,0.5,2,1.7c0.9-1.1,2.1-1.7,3.2-1.7c1.4,0,2.2,0.8,2.2,3v1.8
		c0,0.8,0,2,0,2.9L160.1,37z"/>
	<path class="st3" d="M162.7,33.3c0,2.4,1.3,3.5,3,3.5c1.1,0,1.9-0.5,2.5-1.2l0.3,0.3c-0.7,1.2-1.8,1.9-3.2,1.9
		c-2.2,0-3.9-1.6-3.9-4.3c0-2.7,1.8-4.4,3.9-4.4c1.9,0,3.2,1.3,3.2,3.3c0,0.4,0,0.8-0.1,1L162.7,33.3z M166.5,32.7
		c0.7,0,0.9-0.4,0.9-0.9c0-1.1-0.8-2.1-2.1-2.1c-1.2,0-2.3,1-2.5,3H166.5z"/>
	<path class="st3" d="M179.4,37v0.5h-3.9V37l1.4-0.2c0-0.9,0-2.1,0-2.9v-1.6c0-1.7-0.5-2.2-1.5-2.2c-0.8,0-1.6,0.3-2.6,1.3v2.5
		c0,0.8,0,2,0,2.9L174,37v0.5h-3.9V37l1.3-0.2c0-0.9,0-2.1,0-2.9V33c0-1,0-1.7-0.1-2.4l-1.4-0.1v-0.5l2.3-0.8l0.2,0.2l0.1,1.5
		c0.9-1,2.1-1.6,3.2-1.6c1.5,0,2.2,0.9,2.2,3.1v1.7c0,0.8,0,2,0,2.9L179.4,37z"/>
	<path class="st3" d="M185.4,36.9c-0.4,0.5-1.1,0.8-1.9,0.8c-1.2,0-1.9-0.7-1.9-2c0-0.4,0-0.8,0-1.4V30H180v-0.6l1.6-0.2l0.4-2.4
		h0.9l-0.1,2.4h2.4V30h-2.4v5.6c0,0.9,0.4,1.3,1,1.3c0.4,0,0.8-0.1,1.2-0.5L185.4,36.9z"/>
</g>
</svg>
