<?xml version="1.0" encoding="utf-8"?>
<!-- Generator: Adobe Illustrator 22.1.0, SVG Export Plug-In . SVG Version: 6.00 Build 0)  -->
<svg version="1.1" id="组_14" xmlns="http://www.w3.org/2000/svg" xmlns:xlink="http://www.w3.org/1999/xlink" x="0px" y="0px"
	 viewBox="0 0 976 65" style="enable-background:new 0 0 976 65;" xml:space="preserve">
<style type="text/css">
	.st0{fill:url(#矩形_28_1_);}
	.st1{fill:#4E6778;}
	.st2{enable-background:new    ;}
	.st3{fill:#FFFFFF;}
</style>
<linearGradient id="矩形_28_1_" gradientUnits="userSpaceOnUse" x1="480" y1="-882.5" x2="255" y2="-882.5" gradientTransform="matrix(1 0 0 -1 -255 -850)">
	<stop  offset="0" style="stop-color:#4E6778"/>
	<stop  offset="1" style="stop-color:#61869F"/>
	<stop  offset="1" style="stop-color:#61869F"/>
</linearGradient>
<path id="矩形_28" class="st0" d="M0,0h205l20,32l-21,33H0V0z"/>
<path id="矩形_28_拷贝_2" class="st1" d="M441,65H227l21-33L228,0h214l20,32L441,65z"/>
<path id="矩形_28_拷贝_3" class="st1" d="M698,65H464l21-33L465,0h234l20,32L698,65z"/>
<path id="矩形_28_拷贝_4" class="st1" d="M955,65H721l21-33L722,0h234l20,32L955,65z"/>
<g id="智能金融" class="st2">
	<path class="st3" d="M821.5,29.7c-0.1,0.3-0.1,0.5-0.2,0.7c3.7,0.8,3.4,2.9,2.3,2.4c-0.4-0.7-1.5-1.6-2.4-2.1
		c-0.5,1.3-1.7,2.3-3.9,3.1l-0.2-0.3c2.3-1,3.1-2.3,3.5-3.8h-3.3l-0.1-0.5h3.5c0.1-0.6,0.1-1.2,0.1-1.9h-1.2c-0.4,0.7-1,1.3-1.6,1.7
		l-0.2-0.2c0.7-0.9,1.2-2.2,1.5-3.6l1.6,0.5c-0.1,0.2-0.3,0.3-0.6,0.3c-0.1,0.3-0.3,0.6-0.4,0.9h2.9l0.7-0.9c0,0,0.8,0.6,1.3,1.1
		c0,0.2-0.2,0.2-0.4,0.2h-2.5c0,0.7-0.1,1.3-0.2,1.9h1.4l0.7-0.9c0,0,0.8,0.6,1.3,1.1c0,0.2-0.2,0.3-0.4,0.3H821.5z M828.2,33l1.2,1
		c-0.1,0.1-0.3,0.2-0.6,0.3v5.2c0,0.1-0.5,0.3-0.9,0.3h-0.2v-0.9H821v0.6c0,0.1-0.4,0.4-0.9,0.4h-0.2v-6.8l1.1,0.5h6.5L828.2,33z
		 M821,34v1.9h6.8V34H821z M827.7,38.4v-2H821v2H827.7z M831.4,27.2c-0.1,0.1-0.4,0.2-0.7,0.3v4.8c0,0.1-0.5,0.3-0.9,0.3h-0.1v-1
		h-3.3v0.9c0,0.1-0.4,0.3-0.8,0.3h-0.2v-6.5l1.1,0.5h3.1l0.6-0.6L831.4,27.2z M829.7,31.1v-3.8h-3.3v3.8H829.7z"/>
	<path class="st3" d="M837.8,27c3.5,1.5,2.7,4,1.6,3.1c0-0.3-0.1-0.6-0.3-1c-1.3,0.3-3.2,0.6-5.3,0.9c-0.1,0.1-0.2,0.2-0.3,0.3
		L833,29c0,0,0.3-0.1,0.4-0.1c1-0.8,2.3-2.8,2.8-3.8l1.5,0.7c-0.1,0.1-0.3,0.3-0.6,0.2c-0.7,0.9-1.9,2.2-3.1,3.1
		c1.2,0,3.1-0.1,5-0.2c-0.4-0.7-0.9-1.3-1.3-1.7L837.8,27z M838.7,30.5l1.3,1c-0.1,0.1-0.4,0.3-0.7,0.3v6.5c0,0.8-0.1,1.3-1.4,1.5
		c0-0.3-0.1-0.6-0.3-0.8c-0.2-0.2-0.5-0.3-1-0.4v-0.3c0,0,1.1,0.1,1.4,0.1c0.2,0,0.3-0.1,0.3-0.3v-2.3H835v3.6
		c0,0.1-0.4,0.4-0.8,0.4H834v-9.1l1.1,0.5h3.1L838.7,30.5z M835,31.7v1.6h3.3v-1.6H835z M838.3,35.5v-1.7H835v1.7H838.3z M842.7,32
		c-1.2,0-1.5-0.2-1.5-1.1v-5.6l1.5,0.2c0,0.2-0.2,0.4-0.5,0.4v2.6c1.4-0.6,2.8-1.6,3.6-2.2l1.3,0.9c-0.1,0.1-0.4,0.2-0.8,0.1
		c-1,0.5-2.6,1.2-4.1,1.6v2c0,0.3,0.1,0.3,0.6,0.3h1.5c0.7,0,1.2,0,1.4,0c0.2,0,0.2,0,0.3-0.2c0.1-0.2,0.3-0.9,0.5-1.6h0.2l0,1.7
		c0.4,0.1,0.5,0.2,0.5,0.4c0,0.5-0.5,0.6-2.9,0.6H842.7z M847,38.5c0.4,0.1,0.5,0.2,0.5,0.4c0,0.5-0.5,0.7-3,0.7h-1.7
		c-1.2,0-1.5-0.3-1.5-1.1v-5.9l1.5,0.2c0,0.2-0.2,0.4-0.5,0.4v2.7c1.4-0.7,2.9-1.7,3.6-2.4l1.4,0.9c-0.1,0.1-0.4,0.2-0.8,0.1
		c-1,0.6-2.6,1.4-4.2,1.8v2.1c0,0.3,0.1,0.3,0.7,0.3h1.6c0.7,0,1.2,0,1.4,0c0.2,0,0.2,0,0.3-0.2c0.1-0.2,0.3-1,0.5-1.8h0.2L847,38.5
		z"/>
	<path class="st3" d="M857.5,25.5c0,0.2-0.2,0.3-0.6,0.3c1.4,2,4.1,3.6,6.9,4.7l0,0.2c-0.5,0.1-0.9,0.5-1,0.9
		c-2.6-1.3-5-3.4-6.2-5.7c-1.5,2.3-4.7,4.8-7.7,6.2l-0.1-0.2c2.7-1.5,6-4.7,6.9-6.9L857.5,25.5z M861.9,37.9c0,0,0.9,0.7,1.5,1.2
		c0,0.2-0.2,0.2-0.4,0.2h-13.7l-0.1-0.5h6.5V34h-5.6l-0.1-0.4h5.7V31h-3.3l-0.1-0.5h5.8l0.7-0.8c0,0,0.8,0.6,1.3,1.1
		c0,0.2-0.2,0.3-0.4,0.3h-2.9v2.6h3.8l0.8-1c0,0,0.9,0.7,1.4,1.2c0,0.2-0.2,0.2-0.4,0.2h-5.6v4.9h4.4L861.9,37.9z M851.9,34.7
		c3.2,1.9,2.1,4.3,1.1,3.3c0-1.1-0.7-2.4-1.3-3.2L851.9,34.7z M857.9,38.2c0.5-0.9,1.2-2.3,1.7-3.6l1.6,0.6
		c-0.1,0.2-0.3,0.3-0.6,0.3c-0.7,1.1-1.6,2.2-2.4,2.9L857.9,38.2z"/>
	<path class="st3" d="M872.1,25.6c0,0,0.7,0.6,1.2,1c0,0.2-0.2,0.3-0.4,0.3h-7.6l-0.1-0.5h6.3L872.1,25.6z M873.2,32.4
		c-0.1,0.1-0.4,0.3-0.7,0.3v5.8c0,0.8-0.1,1.2-1.3,1.3c0-0.3-0.1-0.5-0.2-0.7c-0.2-0.1-0.4-0.2-0.9-0.3v-0.3c0,0,0.9,0.1,1.2,0.1
		c0.2,0,0.3-0.1,0.3-0.3v-5.9h-5.1v7c0,0.1-0.3,0.3-0.8,0.3h-0.1v-8.3l1.1,0.5h4.8l0.5-0.6L873.2,32.4z M870.9,31.4v-0.5h-3.6v0.4
		c0,0.1-0.4,0.3-0.8,0.3h-0.1v-3.8l1,0.4h3.4l0.5-0.5l1.2,0.9c-0.1,0.1-0.3,0.2-0.6,0.3v2.3c0,0.1-0.5,0.3-0.8,0.3H870.9z
		 M869.4,35.7v3c0,0.1-0.3,0.3-0.7,0.3h-0.1v-3.3h-1.8l-0.1-0.5h2.6c0.3-0.8,0.6-1.8,0.7-2.4l1.2,0.5c0,0.1-0.2,0.3-0.5,0.3
		c-0.2,0.4-0.7,1.1-1.1,1.6h0.6l0.4-0.6c0,0,0.5,0.4,0.9,0.8c0,0.2-0.2,0.3-0.4,0.3H869.4z M870.9,30.4v-1.7h-3.6v1.7H870.9z
		 M867.4,32.9c2,1.2,1.1,2.6,0.4,2c0-0.6-0.3-1.4-0.6-1.9L867.4,32.9z M878.1,34.7v-0.9h-1.4v4l1.6-0.2c-0.2-0.8-0.5-1.5-0.8-2.1
		l0.2-0.1c2.8,2.6,1.9,5,0.9,4.1c0-0.5-0.1-1-0.2-1.5c-1.1,0.4-2.6,0.8-4.5,1.3c-0.1,0.2-0.2,0.3-0.4,0.4l-0.5-1.4
		c0.6,0,1.6-0.1,2.8-0.3v-4.1h-1.4v0.9c0,0.1-0.4,0.3-0.8,0.3h-0.1v-6.9l1,0.5h1.4v-3.3l1.6,0.2c0,0.2-0.2,0.4-0.6,0.4v2.7h1.2
		l0.5-0.6l1.2,0.9c-0.1,0.1-0.4,0.2-0.7,0.3v5.2c0,0.1-0.5,0.3-0.8,0.3H878.1z M874.3,33.4h1.5v-4.3h-1.5V33.4z M878.1,33.4v-4.3
		h-1.5v4.3H878.1z"/>
</g>
<g id="细节交易" class="st2">
	<path class="st3" d="M564.1,25.8c-0.1,0.1-0.2,0.3-0.6,0.3c-0.7,1.1-1.9,2.7-2.9,3.7c0.7,0,1.6-0.1,2.6-0.1c0.4-0.7,0.8-1.3,1-1.8
		l1.4,0.9c-0.1,0.1-0.3,0.2-0.6,0.2c-0.9,1.4-2.6,3.4-4.2,4.8c1.1-0.1,2.7-0.4,4.4-0.7l0,0.3c-1,0.3-2.7,1-4.6,1.6
		c-0.1,0.1-0.2,0.2-0.3,0.3l-0.6-1.4c0,0,0.3-0.1,0.4-0.2c0.9-0.8,1.9-2.1,2.7-3.4c-0.7,0.2-1.5,0.4-2.3,0.7
		c-0.1,0.1-0.2,0.2-0.3,0.2l-0.6-1.4c0,0,0.3-0.1,0.4-0.1c1-0.9,2.1-3.2,2.5-4.4L564.1,25.8z M559.9,37.4c1-0.2,3.3-0.9,5.4-1.6
		l0.1,0.2c-1.1,0.6-2.5,1.4-4.5,2.4c0,0.2-0.2,0.3-0.3,0.4L559.9,37.4z M574.2,26.5c-0.1,0.1-0.3,0.2-0.7,0.3v12
		c0,0.1-0.4,0.4-0.8,0.4h-0.2v-1.3h-5.7v1.2c0,0.1-0.3,0.4-0.8,0.4h-0.2V25.7l1.2,0.5h5.4l0.6-0.7L574.2,26.5z M566.8,26.7v4.9h2.4
		v-4.9H566.8z M566.8,37.5h2.4v-5.4h-2.4V37.5z M570.1,26.7v4.9h2.4v-4.9H570.1z M572.5,37.5v-5.4h-2.4v5.4H572.5z"/>
	<path class="st3" d="M588.9,25.9c0,0,0.9,0.7,1.4,1.2c0,0.2-0.2,0.3-0.4,0.3h-4v1.8c0,0.1-0.4,0.4-0.9,0.4h-0.2v-2.1h-4v1.9
		c0,0.1-0.5,0.3-0.9,0.3h-0.2v-2.2h-4.2l-0.1-0.5h4.3v-2.2l1.6,0.2c0,0.2-0.2,0.4-0.6,0.4v1.6h4v-2.2l1.6,0.2c0,0.2-0.2,0.4-0.6,0.4
		v1.6h2.2L588.9,25.9z M587.6,29.6l1.2,1c-0.1,0.1-0.3,0.2-0.6,0.2c-0.1,3.3-0.2,5.2-0.8,5.7c-0.4,0.4-0.9,0.5-1.5,0.5
		c0-0.3,0-0.6-0.3-0.8c-0.2-0.2-0.8-0.3-1.4-0.4v-0.3c0.6,0,1.6,0.1,2,0.1c0.3,0,0.4,0,0.5-0.2c0.3-0.3,0.4-2,0.5-4.9h-4.6v8.4
		c0,0.1-0.4,0.3-0.9,0.3h-0.2v-8.8h-4.8l-0.1-0.5H587L587.6,29.6z"/>
	<path class="st3" d="M602.9,31.8c-0.1,0.2-0.3,0.3-0.7,0.2c-0.6,1.3-1.5,2.6-2.7,3.7c1.9,1.3,4.3,2.2,6.9,2.7l0,0.2
		c-0.5,0-0.9,0.4-1,0.9c-2.5-0.6-4.7-1.7-6.5-3.2c-1.8,1.5-4.2,2.6-7.3,3.2l-0.1-0.2c2.8-0.8,5.1-2,6.8-3.6c-1.1-1.1-2-2.5-2.5-4.1
		l0.3-0.2c0.6,1.5,1.6,2.7,2.8,3.7c1.1-1.2,2-2.5,2.5-4L602.9,31.8z M591.9,28.2l-0.1-0.5H604l0.8-1.1c0,0,0.9,0.8,1.4,1.3
		c0,0.2-0.2,0.3-0.4,0.3H591.9z M592.2,32.8c1.6-1.1,3.1-2.9,3.7-4.3l1.6,0.8c-0.1,0.2-0.2,0.2-0.6,0.2c-0.9,1.2-2.6,2.7-4.5,3.6
		L592.2,32.8z M597.2,24.8c3.6,0.9,2.8,3.3,1.6,2.6c-0.2-0.8-1.1-1.9-1.8-2.4L597.2,24.8z M600.8,28.7c5.3,1.7,4.9,4.6,3.5,3.9
		c-0.6-1.2-2.3-2.8-3.6-3.7L600.8,28.7z"/>
	<path class="st3" d="M621.7,33.3c-0.1,0.1-0.3,0.2-0.7,0.2c-0.3,2.6-0.9,4.8-1.7,5.4c-0.5,0.4-1.1,0.6-1.8,0.5
		c0-0.3-0.1-0.6-0.3-0.8c-0.2-0.2-1-0.3-1.6-0.4V38c0.7,0.1,2.1,0.2,2.5,0.2c0.3,0,0.5,0,0.7-0.2c0.6-0.4,1.1-2.3,1.4-4.6h-1.8
		c-1.1,2.8-3.3,4.9-6.5,6.2l-0.2-0.3c2.7-1.4,4.5-3.5,5.5-5.9h-1.8c-1.3,2-3.4,3.7-5.9,4.9L609,38c2-1.2,3.7-2.9,4.8-4.7h-2
		c-1.1,1-2.4,2-3.9,2.6l-0.2-0.2c1.9-1.2,3.7-3.2,4.6-4.7h-0.8v0.4c0,0.1-0.4,0.4-0.9,0.4h-0.2v-6.6l1.1,0.5h6.7l0.6-0.6l1.3,1
		c-0.1,0.1-0.4,0.3-0.7,0.3v4.9c0,0.1-0.5,0.4-0.9,0.4h-0.2v-0.6H613l1.1,0.3c0,0.2-0.3,0.3-0.7,0.3c-0.3,0.4-0.7,0.8-1.1,1.2h7.5
		l0.6-0.6L621.7,33.3z M611.5,26.3v1.9h6.9v-1.9H611.5z M611.5,30.6h6.9v-2h-6.9V30.6z"/>
</g>
<g id="云数据预测" class="st2">
	<path class="st3" d="M317.3,30.1c0,0,0.9,0.7,1.5,1.3c0,0.2-0.2,0.3-0.4,0.3h-7.5l1.4,0.8c-0.1,0.1-0.3,0.3-0.6,0.2
		c-1.1,1.6-3.2,4-5.1,5.5c2-0.1,5.6-0.3,9.5-0.6c-0.8-1.3-1.9-2.6-2.8-3.6l0.2-0.1c5.8,3.5,5.1,7,3.6,5.9c-0.2-0.6-0.4-1.2-0.8-1.8
		c-2.4,0.4-5.8,0.8-9.8,1.3c-0.1,0.2-0.2,0.3-0.4,0.3l-0.5-1.4c0,0,0.4-0.1,0.5-0.2c1.6-1.4,3.7-4.4,4.6-6.2h-6.4l-0.1-0.5h12.4
		L317.3,30.1z M305.9,27.2l-0.1-0.5h9l0.8-1c0,0,0.9,0.7,1.5,1.2c0,0.2-0.2,0.3-0.4,0.3H305.9z"/>
	<path class="st3" d="M319.9,32.4c1.3-0.9,2.4-2.1,3.1-3.4h-2.7l-0.1-0.5h3.3v-3.3l1.6,0.2c0,0.2-0.2,0.4-0.6,0.4v2.7h1.9l0.7-0.8
		c0,0,0.8,0.6,1.2,1.1c0,0.2-0.2,0.3-0.4,0.3h-3.3v0.3c3.6,1.1,3,3.2,1.9,2.6c-0.3-0.7-1.2-1.6-1.9-2.2V32c0,0.1-0.4,0.4-0.8,0.4
		h-0.2v-2.3c-0.9,1-2,1.9-3.4,2.6L319.9,32.4z M327.6,34.3c-0.1,0.1-0.3,0.2-0.6,0.2c-0.4,1-0.8,1.9-1.5,2.6
		c1.7,0.9,1.4,1.9,0.6,1.7c-0.3-0.4-0.8-0.7-1.2-1c-1.1,0.9-2.5,1.6-4.5,2l-0.1-0.3c1.7-0.5,3-1.2,3.9-2.1c-1-0.5-2.2-0.9-3.1-1.1
		l0.1-0.2c0.3-0.5,0.7-1.2,1.1-1.8h-2l-0.1-0.5h2.4c0.3-0.6,0.6-1.2,0.8-1.6l1.5,0.5c-0.1,0.2-0.2,0.3-0.7,0.3
		c-0.1,0.2-0.3,0.5-0.4,0.8h2.3l0.6-0.6L327.6,34.3z M321,25.8c2.7,1.1,1.8,2.9,0.9,2.2c-0.1-0.7-0.6-1.6-1.1-2.1L321,25.8z
		 M323.3,34.4c-0.4,0.6-0.8,1.3-1.1,1.9c1.1,0.1,1.9,0.3,2.6,0.5c0.5-0.7,0.9-1.5,1.2-2.4H323.3z M327.5,26.2
		c-0.1,0.2-0.3,0.3-0.6,0.3c-0.5,0.6-1.1,1.3-1.6,1.8l-0.2-0.1c0.3-0.6,0.7-1.6,1-2.4L327.5,26.2z M333.5,29.3
		c-0.3,2.6-0.8,4.8-2,6.6c0.9,1.2,2,2.3,3.6,3.1l0,0.2c-0.5,0.1-0.8,0.3-1,0.8c-1.3-0.9-2.3-2-3.1-3.3c-1.1,1.3-2.6,2.4-4.7,3.2
		l-0.1-0.2c2-1.1,3.4-2.3,4.4-3.8c-0.7-1.5-1.2-3.1-1.5-4.9c-0.4,0.8-0.9,1.6-1.4,2.2l-0.2-0.1c1-1.9,1.8-4.8,2.1-7.7l1.7,0.4
		c0,0.2-0.2,0.4-0.6,0.4c-0.2,1-0.5,2-0.8,2.8h3.2l0.7-0.9c0,0,0.8,0.7,1.4,1.2c0,0.2-0.2,0.3-0.4,0.3H333.5z M329.5,29.3
		c-0.1,0.4-0.3,0.7-0.4,1c0.4,1.7,0.9,3.3,1.7,4.7c0.8-1.6,1.3-3.5,1.5-5.7H329.5z"/>
	<path class="st3" d="M341.5,32c-0.6,0.3-1.3,0.7-2.2,1.2v5.2c0,0.9-0.2,1.4-1.5,1.5c0-0.3-0.1-0.6-0.3-0.8
		c-0.2-0.2-0.6-0.3-1.2-0.4v-0.3c0,0,1.4,0.1,1.7,0.1c0.3,0,0.4-0.1,0.4-0.3v-4.5c-0.5,0.3-1,0.5-1.6,0.8c0,0.2-0.2,0.4-0.3,0.4
		l-0.6-1.3c0.5-0.1,1.4-0.4,2.5-0.8v-3.5h-2.1l-0.1-0.5h2.2v-3.6l1.6,0.2c0,0.2-0.2,0.4-0.6,0.4v3h0.4l0.6-0.9c0,0,0.7,0.7,1.2,1.1
		c0,0.2-0.2,0.3-0.4,0.3h-1.8v3.2c0.7-0.2,1.4-0.5,2.1-0.7L341.5,32z M346.8,32.3v2.4h1.9l0.6-0.6l1.3,1c-0.1,0.1-0.4,0.2-0.7,0.3v4
		c0,0.1-0.5,0.3-0.8,0.3h-0.2v-1H344v0.7c0,0.1-0.4,0.3-0.9,0.3H343v-5.5l1.1,0.5h1.7v-2.4h-3.1c-0.2,2.4-0.7,5.1-2.5,7.2l-0.2-0.1
		c1.6-2.8,1.8-6.2,1.8-9.3v-4.3l1.2,0.5h5.9l0.5-0.6l1.2,0.9c-0.1,0.1-0.3,0.2-0.5,0.3v2.9c0,0.1-0.5,0.3-0.9,0.3H349v-0.6h-6.2v0.5
		c0,0.6,0,1.2,0,1.8h3.1v-2.2l1.6,0.2c0,0.2-0.2,0.3-0.6,0.4v1.6h1.9l0.7-0.9c0,0,0.8,0.7,1.4,1.2c0,0.2-0.2,0.3-0.4,0.3H346.8z
		 M342.8,26.7v2.3h6.2v-2.3H342.8z M344,35.3v3.1h4.8v-3.1H344z"/>
	<path class="st3" d="M358.8,31.3c-0.1,0.1-0.3,0.1-0.6,0.1c-0.4,0.6-1.2,1.4-1.7,1.9l-0.2-0.1c0.2-0.5,0.6-1.3,0.8-1.9h-1.6v6.8
		c0,0.8-0.2,1.4-1.6,1.5c0-0.3-0.1-0.6-0.3-0.7c-0.2-0.2-0.6-0.3-1.2-0.4v-0.3c0,0,1.4,0.1,1.7,0.1c0.3,0,0.3-0.1,0.3-0.3v-6.8h-2.2
		l-0.1-0.5h4.9l0.6-0.6L358.8,31.3z M352.3,26.7l-0.1-0.5h4.3l0.7-0.7l1.2,1.1c-0.1,0.1-0.3,0.2-0.6,0.2c-0.5,0.7-1.4,1.6-2.1,2.4
		c0.7,0.9,0.2,1.7-0.5,1.3c-0.2-0.8-1.1-1.8-1.9-2.4l0.2-0.1c0.9,0.2,1.6,0.6,2,0.9c0.4-0.7,0.9-1.5,1.2-2.2H352.3z M363.3,31
		c0,0.2-0.2,0.4-0.5,0.4c-0.1,4.2,0,6.9-5.5,8.5l-0.2-0.3c4.8-1.7,4.6-4.4,4.6-8.8L363.3,31z M365.4,25.4c0,0,0.8,0.6,1.3,1.1
		c0,0.2-0.2,0.3-0.4,0.3h-3.4c-0.4,0.9-0.8,1.9-1.2,2.5h2.8l0.5-0.6l1.2,0.9c-0.1,0.1-0.3,0.2-0.6,0.3V36c0,0.1-0.5,0.4-0.8,0.4
		h-0.1v-6.6h-4.8v6.6c0,0.1-0.4,0.3-0.8,0.3h-0.2v-7.9l1.1,0.5h1.3c0.1-0.7,0.3-1.7,0.4-2.5h-3.2l-0.1-0.5h6.4L365.4,25.4z
		 M362.6,36.7c4.7,1.2,4.4,3.6,3.1,3.1c-0.6-0.9-2.1-2.2-3.2-2.9L362.6,36.7z"/>
	<path class="st3" d="M368.2,29c3.1,0.7,2.3,2.8,1.3,2.1c-0.2-0.7-0.9-1.5-1.4-2L368.2,29z M368.9,35.4c0.2,0,0.2,0,0.4-0.4
		c0.2-0.5,0.2-0.5,2.3-6.7l0.3,0.1c-0.5,1.9-1.4,5.4-1.6,6.2c-0.1,0.5-0.2,1-0.2,1.4c0,0.7,0.5,1.4,0.4,2.8c0,0.7-0.3,1.1-0.9,1.1
		c-0.3,0-0.5-0.3-0.5-0.8c0.2-1.6,0.1-2.9-0.2-3.1c-0.2-0.2-0.4-0.2-0.8-0.2v-0.4H368.9z M369.2,25.3c3.4,0.6,2.6,2.9,1.5,2.2
		c-0.2-0.7-1-1.6-1.7-2.1L369.2,25.3z M376,28.6c-0.1,0.2-0.2,0.3-0.6,0.3c-0.1,5.8,0,9-4.1,10.9l-0.2-0.3c3.5-2.1,3.4-5,3.4-11.4
		L376,28.6z M373.5,26.4h3.2l0.5-0.6l1.1,0.9c-0.1,0.1-0.3,0.2-0.7,0.3v7.9c0,0.1-0.4,0.3-0.8,0.3h-0.1v-8.3h-3.5v8.3
		c0,0.1-0.3,0.3-0.8,0.3h-0.1v-9.6L373.5,26.4z M375.3,35.7c3.6,1.4,2.9,3.9,1.8,3.1c-0.2-1-1.2-2.2-1.9-3L375.3,35.7z M380.4,27.5
		c0,0.2-0.2,0.4-0.6,0.4V36c0,0.1-0.4,0.3-0.7,0.3h-0.2v-9L380.4,27.5z M382.6,25.7c0,0.2-0.2,0.4-0.6,0.4v12.2
		c0,0.8-0.2,1.3-1.5,1.5c0-0.3-0.1-0.6-0.3-0.7c-0.2-0.2-0.6-0.3-1.2-0.4v-0.3c0,0,1.4,0.1,1.7,0.1c0.3,0,0.4-0.1,0.4-0.3V25.5
		L382.6,25.7z"/>
</g>
<g id="投资优选" class="st2">
	<path class="st3" d="M85.5,31c-0.5,0.4-1.2,1-2,1.6v5.5c0,0.9-0.2,1.4-1.7,1.6c0-0.3-0.1-0.6-0.4-0.8c-0.2-0.2-0.7-0.3-1.4-0.4
		v-0.3c0,0,1.7,0.1,2,0.1c0.3,0,0.4-0.1,0.4-0.4v-4.6c-0.5,0.3-0.9,0.7-1.5,1.1c0,0.2-0.1,0.4-0.2,0.5L80,33.7
		c0.5-0.2,1.4-0.7,2.5-1.3v-3.2h-2.3L80,28.7h2.5v-3.7l1.6,0.2c0,0.2-0.2,0.4-0.6,0.4v3.1h0.6l0.7-0.9c0,0,0.8,0.6,1.2,1.1
		c0,0.2-0.2,0.3-0.4,0.3h-2.1v2.6c0.6-0.3,1.2-0.7,1.8-1L85.5,31z M93.7,32.8c-0.1,0.1-0.3,0.2-0.7,0.2c-0.6,1.5-1.5,2.7-2.7,3.8
		c1.3,0.9,2.8,1.5,4.6,1.9l0,0.2c-0.5,0-0.8,0.4-1,0.8c-1.7-0.5-3.2-1.3-4.3-2.3c-1.4,1-3.1,1.8-5.3,2.4l-0.1-0.3
		c2-0.6,3.6-1.5,4.9-2.7c-0.9-1.1-1.6-2.3-2.1-4h-1.2l-0.1-0.5h6.3l0.7-0.6L93.7,32.8z M85.1,31.9c1.8-1.3,2.1-2.9,2.1-4.4v-1.9
		l1.2,0.5H91l0.6-0.6l1.1,1c-0.1,0.1-0.3,0.2-0.6,0.2v3.3c0,0.2,0,0.2,0.3,0.2h0.6h0.6c0.1,0,0.2,0,0.2,0c0.1,0,0.2,0,0.3,0h0.2
		c0.3,0.1,0.4,0.2,0.4,0.4c0,0.4-0.4,0.6-1.8,0.6h-0.8c-0.9,0-1-0.3-1-0.9v-3.8h-3.1v0.9c0,1.4-0.3,3.4-2.9,4.7L85.1,31.9z
		 M87.3,32.9c0.5,1.4,1.3,2.5,2.4,3.4c1-1,1.7-2.1,2.2-3.4H87.3z"/>
	<path class="st3" d="M101.4,26.2c-0.7,0.8-2.4,2.9-2.7,3.3c-0.2,0.3-0.4,0.6-0.4,0.9c0,0.4,0.3,0.8,0.3,1.6c0,0.5-0.3,0.8-0.7,0.8
		c-0.2,0-0.4-0.2-0.5-0.6c0.1-1.2,0.1-1.8-0.3-1.9c-0.2-0.1-0.4-0.1-0.7-0.2v-0.4h0.8c0.2,0,0.3,0,0.5-0.2c0.4-0.4,0.4-0.4,3.4-3.5
		L101.4,26.2z M104.5,34.3c-0.1,0.2-0.3,0.3-0.6,0.3c-0.4,2.3-1,4-7.4,5.2l-0.1-0.3c5.7-1.3,6.4-3,6.5-5.6L104.5,34.3z M96.8,25.3
		c3.3,0.6,2.7,2.8,1.6,2.2c-0.3-0.7-1.1-1.6-1.8-2L96.8,25.3z M107.1,37.2v-4h-7.4v4.2c0,0.1-0.5,0.4-0.9,0.4h-0.2v-5.6l1.1,0.5h7.2
		l0.6-0.6l1.2,1c-0.1,0.1-0.3,0.2-0.6,0.3v3.6c0,0.1-0.5,0.3-0.9,0.3H107.1z M105.4,28.5c0.6,1.1,1.9,2.2,5.2,2.8l0,0.2
		c-0.5,0.1-0.8,0.2-0.9,0.8c-2.7-0.8-3.9-2.1-4.4-3.3c-0.4,1.2-1.6,2.4-5.5,3.4L99.7,32c4-1.3,4.7-2.7,4.8-4.4l1.6,0.2
		c0,0.2-0.2,0.4-0.5,0.4L105.4,28.5z M99.9,29.7c1.2-1.1,2.2-3.1,2.6-4.7l1.7,0.3c0,0.2-0.2,0.3-0.6,0.3c-0.2,0.4-0.4,0.8-0.6,1.2
		h5.5l0.6-0.7l1.2,1.2c-0.1,0.1-0.3,0.1-0.6,0.2c-0.4,0.5-1.2,1.3-1.9,1.8l-0.2-0.1c0.2-0.5,0.6-1.2,0.8-1.8h-5.8
		c-0.7,1-1.6,2-2.6,2.6L99.9,29.7z M103.6,36.9c8.1,1.1,6.4,3.5,5.1,2.6c-1-0.8-2.8-1.7-5.2-2.4L103.6,36.9z"/>
	<path class="st3" d="M116.1,29.6c-0.1,0.1-0.2,0.2-0.5,0.3v9.5c0,0.1-0.4,0.4-0.8,0.4h-0.2v-9.1c-0.8,1-1.6,1.9-2.4,2.7l-0.2-0.2
		c1.6-1.9,3.2-4.9,4.2-8l1.6,0.6c-0.1,0.2-0.3,0.3-0.6,0.3c-0.5,1.2-1,2.3-1.7,3.4L116.1,29.6z M126.5,38.1c0.4,0.1,0.4,0.3,0.4,0.5
		c0,0.4-0.5,0.6-2.6,0.6h-1.4c-1.2,0-1.4-0.3-1.4-1.1v-8.1h-0.9c-0.2,4.2-0.8,7.6-4.4,9.9l-0.2-0.3c2.9-2.3,3.5-5.5,3.6-9.6h-2.8
		l-0.1-0.5h2.9c0-1.4,0-2.8,0-4.4l1.7,0.2c0,0.2-0.2,0.4-0.6,0.4c0,1.3,0,2.6,0,3.8h3.9l0.8-1c0,0,0.9,0.7,1.5,1.2
		c0,0.2-0.2,0.3-0.4,0.3h-3.8v0.3v7.6c0,0.3,0.1,0.4,0.6,0.4h1.2c0.6,0,1,0,1.2,0c0.1,0,0.2-0.1,0.3-0.2c0.1-0.3,0.3-1.4,0.5-2.5
		h0.2L126.5,38.1z M122.3,25.6c3.5,1.1,2.7,3.3,1.6,2.6c-0.2-0.8-1.1-1.9-1.8-2.4L122.3,25.6z"/>
	<path class="st3" d="M131.1,36.4c0.1,0,0.1,0.1,0.2,0.2c1.5,1.4,3.2,1.7,6.2,1.7c1.8,0,3.3,0,5.2-0.1v0.2c-0.5,0.1-0.7,0.4-0.8,0.9
		h-4.7c-3,0-4.6-0.5-6.1-2.3c-0.2-0.2-0.4-0.2-0.5,0c-0.3,0.5-1.1,1.5-1.6,2.2c0.1,0.1,0,0.3-0.1,0.4l-0.9-1.2
		c0.6-0.4,1.5-1.2,2.2-1.7V31h-2.1l-0.1-0.5h1.9l0.6-0.8l1.3,1.1c-0.1,0.1-0.3,0.2-0.8,0.3V36.4z M129,25.3c3.6,1.9,2.7,4.3,1.6,3.4
		c-0.2-1.1-1.1-2.4-1.8-3.3L129,25.3z M132.4,37.1c2.1-1.3,2.6-2.9,2.7-5.3h-2.5l-0.1-0.5h4.3v-2.8h-2.3c-0.5,0.9-1,1.7-1.6,2.3
		l-0.2-0.1c0.8-1.2,1.4-3.1,1.7-4.9l1.6,0.4c-0.1,0.2-0.2,0.3-0.6,0.3c-0.2,0.5-0.4,1.1-0.6,1.6h2v-2.8l1.6,0.2
		c0,0.2-0.2,0.4-0.6,0.4V28h2l0.7-0.9c0,0,0.8,0.7,1.4,1.2c0,0.2-0.2,0.3-0.4,0.3h-3.6v2.8h2.5l0.8-0.9c0,0,0.8,0.7,1.4,1.2
		c0,0.2-0.2,0.3-0.4,0.3h-2.9v0.1v4c0,0.2,0,0.2,0.4,0.2h0.8h0.8c0.1,0,0.2,0,0.2-0.2c0.1-0.2,0.3-1.2,0.4-2h0.2l0,2.1
		c0.3,0.1,0.4,0.3,0.4,0.4c0,0.4-0.4,0.6-2.1,0.6h-1c-1,0-1.1-0.3-1.1-0.9v-4.3h-1.9c-0.2,2.8-1.1,4.4-3.7,5.6L132.4,37.1z"/>
</g>
</svg>
